<svg width="85" height="34" viewBox="0 0 85 34" fill="none" xmlns="http://www.w3.org/2000/svg">
<path d="M60.56 0C69.296 0 80.4933 11.9 85 17.85C85 17.85 75.64 21 59 21C42.36 21 33 17.85 33 17.85C38.5467 11.9 51.824 0 60.56 0Z" fill="url(#paint0_linear_767_8057)"/>
<path d="M39.75 4C52.35 4 68.5 21 75 29.5C75 29.5 61.5 34 37.5 34C13.5 34 0 29.5 0 29.5C8 21 27.15 4 39.75 4Z" fill="url(#paint1_linear_767_8057)"/>
<defs>
<linearGradient id="paint0_linear_767_8057" x1="59" y1="0" x2="59" y2="17.85" gradientUnits="userSpaceOnUse">
<stop stop-color="#F0C78F"/>
<stop offset="1" stop-color="#A48361"/>
</linearGradient>
<linearGradient id="paint1_linear_767_8057" x1="37.5" y1="4" x2="37.5" y2="29.5" gradientUnits="userSpaceOnUse">
<stop stop-color="#F0C78F"/>
<stop offset="1" stop-color="#A48361"/>
</linearGradient>
</defs>
</svg>
