<svg width="393" height="414" viewBox="0 0 393 414" fill="none" xmlns="http://www.w3.org/2000/svg">
<g clip-path="url(#clip0_819_13049)">
<path d="M721.982 0H-588V339.072H721.982V0Z" fill="url(#paint0_linear_819_13049)"/>
<path d="M721.982 74.9277H-588V414H721.982V74.9277Z" fill="url(#paint1_linear_819_13049)"/>
<path style="mix-blend-mode:lighten" d="M722 253.02V274.238C722 274.238 613.405 244.842 447.389 273.667C377.368 285.823 315.508 279.893 254.993 273.078C253.704 272.93 252.414 272.783 251.125 272.636C248.564 272.341 245.985 272.065 243.406 271.77C240.643 271.457 237.88 271.144 235.135 270.831C232.758 270.573 230.382 270.296 228.006 270.039C224.432 269.633 220.876 269.247 217.321 268.878C210.192 268.123 203.063 267.405 195.933 266.742C192.507 266.428 189.081 266.134 185.654 265.839C185.507 265.839 185.36 265.821 185.212 265.802C182.836 265.618 180.441 265.434 178.065 265.25C174.472 264.992 170.88 264.752 167.306 264.531C166.109 264.458 164.911 264.402 163.714 264.329C161.319 264.2 158.906 264.089 156.511 263.979C152.901 263.813 149.271 263.684 145.642 263.592C144.427 263.574 143.229 263.537 142.013 263.518C137.003 263.408 131.974 263.389 126.926 263.426C124.144 263.445 121.363 263.5 118.563 263.555C117.163 263.592 115.763 263.629 114.362 263.684C109.278 263.868 104.194 264.108 99.0541 264.439C95.6277 264.679 92.2012 264.937 88.7564 265.25C87.1537 265.397 85.551 265.544 83.9484 265.71C83.6905 265.729 83.4325 265.765 83.1746 265.784C80.7061 266.042 78.2376 266.318 75.7507 266.631C74.8849 266.742 74.0007 266.834 73.1349 266.963C72.9322 266.981 72.7296 267.018 72.5269 267.036C72.1032 267.092 71.6611 267.147 71.2374 267.202C70.8137 267.257 70.3716 267.313 69.9479 267.368C68.7873 267.534 67.6452 267.681 66.4846 267.865C65.3793 268.031 64.2556 268.197 63.1503 268.362C61.1055 268.676 59.0423 269.007 56.979 269.357C55.5422 269.596 54.1053 269.854 52.6684 270.112C51.821 270.26 50.992 270.425 50.1446 270.573C49.813 270.628 49.463 270.702 49.1314 270.757C48.1551 270.941 47.1787 271.125 46.2208 271.328C45.6497 271.438 45.0971 271.549 44.5076 271.678C43.7708 271.825 43.0339 271.973 42.297 272.12C38.41 272.93 34.5047 273.796 30.5624 274.735C28.886 275.141 27.2281 275.527 25.5517 275.914C24.7964 276.098 24.0228 276.283 23.2675 276.448C21.8306 276.78 20.3937 277.111 18.9568 277.424C18.0357 277.627 17.1146 277.848 16.1936 278.051C13.154 278.732 10.096 279.395 7.05638 280.04C5.85898 280.298 4.66159 280.556 3.44576 280.795C3.09575 280.869 2.74572 280.961 2.39571 281.016C1.49305 281.2 0.590386 281.385 -0.312274 281.569C-0.625442 281.642 -0.920188 281.698 -1.23336 281.753C-1.80443 281.882 -2.39389 281.992 -2.98338 282.103C-4.40185 282.398 -5.80191 282.674 -7.20195 282.95C-7.9204 283.097 -8.62041 283.245 -9.32043 283.374C-9.50465 283.411 -9.6889 283.447 -9.87311 283.484C-11.1442 283.742 -12.4153 283.982 -13.6863 284.221C-18.5865 285.16 -23.4683 286.063 -28.3316 286.91C-30.2474 287.26 -32.1817 287.573 -34.0976 287.905C-36.5661 288.328 -39.0161 288.734 -41.4662 289.139C-42.9768 289.397 -44.4874 289.636 -45.9979 289.876C-46.6058 289.986 -47.2322 290.078 -47.8401 290.17C-49.6823 290.465 -51.506 290.741 -53.3298 291.018C-55.6509 291.368 -57.9536 291.718 -60.2747 292.049C-62.1721 292.325 -64.0696 292.602 -65.967 292.859C-70.2408 293.449 -74.5146 294.02 -78.7516 294.572C-82.9702 295.107 -87.1703 295.622 -91.352 296.101C-92.8073 296.267 -94.281 296.451 -95.7179 296.598C-96.6759 296.709 -97.6338 296.82 -98.6101 296.912C-106.108 297.74 -113.587 298.477 -120.974 299.14C-121.582 299.196 -122.19 299.251 -122.798 299.306C-126.795 299.656 -130.774 299.988 -134.735 300.301C-136.467 300.43 -138.217 300.559 -139.948 300.687C-140.519 300.724 -141.072 300.78 -141.662 300.816C-143.301 300.945 -144.922 301.056 -146.562 301.166C-146.635 301.166 -146.728 301.166 -146.801 301.166C-148.809 301.295 -150.817 301.424 -152.807 301.553C-154.63 301.664 -156.436 301.774 -158.259 301.885C-159.033 301.94 -159.807 301.977 -160.581 302.014C-161.962 302.087 -163.344 302.179 -164.725 302.235C-166.697 302.345 -168.649 302.437 -170.62 302.529C-179.407 302.953 -188.047 303.248 -196.54 303.469C-197.184 303.469 -197.829 303.506 -198.455 303.524C-201.882 303.598 -205.272 303.671 -208.643 303.708C-211.001 303.745 -213.359 303.763 -215.698 303.782C-219.788 303.819 -223.841 303.837 -227.856 303.819C-228.741 303.819 -229.606 303.819 -230.491 303.819C-233.991 303.819 -237.454 303.763 -240.881 303.727C-241.746 303.727 -242.594 303.708 -243.441 303.69C-244.546 303.671 -245.652 303.653 -246.757 303.635C-248.194 303.616 -249.631 303.579 -251.049 303.542C-253.149 303.487 -255.231 303.432 -257.294 303.377C-258.086 303.358 -258.878 303.34 -259.671 303.303C-260.831 303.266 -261.992 303.229 -263.152 303.192C-268.992 302.99 -274.721 302.75 -280.321 302.456C-281.427 302.4 -282.532 302.345 -283.619 302.271C-284.835 302.198 -286.032 302.143 -287.248 302.069C-317.275 300.301 -343.452 297.354 -364.379 293.817C-365.429 293.633 -366.479 293.449 -367.511 293.283C-369.574 292.915 -371.582 292.546 -373.535 292.178C-374.511 291.994 -375.469 291.81 -376.409 291.607C-377.827 291.312 -379.209 291.036 -380.572 290.741C-381.935 290.447 -383.261 290.17 -384.551 289.876C-386.264 289.489 -387.922 289.084 -389.525 288.697C-390.335 288.494 -391.109 288.292 -391.901 288.089C-393.449 287.684 -394.922 287.279 -396.341 286.873C-397.759 286.468 -399.122 286.063 -400.412 285.639C-401.388 285.326 -402.328 285.031 -403.23 284.718C-403.838 284.516 -404.409 284.313 -404.981 284.092C-405.552 283.89 -406.104 283.687 -406.638 283.466C-407.707 283.042 -408.72 282.637 -409.66 282.213C-410.378 281.9 -411.023 281.587 -411.668 281.274C-412.294 280.961 -412.883 280.648 -413.436 280.335C-413.804 280.132 -414.154 279.911 -414.486 279.708C-414.818 279.506 -415.131 279.285 -415.426 279.082C-416.162 278.566 -416.807 278.051 -417.323 277.535C-418.263 276.614 -418.834 275.712 -419.018 274.827C-423.494 253.591 -299.498 216.716 -319.615 198.85C-327.315 191.998 -368.579 189.567 -416.512 189.161C-430.642 189.051 -445.361 189.106 -459.988 189.29C-461.185 189.29 -462.364 189.327 -463.561 189.346C-466.325 189.382 -469.106 189.419 -471.87 189.475C-474.246 189.511 -476.604 189.548 -478.943 189.604C-480.122 189.622 -481.283 189.64 -482.462 189.677C-486.294 189.751 -490.089 189.843 -493.828 189.917C-497.181 189.99 -500.515 190.082 -503.776 190.156C-504.66 190.174 -505.544 190.211 -506.41 190.23C-507.571 190.248 -508.731 190.285 -509.873 190.322C-510.187 190.322 -510.5 190.322 -510.813 190.34C-512.71 190.396 -514.589 190.451 -516.45 190.506C-517.537 190.543 -518.642 190.58 -519.729 190.598C-521.018 190.653 -522.308 190.672 -523.597 190.727C-525.661 190.782 -527.706 190.856 -529.713 190.911C-531.003 190.948 -532.274 190.985 -533.545 191.04C-533.6 191.04 -533.637 191.04 -533.674 191.04C-534.982 191.095 -536.272 191.132 -537.543 191.169C-537.948 191.169 -538.353 191.188 -538.777 191.206C-539.624 191.224 -540.49 191.261 -541.319 191.298C-542.553 191.335 -543.769 191.372 -544.985 191.427C-552.814 191.703 -559.851 191.98 -565.857 192.219C-579.673 192.79 -588.073 193.195 -588.073 193.195V199.421V169.527C-588.073 169.527 -298.043 156.818 -288.169 205.407C-278.295 253.977 -368.358 259.024 -365.927 270.702C-363.513 282.379 -175.76 299.674 -2.81759 247.807C170.106 195.94 208.718 235.466 289.479 246.573C370.221 257.698 666.828 227.988 721.927 253.001L722 253.02Z" fill="url(#paint2_linear_819_13049)"/>
<path opacity="0.75" d="M142.013 263.481C137.003 263.371 131.973 263.352 126.926 263.389C124.144 263.408 121.363 263.463 118.562 263.518C117.162 263.555 115.762 263.592 114.362 263.647C109.278 263.831 104.194 264.071 99.0539 264.402C95.6275 264.642 92.2011 264.899 88.7562 265.213C87.1535 265.36 85.5509 265.507 83.9482 265.673C83.6903 265.691 83.4324 265.728 83.1745 265.747C80.706 266.005 78.2375 266.281 75.7505 266.594C74.8847 266.705 74.0005 266.797 73.1347 266.926C72.9321 266.944 72.7294 266.981 72.5268 266.999C72.1031 267.054 71.6609 267.11 71.2372 267.165C70.8135 267.22 70.3714 267.275 69.9477 267.331C68.7872 267.497 67.645 267.644 66.4845 267.828C65.3792 267.994 64.2554 268.16 63.1501 268.325C61.1053 268.638 59.0421 268.97 56.9789 269.32C55.542 269.559 54.1051 269.817 52.6682 270.075C51.8208 270.223 50.9919 270.388 50.1445 270.536C49.8129 270.591 49.4628 270.665 49.1312 270.72C48.1549 270.904 47.1786 271.088 46.2207 271.291C45.6496 271.401 45.0969 271.512 44.5075 271.641C43.7706 271.788 43.0337 271.935 42.2968 272.083C38.4099 272.893 34.5045 273.759 30.5623 274.698C28.8859 275.103 27.2279 275.49 25.5516 275.877C24.7963 276.061 24.0226 276.245 23.2673 276.411C21.8304 276.743 20.3935 277.074 18.9566 277.387C18.0356 277.59 17.1145 277.811 16.1934 278.014C13.1538 278.695 10.0958 279.358 7.05621 280.003C5.85881 280.261 4.66142 280.519 3.44559 280.758C3.09558 280.832 2.74555 280.924 2.39554 280.979C1.49288 281.163 0.590217 281.347 -0.312443 281.532C-0.625611 281.605 -0.920358 281.661 -1.23353 281.716C-1.8046 281.845 -2.39406 281.955 -2.98355 282.066C-4.40201 282.361 -5.80208 282.637 -7.20212 282.913C-7.92056 283.06 -8.62058 283.208 -9.3206 283.337C-9.50482 283.374 -9.68907 283.41 -9.87328 283.447C-11.1444 283.705 -12.4154 283.945 -13.6865 284.184C-18.5867 285.123 -23.4684 286.026 -28.3318 286.873C-30.2476 287.223 -32.1819 287.536 -34.0977 287.868C-36.5662 288.291 -39.0163 288.697 -41.4664 289.102C-42.977 289.36 -44.4875 289.599 -45.9981 289.839C-46.606 289.949 -47.2324 290.041 -47.8403 290.133C-49.6824 290.428 -51.5062 290.704 -53.3299 290.981C-55.6511 291.33 -57.9537 291.68 -60.2749 292.012C-62.1723 292.288 -64.0697 292.565 -65.9672 292.822C-70.241 293.412 -74.5148 293.983 -78.7518 294.535C-82.9703 295.07 -87.1705 295.585 -91.3522 296.064C-92.8075 296.23 -94.2812 296.414 -95.7181 296.561C-96.676 296.672 -97.634 296.782 -98.6103 296.875C-104.229 297.501 -109.829 298.053 -115.374 298.588C-113.716 298.366 -60.367 291.22 -10.4259 280.482C40.2889 269.578 98.0776 256.169 142.032 263.444L142.013 263.481Z" fill="white"/>
<path opacity="0.5" d="M722 27.0757V27.2415C703.155 30.6306 684.199 33.4118 665.188 35.7326C636.524 39.2137 607.768 41.6819 578.956 43.4685C521.315 46.9496 463.563 47.8337 405.83 47.539C391.405 47.4654 376.963 47.2996 362.539 47.0786C348.115 46.8391 333.672 46.526 319.248 46.176C290.4 45.4577 261.551 44.5368 232.703 43.4869C175.025 41.3872 117.347 38.7717 59.6869 36.1378L-26.7843 32.1409C-55.6142 30.87 -84.444 29.4886 -113.274 28.6782C-170.952 27.0757 -228.667 27.3704 -286.364 28.5861C-344.06 29.8201 -401.738 32.1225 -459.361 35.1616C-488.173 36.6535 -516.984 38.348 -545.777 40.2268C-559.833 41.1477 -573.907 42.1055 -587.963 43.1185V42.8975C-487.602 34.9774 -387.038 29.5807 -286.382 27.0205C-257.534 26.3021 -228.667 25.8417 -199.8 25.8048C-170.934 25.7496 -142.067 26.0443 -113.2 26.8179C-84.3335 27.6099 -55.5037 28.9544 -26.6738 30.1885L59.8159 34.0749C175.117 39.4163 290.455 44.8683 405.866 45.9366C463.563 46.4155 521.296 45.7156 578.919 42.4554C607.731 40.8162 636.505 38.5322 665.151 35.2168C684.181 33.0066 703.155 30.3543 722.019 27.0573L722 27.0757Z" fill="#63C9E5"/>
<path opacity="0.25" d="M722 60.9847V61.482C717.376 62.3109 712.716 63.1029 708.073 63.8396C693.815 66.0867 679.501 67.947 665.151 69.4942C636.45 72.5701 607.638 74.4489 578.79 75.5724C521.094 77.709 463.342 76.9722 405.664 75.4619C376.815 74.7252 347.985 73.749 319.155 72.6991L232.684 69.5679C175.043 67.505 117.402 65.7183 59.7419 65C30.9304 64.6132 2.08213 64.4474 -26.7293 64.6316C-41.1351 64.7053 -55.5408 64.8895 -69.9649 65.1474C-77.1678 65.2763 -84.3706 65.4236 -91.5919 65.5894L-113.219 66.0499C-170.879 67.2839 -228.538 68.8495 -286.217 70.4151L-459.196 75.4619L-588 79.3851V78.6484L-545.704 76.7881L-459.251 73.1043C-401.61 70.7835 -343.95 68.6101 -286.309 66.6761C-228.649 64.6869 -170.989 63.0108 -113.311 61.5189C-84.4812 60.7821 -55.6144 60.119 -26.7477 59.9532C2.11901 59.7322 30.9673 59.8427 59.834 60.2111C117.549 61.0215 175.227 62.845 232.869 65.0369C290.528 67.2839 348.151 69.8073 405.792 71.7413C434.604 72.6991 463.434 73.399 492.264 73.749C521.094 74.1173 549.923 74.0252 578.735 73.2148C607.546 72.4412 636.339 70.9493 665.04 68.2233C679.391 66.8603 693.704 65.1842 707.981 63.1213C712.66 62.4582 717.339 61.7399 722.018 60.9847H722Z" fill="#235EB1"/>
<path opacity="0.15" d="M721.982 179.51V274.22C721.982 274.22 613.386 244.823 447.37 273.649C377.349 285.805 315.471 279.874 254.974 273.059C195.03 266.318 136.431 258.711 72.5265 266.999C58.8024 268.786 44.8388 271.291 30.5436 274.717C-38.6113 291.275 -107.914 299.582 -170.639 302.529C-213.212 304.537 -252.781 304.077 -287.267 302.05C-365.006 297.483 -416.881 284.976 -419 274.846C-421.653 262.266 -379.227 244.215 -348.371 227.859C-347.561 227.436 -346.75 226.994 -345.958 226.57C-345.479 226.312 -344.982 226.054 -344.503 225.796C-342.237 224.562 -340.026 223.328 -337.945 222.113C-337.355 221.763 -336.784 221.431 -336.213 221.081C-335.679 220.768 -335.144 220.437 -334.61 220.124C-334.242 219.902 -333.855 219.663 -333.487 219.442C-333.044 219.184 -332.621 218.908 -332.197 218.632C-331.773 218.374 -331.35 218.097 -330.944 217.821C-330.742 217.692 -330.539 217.563 -330.336 217.416C-329.931 217.158 -329.544 216.882 -329.157 216.624C-327.997 215.832 -326.892 215.04 -325.86 214.266C-325.178 213.751 -324.534 213.235 -323.926 212.719C-323.613 212.48 -323.318 212.222 -323.041 211.964C-322.047 211.08 -321.162 210.214 -320.407 209.367C-320.297 209.238 -320.186 209.127 -320.094 208.999C-319.689 208.52 -319.32 208.059 -318.989 207.58C-318.897 207.47 -318.823 207.341 -318.749 207.23C-318.528 206.88 -318.326 206.53 -318.16 206.199C-318.104 206.088 -318.049 205.959 -317.994 205.849C-317.939 205.738 -317.902 205.628 -317.847 205.517C-317.791 205.407 -317.754 205.278 -317.718 205.167C-317.681 205.057 -317.644 204.965 -317.607 204.873C-317.533 204.596 -317.46 204.32 -317.423 204.044C-317.404 203.915 -317.386 203.786 -317.368 203.657C-317.368 203.51 -317.349 203.362 -317.349 203.233C-317.349 201.686 -318.049 200.231 -319.56 198.887C-319.928 198.573 -320.352 198.26 -320.868 197.947C-321.034 197.855 -321.199 197.763 -321.365 197.653C-322.968 196.787 -325.16 196.013 -327.868 195.313C-328.107 195.24 -328.365 195.184 -328.623 195.129C-329.194 194.982 -329.802 194.834 -330.41 194.706C-330.889 194.595 -331.386 194.503 -331.884 194.392C-332.75 194.208 -333.652 194.042 -334.573 193.877C-334.887 193.821 -335.218 193.766 -335.55 193.711C-335.863 193.656 -336.195 193.6 -336.526 193.545C-336.858 193.49 -337.189 193.435 -337.521 193.379C-340.542 192.9 -343.876 192.495 -347.469 192.108C-347.855 192.072 -348.261 192.035 -348.684 191.98C-349.09 191.924 -349.495 191.887 -349.919 191.851C-351.982 191.648 -354.137 191.464 -356.348 191.298C-364.14 190.69 -372.835 190.211 -382.175 189.88C-383.888 189.825 -385.62 189.751 -387.388 189.696C-387.499 189.696 -387.609 189.696 -387.72 189.696C-392.288 189.548 -396.986 189.438 -401.776 189.346C-402.955 189.327 -404.152 189.309 -405.349 189.29C-408.997 189.235 -412.7 189.198 -416.458 189.161H-416.697C-423.955 189.106 -431.361 189.088 -438.822 189.106C-440.295 189.106 -441.769 189.106 -443.243 189.125C-444.127 189.125 -445.011 189.125 -445.895 189.125C-449.782 189.143 -453.669 189.18 -457.556 189.235C-458.348 189.235 -459.141 189.254 -459.951 189.254C-461.13 189.254 -462.328 189.272 -463.525 189.309C-466.307 189.346 -469.07 189.382 -471.833 189.438C-474.209 189.475 -476.567 189.511 -478.907 189.567C-480.086 189.585 -481.247 189.604 -482.407 189.64C-486.239 189.714 -490.034 189.806 -493.773 189.88C-497.126 189.953 -500.442 190.046 -503.721 190.119C-504.605 190.138 -505.489 190.174 -506.355 190.193C-507.368 190.211 -508.382 190.248 -509.395 190.267C-509.542 190.267 -509.671 190.267 -509.819 190.267C-510.132 190.267 -510.445 190.267 -510.758 190.285C-512.655 190.34 -514.534 190.396 -516.395 190.451C-517.482 190.488 -518.587 190.524 -519.674 190.543C-520.982 190.598 -522.272 190.617 -523.543 190.672C-525.606 190.727 -527.651 190.801 -529.659 190.856C-530.948 190.893 -532.219 190.93 -533.49 190.985C-533.546 190.985 -533.582 190.985 -533.619 190.985C-534.927 191.04 -536.217 191.077 -537.488 191.114L-538.722 191.151C-539.569 191.169 -540.435 191.206 -541.264 191.243C-542.499 191.298 -543.714 191.335 -544.93 191.372C-546.404 191.427 -547.841 191.482 -549.241 191.537C-549.72 191.556 -550.18 191.574 -550.641 191.593C-550.844 191.593 -551.046 191.593 -551.249 191.611C-551.875 191.63 -552.483 191.666 -553.091 191.685C-554.086 191.722 -555.062 191.759 -556.02 191.795C-556.831 191.832 -557.623 191.869 -558.396 191.887C-558.912 191.906 -559.428 191.924 -559.944 191.943C-560.957 191.98 -561.952 192.016 -562.928 192.053C-563.112 192.053 -563.297 192.053 -563.481 192.072C-563.868 192.09 -564.254 192.108 -564.641 192.127C-565.028 192.127 -565.397 192.164 -565.783 192.182C-579.6 192.808 -588 193.214 -588 193.214V134.108C-575.436 134.163 -562.818 134.586 -551.157 133.518C-513.263 130.037 -475.223 127.514 -437.145 127.735C-394.904 127.993 -352.571 131.658 -311.325 141.107C-220.783 161.846 -136.264 210.085 -43.5299 215.169C38.9438 219.681 118.746 189.585 198.844 169.398C350.067 131.271 509.985 128.066 662.609 160.133C683.001 164.425 703.873 169.638 721.982 179.528V179.51Z" fill="#63C9E5"/>
<path opacity="0.5" d="M-520.521 130.958C-508.363 129.982 -496.205 129.153 -484.01 128.527C-471.833 127.919 -459.638 127.532 -447.443 127.385C-423.053 127.109 -398.625 127.956 -374.309 130.258C-350.011 132.634 -325.842 136.557 -302.114 142.433C-278.387 148.29 -255.139 155.86 -232.094 163.836C-209.03 171.811 -186.15 180.228 -163.031 187.946C-139.93 195.645 -116.535 202.589 -92.6972 207.396C-80.7784 209.809 -68.7675 211.669 -56.6645 212.848L-52.1327 213.29L-47.5826 213.603C-46.072 213.695 -44.5615 213.824 -43.0325 213.898L-38.4823 214.027L-29.382 214.285C-27.8715 214.359 -26.3425 214.285 -24.8319 214.248L-20.2817 214.156L-15.7316 214.064C-14.221 214.027 -12.692 214.027 -11.1814 213.898L-2.08114 213.309L2.46901 213.014L7.00072 212.535L16.0642 211.577C17.5748 211.448 19.0853 211.209 20.5775 211.006L25.0908 210.362C28.0935 209.92 31.1147 209.551 34.1174 209.054L43.1072 207.488L47.602 206.715C49.0942 206.438 50.5863 206.125 52.0785 205.831C75.9714 201.171 99.5695 195.111 123.094 188.683C146.6 182.236 170.051 175.495 193.704 169.435L198.144 168.293L202.602 167.225L211.518 165.107L220.434 162.988L224.892 161.939L229.368 160.999L247.293 157.242L251.769 156.302L256.282 155.492L265.291 153.853L274.299 152.213C275.809 151.956 277.302 151.661 278.812 151.403L283.344 150.703L301.434 147.903C302.944 147.682 304.455 147.425 305.966 147.24L310.516 146.669L319.598 145.527C325.658 144.791 331.701 143.925 337.78 143.391C434.88 132.874 533.418 136.484 629.45 153.687L611.378 150.869L602.333 149.469L593.27 148.29L575.143 145.933L556.961 144.035C553.921 143.741 550.9 143.391 547.86 143.114L538.742 142.415C532.662 141.954 526.583 141.438 520.504 141.033L502.248 140.094C499.209 139.965 496.169 139.744 493.111 139.67L483.974 139.449L474.837 139.21L470.268 139.081C468.739 139.044 467.229 138.989 465.7 139.007H447.425H442.857H440.573L438.288 139.062L429.151 139.302L420.014 139.541L415.445 139.652L413.161 139.707L410.877 139.818C398.719 140.499 386.523 140.923 374.402 142.028L365.283 142.746C362.244 142.986 359.204 143.188 356.183 143.538L338.001 145.435C331.94 145.988 325.916 146.89 319.874 147.664L310.811 148.843L306.279 149.432C304.768 149.635 303.276 149.893 301.765 150.132L283.712 152.95L279.199 153.65C277.688 153.89 276.196 154.184 274.704 154.46L265.714 156.1L256.725 157.739L252.23 158.568L247.753 159.507L229.884 163.283L225.408 164.222L220.968 165.291L212.089 167.409L203.21 169.527L198.77 170.595L194.349 171.737C170.751 177.816 147.337 184.612 123.812 191.096C100.288 197.561 76.6162 203.694 52.6312 208.391C51.139 208.686 49.6284 208.999 48.1363 209.275L43.623 210.049L34.5779 211.596C31.5568 212.093 28.5172 212.461 25.4961 212.903L20.9459 213.53C19.4353 213.732 17.9248 213.972 16.3958 214.101L7.27709 215.04L2.7085 215.519L-1.87847 215.814L-11.034 216.385C-12.563 216.514 -14.0921 216.514 -15.6211 216.532L-20.208 216.624L-24.795 216.716C-26.324 216.716 -27.853 216.827 -29.382 216.735L-38.556 216.458L-43.143 216.311C-44.672 216.237 -46.201 216.108 -47.73 215.998L-52.3169 215.685L-56.8855 215.243C-69.0622 214.045 -81.1653 212.13 -93.1578 209.68C-117.143 204.799 -140.612 197.8 -163.749 190.046C-186.905 182.31 -209.767 173.763 -232.757 165.678C-255.747 157.592 -278.903 149.929 -302.52 143.962C-326.118 137.994 -350.213 133.979 -374.438 131.455C-398.681 128.95 -423.053 127.901 -447.443 127.974C-471.815 128.048 -496.205 129.153 -520.521 130.829V130.958Z" fill="#63C9E5"/>
<path style="mix-blend-mode:multiply" opacity="0.5" d="M722 0V38.8453C717.837 39.4715 713.692 40.0425 709.602 40.5767C645.163 49.0678 580.743 57.5588 516.322 66.0499C452.326 74.4857 388.163 82.94 323.632 83.4373C166.79 84.6345 10.814 38.8821 -145.217 54.796C-236.147 64.0975 -324.386 94.157 -415.684 98.2644C-451.311 99.8485 -487.436 96.4778 -521.922 87.1763C-543.622 81.3191 -566.52 72.0729 -588 59.8612V0H722Z" fill="url(#paint3_linear_819_13049)"/>
<path opacity="0.15" d="M722 108.947V211.503C706.563 207.82 691.254 203.768 676.112 199.458C616.315 182.512 557.09 161.754 495.285 154.994C411.945 145.859 328.274 162.565 245.23 174.021C162.166 185.478 75.1794 191.335 -3.33363 161.902C-25.4396 153.613 -49.922 136.962 -47.7666 113.46C-46.3113 97.6198 -32.2372 85.2792 -16.9841 80.7482C-1.74938 76.2171 14.5722 77.8748 30.3779 79.4957C123.02 89.0366 215.884 96.3305 308.858 101.377C446.412 108.837 584.262 111.36 722 108.947Z" fill="#63C9E5"/>
</g>
<defs>
<linearGradient id="paint0_linear_819_13049" x1="67" y1="339.072" x2="67" y2="0" gradientUnits="userSpaceOnUse">
<stop stop-color="#49ABE8"/>
<stop offset="0.33" stop-color="#44A0E3"/>
<stop offset="0.92" stop-color="#3882D7"/>
<stop offset="1" stop-color="#367ED6"/>
</linearGradient>
<linearGradient id="paint1_linear_819_13049" x1="-588" y1="414" x2="-586.158" y2="74.9277" gradientUnits="userSpaceOnUse">
<stop stop-color="#49ABE8"/>
<stop offset="0.33" stop-color="#44A0E3"/>
<stop offset="0.92" stop-color="#3882D7"/>
<stop offset="1" stop-color="#367ED6"/>
</linearGradient>
<linearGradient id="paint2_linear_819_13049" x1="67.0004" y1="303.837" x2="67.0004" y2="53.6726" gradientUnits="userSpaceOnUse">
<stop stop-color="#87FFC5"/>
<stop offset="0.11" stop-color="#74E2CB"/>
<stop offset="0.25" stop-color="#61C6D2"/>
<stop offset="0.39" stop-color="#52B0D8"/>
<stop offset="0.55" stop-color="#48A1DC"/>
<stop offset="0.74" stop-color="#4197DE"/>
<stop offset="1" stop-color="#4095DF"/>
</linearGradient>
<linearGradient id="paint3_linear_819_13049" x1="67" y1="98.6328" x2="67" y2="0" gradientUnits="userSpaceOnUse">
<stop stop-color="white"/>
<stop offset="0.2" stop-color="#CFDCE8"/>
<stop offset="0.76" stop-color="#4E7EA9"/>
<stop offset="1" stop-color="#1B5991"/>
</linearGradient>
<clipPath id="clip0_819_13049">
<rect width="393" height="414" fill="white"/>
</clipPath>
</defs>
</svg>
