<svg width="36" height="36" viewBox="0 0 36 36" fill="none" xmlns="http://www.w3.org/2000/svg">
<g clip-path="url(#clip0_186_76)">
<rect width="36" height="36" rx="12" fill="#5700A3"/>
<g style="mix-blend-mode:multiply">
<rect x="-18.3467" y="16.8733" width="24.8797" height="52.3931" transform="rotate(-45 -18.3467 16.8733)" fill="black" fill-opacity="0.2"/>
</g>
</g>
<rect x="0.5" y="0.5" width="35" height="35" rx="11.5" stroke="#FF8AEE"/>
<g clip-path="url(#clip1_186_76)">
<g filter="url(#filter0_d_186_76)">
<path d="M17.0691 18.35C17.8391 16.96 19.3191 16.14 20.1791 14.91C21.0891 13.62 20.5791 11.21 17.9991 11.21C16.3091 11.21 15.4791 12.49 15.1291 13.55L12.5391 12.46C13.2491 10.33 15.1791 8.5 17.9891 8.5C20.3391 8.5 21.9491 9.57 22.7691 10.91C23.4691 12.06 23.8791 14.21 22.7991 15.81C21.5991 17.58 20.4491 18.12 19.8291 19.26C19.5791 19.72 19.4791 20.02 19.4791 21.5H16.5891C16.5791 20.72 16.4591 19.45 17.0691 18.35ZM19.9991 25.5C19.9991 26.6 19.0991 27.5 17.9991 27.5C16.8991 27.5 15.9991 26.6 15.9991 25.5C15.9991 24.4 16.8991 23.5 17.9991 23.5C19.0991 23.5 19.9991 24.4 19.9991 25.5Z" fill="white"/>
</g>
</g>
<defs>
<filter id="filter0_d_186_76" x="8.53906" y="6.5" width="18.9229" height="27" filterUnits="userSpaceOnUse" color-interpolation-filters="sRGB">
<feFlood flood-opacity="0" result="BackgroundImageFix"/>
<feColorMatrix in="SourceAlpha" type="matrix" values="0 0 0 0 0 0 0 0 0 0 0 0 0 0 0 0 0 0 127 0" result="hardAlpha"/>
<feOffset dy="2"/>
<feGaussianBlur stdDeviation="2"/>
<feComposite in2="hardAlpha" operator="out"/>
<feColorMatrix type="matrix" values="0 0 0 0 0 0 0 0 0 0 0 0 0 0 0 0 0 0 0.44 0"/>
<feBlend mode="normal" in2="BackgroundImageFix" result="effect1_dropShadow_186_76"/>
<feBlend mode="normal" in="SourceGraphic" in2="effect1_dropShadow_186_76" result="shape"/>
</filter>
<clipPath id="clip0_186_76">
<rect width="36" height="36" rx="12" fill="white"/>
</clipPath>
<clipPath id="clip1_186_76">
<rect width="24" height="24" fill="white" transform="translate(6 6)"/>
</clipPath>
</defs>
</svg>
