<svg width="30" height="30" viewBox="0 0 30 30" fill="none" xmlns="http://www.w3.org/2000/svg">
<g clip-path="url(#clip0_827_882)">
<g filter="url(#filter0_d_827_882)">
<path d="M13.3335 2.51178C14.1246 1.31942 15.8754 1.31942 16.6665 2.51178L19.7899 7.21922C20.0556 7.61976 20.4567 7.91118 20.9198 8.04015L26.362 9.55595C27.7405 9.93989 28.2815 11.605 27.392 12.7259L23.8801 17.1511C23.5813 17.5276 23.4281 17.9991 23.4485 18.4794L23.6887 24.1236C23.7495 25.5533 22.333 26.5824 20.9921 26.0828L15.6983 24.1102C15.2479 23.9424 14.7521 23.9424 14.3017 24.1102L9.00786 26.0828C7.66699 26.5824 6.25052 25.5533 6.31135 24.1236L6.55147 18.4794C6.57191 17.9991 6.41869 17.5276 6.11989 17.1511L2.608 12.7259C1.71847 11.605 2.25952 9.93989 3.63798 9.55595L9.0802 8.04015C9.54325 7.91118 9.94436 7.61976 10.2101 7.21922L13.3335 2.51178Z" fill="white"/>
</g>
</g>
<defs>
<filter id="filter0_d_827_882" x="-1.82663" y="-0.382446" width="33.6533" height="32.5931" filterUnits="userSpaceOnUse" color-interpolation-filters="sRGB">
<feFlood flood-opacity="0" result="BackgroundImageFix"/>
<feColorMatrix in="SourceAlpha" type="matrix" values="0 0 0 0 0 0 0 0 0 0 0 0 0 0 0 0 0 0 127 0" result="hardAlpha"/>
<feOffset dy="2"/>
<feGaussianBlur stdDeviation="2"/>
<feComposite in2="hardAlpha" operator="out"/>
<feColorMatrix type="matrix" values="0 0 0 0 0 0 0 0 0 0 0 0 0 0 0 0 0 0 0.25 0"/>
<feBlend mode="normal" in2="BackgroundImageFix" result="effect1_dropShadow_827_882"/>
<feBlend mode="normal" in="SourceGraphic" in2="effect1_dropShadow_827_882" result="shape"/>
</filter>
<clipPath id="clip0_827_882">
<rect width="30" height="30" fill="white"/>
</clipPath>
</defs>
</svg>
