<svg width="25" height="27" viewBox="0 0 25 27" fill="none" xmlns="http://www.w3.org/2000/svg">
<g filter="url(#filter0_d_783_2350)">
<path d="M8.88889 16.0001H5C4.44772 16.0001 4 15.5524 4 15.0001V9.00007C4 8.44778 4.44772 8.00007 5 8.00007H8.88889L14.1834 3.66821C14.3971 3.49335 14.7121 3.52485 14.887 3.73857C14.9601 3.8279 15 3.93977 15 4.05519V19.9449C15 20.2211 14.7761 20.4449 14.5 20.4449C14.3846 20.4449 14.2727 20.405 14.1834 20.3319L8.88889 16.0001ZM18.8631 16.5911L17.4411 15.1691C18.3892 14.4376 19 13.2902 19 12.0001C19 10.5697 18.2493 9.31476 17.1203 8.60766L18.5589 7.16906C20.0396 8.26166 21 10.0187 21 12.0001C21 13.8422 20.1698 15.4905 18.8631 16.5911Z" fill="white"/>
</g>
<defs>
<filter id="filter0_d_783_2350" x="-4" y="-2" width="32" height="32" filterUnits="userSpaceOnUse" color-interpolation-filters="sRGB">
<feFlood flood-opacity="0" result="BackgroundImageFix"/>
<feColorMatrix in="SourceAlpha" type="matrix" values="0 0 0 0 0 0 0 0 0 0 0 0 0 0 0 0 0 0 127 0" result="hardAlpha"/>
<feOffset dy="2"/>
<feGaussianBlur stdDeviation="2"/>
<feColorMatrix type="matrix" values="0 0 0 0 0 0 0 0 0 0 0 0 0 0 0 0 0 0 0.44 0"/>
<feBlend mode="normal" in2="BackgroundImageFix" result="effect1_dropShadow_783_2350"/>
<feBlend mode="normal" in="SourceGraphic" in2="effect1_dropShadow_783_2350" result="shape"/>
</filter>
</defs>
</svg>
