<svg width="31" height="27" viewBox="0 0 31 27" fill="none" xmlns="http://www.w3.org/2000/svg">
<g filter="url(#filter0_d_783_2523)">
<path d="M8.88889 16.0001H5C4.44772 16.0001 4 15.5524 4 15.0001V9.00007C4 8.44778 4.44772 8.00007 5 8.00007H8.88889L14.1834 3.66821C14.3971 3.49335 14.7121 3.52485 14.887 3.73857C14.9601 3.8279 15 3.93977 15 4.05519V19.9449C15 20.2211 14.7761 20.4449 14.5 20.4449C14.3846 20.4449 14.2727 20.405 14.1834 20.3319L8.88889 16.0001ZM23.4142 12.0001L26.9497 15.5356L25.5355 16.9498L22 13.4143L18.4645 16.9498L17.0503 15.5356L20.5858 12.0001L17.0503 8.46454L18.4645 7.05032L22 10.5859L25.5355 7.05032L26.9497 8.46454L23.4142 12.0001Z" fill="white"/>
</g>
<defs>
<filter id="filter0_d_783_2523" x="-1" y="-2" width="32" height="32" filterUnits="userSpaceOnUse" color-interpolation-filters="sRGB">
<feFlood flood-opacity="0" result="BackgroundImageFix"/>
<feColorMatrix in="SourceAlpha" type="matrix" values="0 0 0 0 0 0 0 0 0 0 0 0 0 0 0 0 0 0 127 0" result="hardAlpha"/>
<feOffset dy="2"/>
<feGaussianBlur stdDeviation="2"/>
<feColorMatrix type="matrix" values="0 0 0 0 0 0 0 0 0 0 0 0 0 0 0 0 0 0 0.44 0"/>
<feBlend mode="normal" in2="BackgroundImageFix" result="effect1_dropShadow_783_2523"/>
<feBlend mode="normal" in="SourceGraphic" in2="effect1_dropShadow_783_2523" result="shape"/>
</filter>
</defs>
</svg>
