<svg width="30" height="30" viewBox="0 0 30 30" fill="none" xmlns="http://www.w3.org/2000/svg">
<g clip-path="url(#clip0_827_876)">
<g filter="url(#filter0_d_827_876)">
<path d="M11.25 7.5C11.25 5.42894 12.9289 3.75 15 3.75C17.0711 3.75 18.75 5.42894 18.75 7.5H11.25ZM8.75 7.5H5C4.30965 7.5 3.75 8.05965 3.75 8.75V26.25C3.75 26.9404 4.30965 27.5 5 27.5H25C25.6904 27.5 26.25 26.9404 26.25 26.25V8.75C26.25 8.05965 25.6904 7.5 25 7.5H21.25C21.25 4.04822 18.4517 1.25 15 1.25C11.5482 1.25 8.75 4.04822 8.75 7.5ZM11.25 12.5C11.25 14.5711 12.9289 16.25 15 16.25C17.0711 16.25 18.75 14.5711 18.75 12.5H21.25C21.25 15.9517 18.4517 18.75 15 18.75C11.5482 18.75 8.75 15.9517 8.75 12.5H11.25Z" fill="white"/>
</g>
</g>
<defs>
<filter id="filter0_d_827_876" x="-0.25" y="-0.75" width="30.5" height="34.25" filterUnits="userSpaceOnUse" color-interpolation-filters="sRGB">
<feFlood flood-opacity="0" result="BackgroundImageFix"/>
<feColorMatrix in="SourceAlpha" type="matrix" values="0 0 0 0 0 0 0 0 0 0 0 0 0 0 0 0 0 0 127 0" result="hardAlpha"/>
<feOffset dy="2"/>
<feGaussianBlur stdDeviation="2"/>
<feComposite in2="hardAlpha" operator="out"/>
<feColorMatrix type="matrix" values="0 0 0 0 0 0 0 0 0 0 0 0 0 0 0 0 0 0 0.25 0"/>
<feBlend mode="normal" in2="BackgroundImageFix" result="effect1_dropShadow_827_876"/>
<feBlend mode="normal" in="SourceGraphic" in2="effect1_dropShadow_827_876" result="shape"/>
</filter>
<clipPath id="clip0_827_876">
<rect width="30" height="30" fill="white"/>
</clipPath>
</defs>
</svg>
