<svg width="205" height="69" viewBox="0 0 205 69" fill="none" xmlns="http://www.w3.org/2000/svg">
<path d="M76.6147 67.7581H0.536804C0.240837 67.7581 0 67.5198 0 67.2234C0 66.927 0.240837 66.6858 0.536804 66.6858H76.3942L87.5394 55.5216C87.6409 55.4228 87.7744 55.3647 87.9195 55.3647H198.341C200.305 55.3647 201.991 54.2372 202.746 52.4182C203.497 50.6021 203.1 48.6058 201.713 47.2168L175.264 20.7302C172.746 18.205 169.397 16.8189 165.837 16.8189H108.376C108.234 16.8189 108.097 16.7637 107.996 16.6591L92.9683 1.60985H0.803758C0.507791 1.60985 0.266954 1.37157 0.266954 1.07517C0.266954 0.778781 0.507791 0.537598 0.803758 0.537598H93.1917C93.3339 0.537598 93.4703 0.592809 93.5719 0.694512L108.599 15.7438H165.837C169.687 15.7438 173.303 17.2432 176.025 19.9689L202.476 46.4555C204.179 48.1612 204.661 50.6021 203.741 52.8279C202.821 55.0509 200.752 56.437 198.347 56.437H88.1458L77.0006 67.5982C76.8991 67.697 76.7656 67.7552 76.6205 67.7552L76.6147 67.7581Z" fill="white"/>
<path d="M82.4355 2.1474H10.0746C9.48264 2.1474 9.00098 1.66504 9.00098 1.07515C9.00098 0.485272 9.47974 0 10.0746 0H82.4355C83.0274 0 83.5091 0.482366 83.5091 1.07515C83.5091 1.66794 83.0274 2.1474 82.4355 2.1474Z" fill="white"/>
<path d="M180.955 56.9511H97.6083C97.0163 56.9511 96.5347 56.4717 96.5347 55.876C96.5347 55.2803 97.0134 54.8037 97.6083 54.8037H180.955C181.547 54.8037 182.028 55.2832 182.028 55.876C182.028 56.4687 181.547 56.9511 180.955 56.9511Z" fill="white"/>
<path d="M59.9013 68.2958H14.7577C14.1658 68.2958 13.6841 67.8164 13.6841 67.2236C13.6841 66.6308 14.1658 66.1484 14.7577 66.1484H59.9013C60.4932 66.1484 60.9749 66.6279 60.9749 67.2236C60.9749 67.8193 60.4932 68.2958 59.9013 68.2958Z" fill="white"/>
<path style="mix-blend-mode:screen" d="M75.9476 48.2979H10.481V51.3083H75.9476V48.2979Z" fill="url(#paint0_linear_825_40951)"/>
<path style="mix-blend-mode:screen" d="M49.6443 53.4873H10.481V56.4977H49.6443V53.4873Z" fill="url(#paint1_linear_825_40951)"/>
<path style="mix-blend-mode:screen" d="M58.2186 58.6743H10.481V61.6847H58.2186V58.6743Z" fill="url(#paint2_linear_825_40951)"/>
<g style="mix-blend-mode:screen">
<path d="M11.5513 22.8633H7.11182V25.2432H11.5513V22.8633Z" fill="url(#paint3_linear_825_40951)"/>
<path d="M17.6275 22.8633H13.188V25.2432H17.6275V22.8633Z" fill="url(#paint4_linear_825_40951)"/>
<path d="M23.7032 22.8633H19.2637V25.2432H23.7032V22.8633Z" fill="url(#paint5_linear_825_40951)"/>
<path d="M29.7793 22.8633H25.3398V25.2432H29.7793V22.8633Z" fill="url(#paint6_linear_825_40951)"/>
<path d="M35.8555 22.8633H31.416V25.2432H35.8555V22.8633Z" fill="url(#paint7_linear_825_40951)"/>
<path d="M41.9283 22.8633H37.4888V25.2432H41.9283V22.8633Z" fill="url(#paint8_linear_825_40951)"/>
<path d="M48.0044 22.8633H43.5649V25.2432H48.0044V22.8633Z" fill="url(#paint9_linear_825_40951)"/>
<path d="M54.0806 22.8633H49.6411V25.2432H54.0806V22.8633Z" fill="url(#paint10_linear_825_40951)"/>
<path d="M60.1568 22.8633H55.7173V25.2432H60.1568V22.8633Z" fill="url(#paint11_linear_825_40951)"/>
<path d="M66.2325 22.8633H61.793V25.2432H66.2325V22.8633Z" fill="url(#paint12_linear_825_40951)"/>
<path d="M72.3057 22.8633H67.8662V25.2432H72.3057V22.8633Z" fill="url(#paint13_linear_825_40951)"/>
<path d="M78.3819 22.8633H73.9424V25.2432H78.3819V22.8633Z" fill="url(#paint14_linear_825_40951)"/>
<path d="M84.4576 22.8633H80.0181V25.2432H84.4576V22.8633Z" fill="url(#paint15_linear_825_40951)"/>
<path d="M90.5337 22.8633H86.0942V25.2432H90.5337V22.8633Z" fill="url(#paint16_linear_825_40951)"/>
<path d="M96.6099 22.8633H92.1704V25.2432H96.6099V22.8633Z" fill="url(#paint17_linear_825_40951)"/>
<path style="mix-blend-mode:screen" d="M102.683 22.8633H98.2437V25.2432H102.683V22.8633Z" fill="url(#paint18_linear_825_40951)"/>
<path style="mix-blend-mode:screen" d="M108.759 22.8633H104.319V25.2432H108.759V22.8633Z" fill="url(#paint19_linear_825_40951)"/>
<path style="mix-blend-mode:screen" d="M114.835 22.8633H110.396V25.2432H114.835V22.8633Z" fill="url(#paint20_linear_825_40951)"/>
<path style="mix-blend-mode:screen" d="M120.911 22.8633H116.472V25.2432H120.911V22.8633Z" fill="url(#paint21_linear_825_40951)"/>
<path style="mix-blend-mode:screen" d="M126.987 22.8633H122.547V25.2432H126.987V22.8633Z" fill="url(#paint22_linear_825_40951)"/>
</g>
<defs>
<linearGradient id="paint0_linear_825_40951" x1="10.481" y1="49.8031" x2="75.9476" y2="49.8031" gradientUnits="userSpaceOnUse">
<stop/>
<stop offset="1" stop-color="#F75CFF"/>
</linearGradient>
<linearGradient id="paint1_linear_825_40951" x1="-87.806" y1="54.9925" x2="49.6414" y2="54.9925" gradientUnits="userSpaceOnUse">
<stop/>
<stop offset="1" stop-color="#F75CFF"/>
</linearGradient>
<linearGradient id="paint2_linear_825_40951" x1="-87.806" y1="60.1795" x2="58.2157" y2="60.1795" gradientUnits="userSpaceOnUse">
<stop/>
<stop offset="1" stop-color="#F75CFF"/>
</linearGradient>
<linearGradient id="paint3_linear_825_40951" x1="5.91924" y1="24.0547" x2="126.601" y2="24.0547" gradientUnits="userSpaceOnUse">
<stop/>
<stop offset="1" stop-color="#F75CFF"/>
</linearGradient>
<linearGradient id="paint4_linear_825_40951" x1="5.91939" y1="24.0547" x2="126.604" y2="24.0547" gradientUnits="userSpaceOnUse">
<stop/>
<stop offset="1" stop-color="#F75CFF"/>
</linearGradient>
<linearGradient id="paint5_linear_825_40951" x1="5.91908" y1="24.0547" x2="126.604" y2="24.0547" gradientUnits="userSpaceOnUse">
<stop/>
<stop offset="1" stop-color="#F75CFF"/>
</linearGradient>
<linearGradient id="paint6_linear_825_40951" x1="5.9192" y1="24.0547" x2="126.604" y2="24.0547" gradientUnits="userSpaceOnUse">
<stop/>
<stop offset="1" stop-color="#F75CFF"/>
</linearGradient>
<linearGradient id="paint7_linear_825_40951" x1="5.91941" y1="24.0547" x2="126.604" y2="24.0547" gradientUnits="userSpaceOnUse">
<stop/>
<stop offset="1" stop-color="#F75CFF"/>
</linearGradient>
<linearGradient id="paint8_linear_825_40951" x1="5.91897" y1="24.0547" x2="126.601" y2="24.0547" gradientUnits="userSpaceOnUse">
<stop/>
<stop offset="1" stop-color="#F75CFF"/>
</linearGradient>
<linearGradient id="paint9_linear_825_40951" x1="5.91632" y1="24.0547" x2="126.604" y2="24.0547" gradientUnits="userSpaceOnUse">
<stop/>
<stop offset="1" stop-color="#F75CFF"/>
</linearGradient>
<linearGradient id="paint10_linear_825_40951" x1="5.91636" y1="24.0547" x2="126.604" y2="24.0547" gradientUnits="userSpaceOnUse">
<stop/>
<stop offset="1" stop-color="#AB29FF"/>
</linearGradient>
<linearGradient id="paint11_linear_825_40951" x1="5.91651" y1="24.0547" x2="126.604" y2="24.0547" gradientUnits="userSpaceOnUse">
<stop/>
<stop offset="1" stop-color="#F75CFF"/>
</linearGradient>
<linearGradient id="paint12_linear_825_40951" x1="5.91922" y1="24.0547" x2="126.601" y2="24.0547" gradientUnits="userSpaceOnUse">
<stop/>
<stop offset="1" stop-color="#F75CFF"/>
</linearGradient>
<linearGradient id="paint13_linear_825_40951" x1="5.91645" y1="24.0547" x2="126.604" y2="24.0547" gradientUnits="userSpaceOnUse">
<stop/>
<stop offset="1" stop-color="#F75CFF"/>
</linearGradient>
<linearGradient id="paint14_linear_825_40951" x1="5.91661" y1="24.0547" x2="126.604" y2="24.0547" gradientUnits="userSpaceOnUse">
<stop/>
<stop offset="1" stop-color="#F75CFF"/>
</linearGradient>
<linearGradient id="paint15_linear_825_40951" x1="5.9161" y1="24.0547" x2="126.604" y2="24.0547" gradientUnits="userSpaceOnUse">
<stop/>
<stop offset="1" stop-color="#F75CFF"/>
</linearGradient>
<linearGradient id="paint16_linear_825_40951" x1="5.91644" y1="24.0547" x2="126.604" y2="24.0547" gradientUnits="userSpaceOnUse">
<stop/>
<stop offset="1" stop-color="#F75CFF"/>
</linearGradient>
<linearGradient id="paint17_linear_825_40951" x1="5.91951" y1="24.0547" x2="126.601" y2="24.0547" gradientUnits="userSpaceOnUse">
<stop/>
<stop offset="1" stop-color="#F75CFF"/>
</linearGradient>
<linearGradient id="paint18_linear_825_40951" x1="5.91675" y1="24.0547" x2="126.604" y2="24.0547" gradientUnits="userSpaceOnUse">
<stop/>
<stop offset="1" stop-color="#F75CFF"/>
</linearGradient>
<linearGradient id="paint19_linear_825_40951" x1="5.91641" y1="24.0547" x2="126.604" y2="24.0547" gradientUnits="userSpaceOnUse">
<stop/>
<stop offset="1" stop-color="#F75CFF"/>
</linearGradient>
<linearGradient id="paint20_linear_825_40951" x1="5.91685" y1="24.0547" x2="126.601" y2="24.0547" gradientUnits="userSpaceOnUse">
<stop/>
<stop offset="1" stop-color="#F75CFF"/>
</linearGradient>
<linearGradient id="paint21_linear_825_40951" x1="5.91645" y1="24.0547" x2="126.601" y2="24.0547" gradientUnits="userSpaceOnUse">
<stop/>
<stop offset="1" stop-color="#F75CFF"/>
</linearGradient>
<linearGradient id="paint22_linear_825_40951" x1="5.91902" y1="24.0547" x2="126.601" y2="24.0547" gradientUnits="userSpaceOnUse">
<stop/>
<stop offset="1" stop-color="#F75CFF"/>
</linearGradient>
</defs>
</svg>
