<svg width="24" height="20" viewBox="0 0 24 20" fill="none" xmlns="http://www.w3.org/2000/svg">
<g clip-path="url(#clip0_340_553)">
<path fill-rule="evenodd" clip-rule="evenodd" d="M1.64986 8.61001C8.0923 5.78755 12.3883 3.92681 14.5378 3.0278C20.675 0.460919 21.9503 0.0150234 22.7815 0.000142735C22.9643 -0.00293857 23.3731 0.042622 23.6378 0.258665C23.8614 0.441087 23.9229 0.687511 23.9524 0.860468C23.9818 1.03342 24.0184 1.42743 23.9893 1.73528C23.6567 5.24914 22.2177 13.7763 21.4855 17.7119C21.1758 19.3772 20.5658 19.9356 19.9753 19.9902C18.6919 20.109 17.7174 19.1374 16.4744 18.3181C14.5293 17.036 13.4305 16.2379 11.5425 14.9868C9.36062 13.541 10.7751 12.7463 12.0185 11.4476C12.344 11.1078 17.9985 5.93599 18.1079 5.46683C18.1216 5.40815 18.1343 5.18943 18.0051 5.07394C17.8758 4.95845 17.6851 4.99794 17.5475 5.02935C17.3524 5.07387 14.2452 7.13904 8.22582 11.2249C7.34384 11.8339 6.545 12.1306 5.82924 12.115C5.04018 12.0979 3.52233 11.6664 2.39397 11.2976C1.00999 10.8452 -0.0899677 10.606 0.00581427 9.83776C0.0557033 9.43759 0.603706 9.02834 1.64986 8.61001Z" fill="white"/>
</g>
<defs>
<clipPath id="clip0_340_553">
<rect width="24" height="20" fill="white"/>
</clipPath>
</defs>
</svg>
