<svg width="14" height="14" viewBox="0 0 14 14" fill="none" xmlns="http://www.w3.org/2000/svg">
<path d="M7 0C10.8656 0 14 3.13439 14 7C14 10.8656 10.8656 14 7 14C3.13439 14 0 10.8656 0 7C0 3.13439 3.13216 0 7 0Z" fill="white"/>
<path d="M7 1C10.3134 1 13 3.68662 13 7C13 10.3134 10.3134 13 7 13C3.68662 13 1 10.3134 1 7C1 3.68662 3.68471 1 7 1Z" fill="#53AE94"/>
<path d="M7.73952 6.20111V5.30875H9.78028V3.94824H4.22168V5.30875H6.26245V6.20111C4.60385 6.27754 3.35608 6.6062 3.35608 6.99984C3.35608 7.39347 4.60385 7.72213 6.26245 7.79856V10.6572H7.73952V7.79665C9.39621 7.72022 10.6402 7.39155 10.6402 6.99792C10.6402 6.60429 9.3943 6.27563 7.73952 6.1992M7.73952 7.55589C7.69748 7.55589 7.48347 7.57117 7.00768 7.57117C6.62742 7.57117 6.35799 7.55971 6.26436 7.55589C4.79875 7.49283 3.70385 7.23678 3.70385 6.93105C3.70385 6.62531 4.79875 6.37117 6.26436 6.3062V7.30366C6.3599 7.30939 6.63506 7.32659 7.01341 7.32659C7.46818 7.32659 7.69748 7.30748 7.73952 7.30366V6.3062C9.20321 6.37117 10.2943 6.62722 10.2943 6.93105C10.2943 7.23487 9.2013 7.49092 7.73952 7.55589Z" fill="white"/>
</svg>
