<svg width="40" height="40" viewBox="0 0 40 40" fill="none" xmlns="http://www.w3.org/2000/svg">
<g clip-path="url(#clip0_195_92)">
<rect width="40" height="40" rx="20" fill="#5700A3"/>
<g style="mix-blend-mode:multiply">
<rect x="-18.3467" y="16.8733" width="24.8797" height="52.3931" transform="rotate(-45 -18.3467 16.8733)" fill="black" fill-opacity="0.2"/>
</g>
</g>
<rect x="0.5" y="0.5" width="39" height="39" rx="19.5" stroke="#FF8AEE"/>
<g clip-path="url(#clip1_195_92)">
<rect width="40" height="40" rx="20" fill="#5700A3"/>
<g style="mix-blend-mode:multiply">
<rect x="-18.3467" y="16.8733" width="24.8797" height="52.3931" transform="rotate(-45 -18.3467 16.8733)" fill="black" fill-opacity="0.2"/>
</g>
</g>
<rect x="0.5" y="0.5" width="39" height="39" rx="19.5" stroke="#FF8AEE"/>
<g filter="url(#filter0_d_195_92)">
<path d="M29 15.28V13C29 11.9 28.1 11 27 11H13C11.89 11 11 11.9 11 13V27C11 28.1 11.89 29 13 29H27C28.1 29 29 28.1 29 27V24.72C29.59 24.37 30 23.74 30 23V17C30 16.26 29.59 15.63 29 15.28ZM28 17V23H21V17H28ZM13 27V13H27V15H21C19.9 15 19 15.9 19 17V23C19 24.1 19.9 25 21 25H27V27H13Z" fill="white"/>
<path d="M24 21.5C24.8284 21.5 25.5 20.8284 25.5 20C25.5 19.1716 24.8284 18.5 24 18.5C23.1716 18.5 22.5 19.1716 22.5 20C22.5 20.8284 23.1716 21.5 24 21.5Z" fill="white"/>
</g>
<defs>
<filter id="filter0_d_195_92" x="7" y="11" width="27" height="26" filterUnits="userSpaceOnUse" color-interpolation-filters="sRGB">
<feFlood flood-opacity="0" result="BackgroundImageFix"/>
<feColorMatrix in="SourceAlpha" type="matrix" values="0 0 0 0 0 0 0 0 0 0 0 0 0 0 0 0 0 0 127 0" result="hardAlpha"/>
<feOffset dy="4"/>
<feGaussianBlur stdDeviation="2"/>
<feComposite in2="hardAlpha" operator="out"/>
<feColorMatrix type="matrix" values="0 0 0 0 0 0 0 0 0 0 0 0 0 0 0 0 0 0 0.25 0"/>
<feBlend mode="normal" in2="BackgroundImageFix" result="effect1_dropShadow_195_92"/>
<feBlend mode="normal" in="SourceGraphic" in2="effect1_dropShadow_195_92" result="shape"/>
</filter>
<clipPath id="clip0_195_92">
<rect width="40" height="40" rx="20" fill="white"/>
</clipPath>
<clipPath id="clip1_195_92">
<rect width="40" height="40" rx="20" fill="white"/>
</clipPath>
</defs>
</svg>
