<svg width="731" height="444" viewBox="0 0 731 444" fill="none" xmlns="http://www.w3.org/2000/svg">
<g opacity="0.01">
<path d="M97.2298 226.21C150.911 209.137 204.282 191.475 257.486 173.496C284.124 164.579 310.672 155.486 337.208 146.372L377.017 132.715L416.732 118.878C469.747 100.542 522.486 81.6987 575.308 63.0015C588.513 58.3261 601.649 53.5262 614.739 48.6273C627.755 43.5953 640.84 38.6922 653.74 33.4496C679.618 23.0933 705.217 12.2171 730.106 0.00439453C706.042 13.777 682.691 28.8859 659.615 44.5149C648.042 52.2671 636.65 60.3544 625.19 68.3172C613.798 76.4131 602.462 84.6036 591.19 92.923C546.108 126.196 500.944 159.319 456.051 192.954L422.335 218.092L388.718 243.416C366.304 260.291 343.894 277.179 321.583 294.247C276.879 328.238 232.347 362.547 188.124 397.441C145.41 431.148 83.4529 423.847 49.7456 381.128C16.0382 338.414 23.3392 276.457 66.0578 242.75C75.5503 235.26 86.3578 229.703 97.2298 226.201V226.21Z" fill="#008CFF"/>
</g>
<g opacity="0.01">
<path d="M98.7937 229.162C125.578 220.52 152.191 211.552 178.816 202.605L218.763 189.202L258.59 175.576C285.155 166.517 311.63 157.291 338.093 148.043L377.795 134.185L417.406 120.15C470.279 101.552 522.89 82.4593 575.578 63.5129C588.749 58.7731 601.855 53.9172 614.915 48.9625C627.905 43.8832 640.96 38.9242 653.839 33.6387C679.665 23.1921 705.229 12.2429 730.102 0.00439453C706.024 13.7512 682.635 28.7871 659.507 44.3258C647.913 52.035 636.491 60.0665 625 67.9777C613.583 76.0178 602.212 84.1524 590.906 92.4073C545.691 125.431 500.394 158.305 455.363 191.677L421.544 216.623L387.82 241.744C365.333 258.486 342.854 275.241 320.47 292.168L286.866 317.517L253.382 343.094C231.053 360.132 208.712 377.149 186.547 394.493C145.204 426.846 85.4595 419.554 53.1058 378.211C20.7521 336.867 28.0444 277.123 69.3879 244.769C78.3562 237.752 88.5535 232.509 98.7851 229.162H98.7937Z" fill="#008CFF"/>
</g>
<g opacity="0.01">
<path d="M100.362 232.114C127.065 223.318 153.6 214.203 180.149 205.115L219.979 191.497L259.694 177.66C286.187 168.464 312.589 159.1 338.982 149.719L378.581 135.663L418.09 121.435C470.825 102.575 523.302 83.2329 575.857 64.0373C588.994 59.2373 602.07 54.3213 615.099 49.3107C628.064 44.1798 641.089 39.165 653.946 33.8364C679.725 23.2997 705.246 12.2773 730.11 0.00878906C706.02 13.7255 682.587 28.6884 659.417 44.1369C647.797 51.7988 636.345 59.7787 624.833 67.6383C613.385 75.6226 601.984 83.7013 590.648 91.8918C545.3 124.662 499.874 157.295 454.702 190.401L420.78 215.149L386.948 240.068C364.392 256.673 341.84 273.299 319.378 290.083L285.662 315.222L252.062 340.58C229.657 357.477 207.242 374.348 184.992 391.536C144.976 422.455 87.4706 415.077 56.5521 375.061C25.6337 335.045 33.012 277.54 73.0277 246.622C81.39 240.163 90.8783 235.277 100.367 232.11L100.362 232.114Z" fill="#008CFF"/>
</g>
<g opacity="0.01">
<path d="M101.931 235.066C128.552 226.115 155.01 216.859 181.481 207.624L221.195 193.787L260.799 179.74C287.214 170.402 313.547 160.905 339.872 151.391L379.363 137.133L418.764 122.711C471.358 103.584 523.706 84.002 576.128 64.5485C589.235 59.6884 602.221 54.6005 615.271 49.6372C628.215 44.4719 641.205 39.3883 654.041 34.0211C679.773 23.3941 705.255 12.2987 730.102 0.00439453C705.994 13.6953 682.527 28.5852 659.305 43.9434C647.664 51.5666 636.177 59.4778 624.648 67.3073C613.222 75.3388 601.735 83.2457 590.365 91.376C544.883 123.897 499.328 156.281 454.014 189.125L419.989 213.679L386.049 238.397C363.42 254.868 340.8 271.356 318.265 288.004L284.442 312.936L250.726 338.075C228.243 354.825 205.751 371.554 183.419 388.588C144.74 418.093 89.4688 410.655 59.9641 371.975C30.4594 333.296 37.8979 278.025 76.5771 248.521C84.3508 242.591 93.1558 238.057 101.926 235.066H101.931Z" fill="#008CFF"/>
</g>
<g opacity="0.02">
<path d="M103.499 238.018C130.039 228.913 156.42 219.51 182.813 210.134L222.412 196.078L261.903 181.824C288.245 172.344 314.505 162.714 340.757 153.067C367.039 143.476 393.256 133.764 419.439 123.988C471.891 104.599 524.11 84.767 576.399 65.0643C589.471 60.1397 602.431 55.0002 615.452 49.9768C628.369 44.76 641.33 39.6248 654.144 34.2146C679.829 23.4974 705.272 12.3289 730.106 0.00878906C705.986 13.6739 682.48 28.4907 659.211 43.7544C647.548 51.3347 636.031 59.1943 624.472 66.9679C613.016 74.9393 601.499 82.7903 590.094 90.8605C544.479 123.128 498.791 155.267 453.34 187.849C430.573 204.062 407.837 220.331 385.164 236.725C362.462 253.063 339.773 269.418 317.161 285.924L283.226 310.646L249.398 335.57C226.842 352.174 204.269 368.761 181.859 385.636C144.533 413.744 91.4843 406.272 63.372 368.946C35.2639 331.616 42.7325 278.571 80.0623 250.459C87.2645 245.036 95.4163 240.833 103.499 238.018Z" fill="#008CFF"/>
</g>
<g opacity="0.02">
<path d="M105.063 240.971C131.521 231.71 157.825 222.166 184.145 212.639L223.628 198.368L263.008 183.904C289.272 174.282 315.464 164.519 341.642 154.738C367.851 145.01 393.999 135.165 420.114 125.264C472.428 105.608 524.514 85.5318 576.67 65.5798C589.707 60.5908 602.638 55.3997 615.628 50.3161C628.52 45.0478 641.45 39.8567 654.239 34.4036C679.872 23.5918 705.281 12.3546 730.097 0.00439453C705.964 13.6437 682.415 28.3875 659.099 43.5609C647.415 51.0982 635.868 58.902 624.283 66.6241C612.796 74.5352 601.25 82.3347 589.811 90.3404C544.058 122.359 498.246 154.249 452.652 186.568C429.817 202.652 407.011 218.793 384.271 235.049C361.5 251.254 338.737 267.471 316.048 283.84L282.001 308.351L248.058 333.056C225.424 349.518 202.778 365.959 180.282 382.68C144.314 409.417 93.4825 401.936 66.7452 365.968C40.008 330 47.4894 279.169 83.4571 252.431C90.1092 247.485 97.6336 243.605 105.055 240.966L105.063 240.971Z" fill="#008CFF"/>
</g>
<g opacity="0.02">
<path d="M106.632 243.923C133.004 234.503 159.238 224.817 185.477 215.149C211.737 205.514 237.972 195.837 264.116 185.983L342.536 156.41C368.672 146.548 394.751 136.57 420.801 126.54C472.974 106.623 524.931 86.301 576.953 66.0955C589.961 61.0463 602.861 55.7951 615.817 50.6556C628.679 45.3357 641.583 40.0931 654.35 34.5927C679.936 23.6906 705.302 12.3761 730.11 0.00439453C705.96 13.6137 682.377 28.2843 659.013 43.3719C647.303 50.8662 635.731 58.6141 624.119 66.2889C612.603 74.1399 601.026 81.8878 589.557 89.829C543.671 121.594 497.725 153.243 451.995 185.292C429.09 201.247 406.216 217.254 383.402 233.377L314.965 281.755C292.155 297.887 269.44 314.195 246.747 330.546C224.036 346.862 201.312 363.162 178.735 379.728C144.142 405.111 95.5194 397.647 70.1314 363.05C44.7478 328.457 52.212 279.835 86.8089 254.447C92.9324 249.952 99.8509 246.385 106.645 243.918L106.632 243.923Z" fill="#008CFF"/>
</g>
<g opacity="0.02">
<path d="M108.201 246.875C134.491 237.301 160.648 227.469 186.81 217.658C212.993 207.878 239.15 198.059 265.221 188.068L343.421 158.086C369.484 148.086 395.495 137.979 421.476 127.821C473.511 107.641 525.335 87.0702 577.224 66.6155C590.198 61.5018 603.068 56.199 615.994 50.9994C628.829 45.6279 641.704 40.3294 654.449 34.786C679.988 23.7938 705.315 12.4061 730.106 0.00439453C705.943 13.5879 682.321 28.1855 658.906 43.1785C647.174 50.6298 635.572 58.3219 623.931 65.9451C612.38 73.7403 600.777 81.428 589.274 89.3091C543.255 120.825 497.18 152.225 451.307 184.011C428.334 199.838 405.392 215.716 382.505 231.701L313.848 279.671C290.965 295.67 268.173 311.832 245.402 328.036C222.614 344.207 199.817 360.36 177.154 376.775C143.941 400.827 97.5221 393.406 73.4663 360.192C49.4148 326.984 56.8361 280.561 90.0493 256.505C95.6614 252.44 102 249.165 108.201 246.871V246.875Z" fill="#008CFF"/>
</g>
<g opacity="0.02">
<path d="M109.765 249.827C135.973 240.098 162.053 230.124 188.137 220.168L227.276 205.244L266.286 190.083L344.276 159.698L383.265 144.494L422.15 129.097C474.044 108.651 525.739 87.8352 577.495 67.1312L616.174 51.339C628.984 45.9159 641.828 40.5659 654.548 34.9795C680.039 23.897 705.328 12.4363 730.102 0.00878906C705.925 13.5665 682.261 28.0911 658.798 42.9938C647.045 50.4022 635.412 58.0426 623.746 65.61L588.994 88.7978C542.842 120.06 496.634 151.215 450.624 182.739L416.083 206.318L381.641 230.09L312.773 277.66L278.357 301.48L244.065 325.536C221.2 341.564 198.326 357.571 175.581 373.828C143.764 396.568 99.5329 389.212 76.792 357.395C54.0512 325.578 61.408 281.347 93.2246 258.606C98.3512 254.941 104.135 251.954 109.76 249.827H109.765Z" fill="#008CFF"/>
</g>
<g opacity="0.02">
<path d="M111.333 252.779C137.46 242.896 163.463 232.776 189.469 222.673L228.492 207.534L267.395 192.167L345.166 161.373L384.047 145.963L422.829 130.373C474.585 109.665 526.147 88.6043 577.77 67.6425L616.354 51.6741C629.134 46.1994 641.953 40.7935 654.651 35.1642C680.091 23.9914 705.345 12.4577 730.106 0.00439453C705.917 13.5363 682.213 27.9878 658.703 42.796C646.925 50.1614 635.266 57.746 623.569 65.2662L588.723 88.2777C542.438 119.291 496.101 150.196 449.949 181.458L415.305 204.844L380.755 228.41L311.669 275.572L277.145 299.185L242.737 323.022C219.795 338.904 196.843 354.769 174.021 370.871C143.609 392.323 101.565 385.06 80.1138 354.649C58.6621 324.238 65.9244 282.194 96.3358 260.742C100.994 257.459 106.249 254.739 111.337 252.779H111.333Z" fill="#008CFF"/>
</g>
<g opacity="0.03">
<path d="M112.902 255.731C138.947 245.693 164.872 235.431 190.806 225.183L229.713 209.824L268.504 194.251L346.06 163.049L384.829 147.437L423.508 131.649C475.122 110.675 526.556 89.3691 578.045 68.1581L616.535 52.0134C629.289 46.4872 642.078 41.0255 654.754 35.3532C680.147 24.0902 705.358 12.4834 730.106 0C705.9 13.5018 682.162 27.8803 658.6 42.6026C646.8 49.925 635.112 57.4537 623.389 64.9223L588.453 87.7577C542.034 118.517 495.564 149.182 449.275 180.178L414.527 203.37L379.87 226.734L310.569 273.487L275.934 296.894L241.41 320.512C218.39 336.248 195.365 351.972 172.457 367.919C143.459 388.103 103.594 380.956 83.4099 351.963C63.2259 322.966 70.3722 283.1 99.3655 262.916C103.577 259.986 108.329 257.528 112.902 255.731Z" fill="#008CFF"/>
</g>
<g opacity="0.03">
<path d="M114.466 258.684C140.425 248.491 166.277 238.083 192.134 227.692L230.925 212.115L269.608 196.335L346.945 164.725L385.607 148.907L424.183 132.926C475.655 111.689 526.96 90.1341 578.316 68.6738L616.711 52.353C629.44 46.7753 642.198 41.2619 654.849 35.5466C680.194 24.1891 705.367 12.5136 730.102 0.00439453C705.883 13.4805 682.102 27.7859 658.497 42.4179C646.671 49.6931 634.957 57.1702 623.209 64.5872L588.178 87.2464C541.626 117.757 495.027 148.172 448.596 178.906L413.745 201.9L378.981 225.058L309.461 271.399L274.718 294.6L240.082 318.002C216.989 333.597 193.883 349.174 170.893 364.967C143.326 383.9 105.627 376.9 86.6931 349.333C67.7596 321.767 74.7597 284.067 102.326 265.134C106.108 262.534 110.384 260.321 114.475 258.684H114.466Z" fill="#008CFF"/>
</g>
<g opacity="0.03">
<path d="M116.034 261.636C141.912 251.284 167.686 240.734 193.465 230.202L232.14 214.41L270.716 198.424L347.838 166.401L386.389 150.377L424.827 134.138L578.586 69.1809L616.895 52.6968C629.594 47.0718 642.326 41.4983 654.956 35.74C680.253 24.2922 705.388 12.5437 730.105 0.00439453C705.873 13.4547 682.054 27.687 658.398 42.2245C646.55 49.4567 634.806 56.8823 623.028 64.2477L587.906 86.7393L447.95 177.694L412.963 200.431L378.086 223.382L308.351 269.315L273.497 292.309L238.745 315.493C215.574 330.941 192.395 346.377 169.319 362.01C143.188 379.715 107.65 372.886 89.9454 346.759C72.2409 320.628 79.0692 285.09 105.196 267.386C108.574 265.095 112.398 263.114 116.034 261.632V261.636Z" fill="#008CFF"/>
</g>
<g opacity="0.03">
<path d="M117.602 264.588C143.398 254.081 169.096 243.39 194.797 232.707C220.516 222.058 246.214 211.367 271.821 200.504L348.724 168.073L387.166 151.842L425.506 135.414L578.856 69.6922L617.072 53.0319C629.744 47.3553 642.447 41.7302 655.05 35.9247C680.301 24.3867 705.396 12.5608 730.101 0C705.852 13.4245 681.998 27.5838 658.29 42.031C646.422 49.2203 634.647 56.59 622.843 63.9039L587.627 86.2193L447.263 176.409L412.172 198.957L377.188 221.706L307.234 267.231C283.887 282.353 260.635 297.651 237.404 312.983C214.156 328.29 190.9 343.579 167.742 359.058C143.059 375.555 109.678 368.924 93.1769 344.241C76.6799 319.558 83.3105 286.177 107.994 269.676C110.989 267.673 114.388 265.911 117.594 264.579L117.602 264.588Z" fill="#008CFF"/>
</g>
<g opacity="0.03">
<path d="M119.166 267.54C144.881 256.879 170.501 246.041 196.129 235.217C221.771 224.422 247.391 213.584 272.929 202.592L349.617 169.753L387.953 153.32L426.189 136.699L579.136 70.2122L617.256 53.3715C629.903 47.6433 642.571 41.9624 655.158 36.1182C680.391 24.5501 705.362 12.4921 730.105 0.00439453C705.895 13.4976 681.916 27.4292 658.196 41.842C646.301 48.9883 634.497 56.3022 622.666 63.5644L587.36 85.7037L446.592 175.129L411.402 197.483L376.311 220.026L306.142 265.142C282.727 280.131 259.397 295.283 236.085 310.474C212.76 325.634 189.426 340.782 166.191 356.106C142.969 371.417 111.732 365.005 96.4169 341.787C81.1059 318.565 87.5173 287.329 110.735 272.018C113.369 270.282 116.365 268.726 119.171 267.54H119.166Z" fill="#008CFF"/>
</g>
<g opacity="0.03">
<path d="M120.736 270.492L197.462 237.726C223.026 226.785 248.573 215.806 274.039 204.676L350.508 171.429L388.736 154.79L426.869 137.979L579.407 70.7278L617.433 53.7109C630.05 47.9311 642.692 42.1986 655.253 36.3071C680.435 24.6445 705.376 12.5264 730.097 0C705.87 13.4589 681.857 27.326 658.085 41.6486C646.169 48.7519 634.334 56.0099 622.478 63.2249L587.078 85.1879L445.901 173.848L410.608 196.013L375.41 218.354L305.022 263.062C281.537 277.918 258.13 292.928 234.741 307.968L164.61 353.158C142.806 367.205 113.744 360.919 99.6964 339.119C85.6488 317.315 91.9357 288.253 113.735 274.205C115.918 272.8 118.419 271.498 120.727 270.492H120.736Z" fill="#008CFF"/>
</g>
<g opacity="0.03">
<path d="M122.304 273.445L198.795 240.236C224.281 229.145 249.751 218.023 275.147 206.765L351.401 173.109L389.522 156.268L427.557 139.264L579.691 71.2479L617.627 54.0547C630.217 48.2234 642.83 42.4351 655.369 36.5006C680.499 24.7434 705.406 12.5608 730.115 0.00439453C705.87 13.4332 681.823 27.2358 658.003 41.4639C646.066 48.5242 634.201 55.7263 622.319 62.8898L586.824 84.6767L445.244 172.572L409.848 194.548L374.538 216.683L303.934 260.978C280.377 275.701 256.893 290.565 233.43 305.463L163.063 350.21C142.75 363.127 115.811 357.129 102.894 336.816C89.9762 316.503 95.9709 289.563 116.284 276.646C118.166 275.447 120.332 274.321 122.313 273.445H122.304Z" fill="#008CFF"/>
</g>
<g opacity="0.03">
<path d="M123.868 276.397L200.122 242.741C225.531 231.504 250.924 220.241 276.247 208.845C326.903 186.069 377.704 163.569 428.227 140.54L579.952 71.7635L617.794 54.3942L655.459 36.694C680.542 24.8423 705.414 12.5952 730.101 0.00439453C705.839 13.3988 681.758 27.1413 657.887 41.2705L622.121 62.546L586.531 84.1567L444.547 171.287C397.162 200.224 350.06 229.695 302.812 258.89C279.186 273.479 255.625 288.201 232.08 302.949L161.477 347.249C142.664 359.054 117.843 353.373 106.039 334.56C94.2343 315.746 99.9152 290.926 118.728 279.121C120.331 278.116 122.188 277.149 123.864 276.392L123.868 276.397Z" fill="#008CFF"/>
</g>
<g opacity="0.04">
<path d="M125.437 279.349L201.455 245.251L277.356 210.933C327.87 187.892 378.517 165.099 428.91 141.821L580.232 72.2793C605.427 60.6425 630.574 48.9111 655.554 36.866L692.974 18.706C705.354 12.475 717.816 6.40304 730.106 0.00878906C717.924 6.60931 705.909 13.5235 693.812 20.2873L657.801 41.103C633.827 55.0432 610.021 69.2971 586.266 83.6454L443.873 170.011C396.359 198.703 349.102 227.881 301.713 256.81L230.757 300.444L159.918 344.301C142.613 355.014 119.902 349.673 109.189 332.368C98.4761 315.063 103.818 292.352 121.122 281.639C122.467 280.806 124.036 279.989 125.441 279.349H125.437Z" fill="#008CFF"/>
</g>
<g opacity="0.04">
<path d="M127.005 282.306C177.484 259.195 228.101 236.347 278.465 213.022C328.836 189.714 379.329 166.629 429.589 143.106L580.503 72.7993C605.633 61.0378 630.716 49.1904 655.652 37.0594L693.008 18.779C705.375 12.5266 717.816 6.41163 730.102 0.00878906C717.915 6.59642 705.878 13.4763 693.769 20.2143L657.694 40.9097C633.676 54.7639 609.805 68.9017 585.986 83.1255L443.19 168.726C395.542 197.173 348.131 226.059 300.599 254.722C253.059 283.367 205.773 312.489 158.345 341.349C142.548 350.962 121.947 345.947 112.334 330.151C102.721 314.354 107.736 293.753 123.533 284.14C124.607 283.487 125.883 282.821 127.001 282.301L127.005 282.306Z" fill="#008CFF"/>
</g>
<g opacity="0.04">
<path d="M128.573 285.258C178.898 261.859 229.347 238.697 279.573 215.106C329.803 191.531 380.145 168.159 430.272 144.387L580.782 73.3149C630.818 49.3709 680.898 25.5127 730.106 0.00878906C681.409 26.471 633.586 54.5877 585.715 82.6098L442.51 167.445C394.734 195.644 347.168 224.242 299.495 252.638C251.813 281.016 204.359 309.825 156.78 338.397C142.518 346.961 124.01 342.342 115.445 328.079C106.881 313.817 111.5 295.309 125.763 286.745C126.674 286.199 127.632 285.692 128.573 285.253V285.258Z" fill="#008CFF"/>
</g>
<g opacity="0.04">
<path d="M130.138 288.21C180.312 264.524 230.594 241.048 280.678 217.194L430.951 145.671L581.057 73.835C630.974 49.6632 680.929 25.5687 730.106 0.0131836C681.38 26.4239 633.432 54.3042 585.44 82.0985L441.832 166.169L298.391 250.558C250.567 278.67 202.95 307.165 155.216 335.449C142.497 342.987 126.077 338.784 118.54 326.068C111.002 313.349 115.205 296.929 127.921 289.392C128.638 288.966 129.403 288.562 130.138 288.214V288.21Z" fill="#008CFF"/>
</g>
<g opacity="0.04">
<path d="M131.706 291.162L281.786 219.278L431.63 146.952L581.327 74.3506C631.123 49.951 680.954 25.6245 730.105 0.00878906C681.349 26.3679 633.276 54.0075 585.169 81.5785L441.152 164.884L297.282 248.469L153.647 332.493C142.483 339.024 128.139 335.269 121.612 324.105C115.08 312.94 118.836 298.596 130 292.069C130.545 291.747 131.147 291.433 131.71 291.162H131.706Z" fill="#008CFF"/>
</g>
<g opacity="0.04">
<path d="M133.274 294.114C183.131 269.835 233.116 245.792 282.873 221.319L432.236 148.086L581.598 74.8532C631.278 50.2388 680.98 25.6673 730.101 0.00439453C681.319 26.3119 633.118 53.7067 584.894 81.0627L440.542 163.741L296.195 246.419C248.049 273.917 200.126 301.845 152.079 329.536C142.479 335.071 130.206 331.771 124.671 322.171C119.137 312.566 122.433 300.298 132.037 294.763C132.428 294.54 132.871 294.303 133.27 294.106L133.274 294.114Z" fill="#008CFF"/>
</g>
<g opacity="0.05">
<path d="M134.839 297.066L283.978 223.412L432.924 149.393L581.869 75.3732C631.429 50.531 681.006 25.7232 730.102 0.00439453C681.294 26.2561 632.963 53.4187 584.62 80.547L439.851 162.439L295.082 244.331L150.507 326.588C142.479 331.156 132.274 328.35 127.706 320.323C123.138 312.296 125.944 302.09 133.971 297.522C134.242 297.367 134.56 297.2 134.835 297.062L134.839 297.066Z" fill="#008CFF"/>
</g>
<path d="M136.407 300.019L285.091 225.505L433.62 150.699L582.149 75.8933C631.588 50.8233 681.036 25.7792 730.106 0.00878906C681.268 26.2089 632.813 53.1352 584.349 80.0315L439.163 161.137L293.978 242.243L148.947 323.64C142.505 327.254 134.353 324.964 130.739 318.522C127.125 312.081 129.416 303.929 135.857 300.315C136.025 300.221 136.24 300.109 136.412 300.023L136.407 300.019Z" fill="#008CFF"/>
<path d="M138.199 303.392L434.41 152.19L582.462 76.4863L656.344 38.3657L693.279 19.2904L730.102 0.00878906L693.498 19.7029L657.006 39.6076L584.031 79.4428L438.368 159.646L147.155 320.263C142.535 322.811 136.725 321.131 134.177 316.511C131.629 311.892 133.309 306.082 137.928 303.534C138.006 303.491 138.122 303.431 138.199 303.392Z" fill="#229BFF"/>
<path d="M139.991 306.765L435.184 153.638L582.781 77.075L656.482 38.6149L730.11 0.00878906L656.882 39.3584L583.726 78.8497L437.608 158.193L145.372 316.885C142.591 318.394 139.111 317.366 137.602 314.582C136.094 311.802 137.121 308.321 139.906 306.813C139.927 306.8 139.979 306.774 140 306.761L139.991 306.765Z" fill="#44ABFF"/>
<path d="M141.779 310.139L730.106 0.00878906L143.571 313.512C142.643 314.01 141.482 313.658 140.988 312.73C140.49 311.797 140.842 310.641 141.77 310.143H141.779V310.139Z" fill="#66BAFF"/>
</svg>
