<svg width="163" height="88" viewBox="0 0 163 88" fill="none" xmlns="http://www.w3.org/2000/svg">
<path d="M112.995 35.4352C115.339 37.2827 117.686 39.1279 120.03 40.9754L126.966 46.4459L131.434 50.0105V51.105C129.121 49.3744 126.808 47.6438 124.496 45.9154C122.637 44.3624 120.778 42.8094 118.917 41.2563C116.944 39.7235 114.971 38.1884 112.997 36.6556C112.997 36.2488 112.995 35.842 112.993 35.4374L112.995 35.4352Z" fill="#000408"/>
<path d="M119.697 35.9926C117.351 37.8378 115.004 39.683 112.658 41.5282L105.717 46.9965L101.247 50.5588V51.6534C103.56 49.925 105.873 48.1967 108.187 46.4683C110.048 44.9175 111.907 43.3645 113.768 41.8137C115.744 40.2809 117.717 38.748 119.693 37.2152C119.693 36.8084 119.697 36.4016 119.697 35.997V35.9926Z" fill="#1C2F36"/>
<path d="M43.2225 35.6914C45.5666 37.5389 47.9131 39.3841 50.2573 41.2316L57.1932 46.7021L61.6613 50.2667V51.3612C59.3485 49.6306 57.0358 47.9 54.7231 46.1717C52.8644 44.6186 51.0057 43.0656 49.1447 41.5125C47.1714 39.9797 45.198 38.4446 43.2247 36.9118C43.2247 36.505 43.2225 36.0982 43.2202 35.6937L43.2225 35.6914Z" fill="#000408"/>
<path d="M49.9244 36.2489C47.578 38.0941 45.2315 39.9394 42.8851 41.7846L35.9447 47.2528L31.4744 50.8152V51.9097C33.7871 50.1814 36.0998 48.453 38.4148 46.7247C40.2757 45.1739 42.1344 43.6208 43.9954 42.07C45.971 40.5372 47.9443 39.0044 49.9199 37.4716C49.9199 37.0648 49.9244 36.658 49.9244 36.2534V36.2489Z" fill="#1C2F36"/>
<path d="M136.706 48.5789H30.4316V51.6445H136.706V48.5789Z" fill="#1C2F36"/>
<path d="M43.3842 17.147H50.2976C51.9226 17.147 53.2419 18.4663 53.2419 20.0912V37.5142C53.2419 39.1391 51.9226 40.4584 50.2976 40.4584H43.3842C41.7592 40.4584 40.4399 39.1391 40.4399 37.5142V20.0912C40.4399 18.4663 41.7592 17.147 43.3842 17.147Z" fill="#202930"/>
<path d="M50.0458 17.1582H48.9265V40.4584H50.0458V17.1582Z" fill="#45525E"/>
<path d="M45.1417 17.1559H44.0225V40.4561H45.1417V17.1559Z" fill="#45525E"/>
<path d="M25.0869 34.4283H33.4702C35.4413 34.4283 37.0416 36.0286 37.0416 37.9997V59.1243C37.0416 61.0954 35.4413 62.6956 33.4702 62.6956H25.0892C23.1181 62.6956 21.5178 61.0954 21.5178 59.1243V37.9997C21.5178 36.0286 23.1181 34.4283 25.0892 34.4283H25.0869Z" fill="#202930"/>
<path d="M33.1646 34.444H31.8071V62.6955H33.1646V34.444Z" fill="#45525E"/>
<path d="M27.2201 34.4418H25.8625V62.6933H27.2201V34.4418Z" fill="#45525E"/>
<path d="M113.505 17.1672H120.418C122.043 17.1672 123.363 18.4865 123.363 20.1115V37.5344C123.363 39.1594 122.043 40.4787 120.418 40.4787H113.505C111.88 40.4787 110.561 39.1594 110.561 37.5344V20.1115C110.561 18.4865 111.88 17.1672 113.505 17.1672Z" fill="#202930"/>
<path d="M120.167 17.1808H119.048V40.481H120.167V17.1808Z" fill="#45525E"/>
<path d="M115.263 17.1785H114.144V40.4787H115.263V17.1785Z" fill="#45525E"/>
<path d="M129.305 34.4598H137.689C139.66 34.4598 141.26 36.0601 141.26 38.0312V59.1558C141.26 61.1269 139.66 62.7271 137.689 62.7271H129.308C127.337 62.7271 125.736 61.1269 125.736 59.1558V38.0312C125.736 36.0601 127.337 34.4598 129.308 34.4598H129.305Z" fill="#202930"/>
<path d="M137.383 34.4756H136.026V62.7271H137.383V34.4756Z" fill="#45525E"/>
<path d="M131.436 34.4733H130.078V62.7248H131.436V34.4733Z" fill="#45525E"/>
<path d="M100.888 5.11139H97.1679L94.3877 6.78805L92.5537 5.10914H88.2923L83.3073 5.10689H75.4387L70.4896 5.1024L67.388 6.83525L64.5179 5.10015H61.0274L56.9841 5.0979L57.519 8.23097L58.0292 11.2112H58.0315C58.3484 13.016 58.6585 14.778 58.9597 16.4907L103.668 16.5042C103.98 14.7983 104.302 13.0407 104.632 11.2427H104.636L105.194 7.99273L105.688 5.11363H100.888V5.11139Z" fill="#C9323A"/>
<g style="mix-blend-mode:multiply">
<path d="M103.668 5.11363L103.506 6.06209L102.993 9.05132H102.989C102.984 9.07379 102.98 9.09852 102.975 9.12099C102.47 11.8832 100.063 13.888 97.2533 13.888L65.8619 13.879C63.039 13.879 60.6251 11.8518 60.1374 9.07155C60.1352 9.05581 60.1307 9.03783 60.1284 9.0221H60.1262L59.6564 6.28011L59.4542 5.0979H56.9841L57.519 8.22872L58.0292 11.209H58.0315C58.3484 13.0137 58.6585 14.7758 58.9597 16.4884L103.668 16.5019C103.98 14.796 104.302 13.0385 104.632 11.2404H104.636L105.194 7.99048L105.688 5.11139H103.665L103.668 5.11363Z" fill="#C49598"/>
</g>
<path d="M60.8229 25.5595H59.6272L55.712 3.93144C55.6356 3.5044 55.9637 3.11108 56.3975 3.11108C56.7369 3.11108 57.0268 3.35607 57.083 3.6887L60.8229 25.5572V25.5595Z" fill="#202930"/>
<path d="M103.032 25.5707H101.836L105.688 3.12683H106.275C106.709 3.12683 107.037 3.52015 106.96 3.94718L103.032 25.573V25.5707Z" fill="#202930"/>
<path d="M18.0928 51.2669C18.0928 51.5366 68.7096 60.6751 68.7096 60.6751L18.0995 54.8742L18.0928 51.2646V51.2669Z" fill="#1C2F36"/>
<path d="M144.55 51.3051C144.55 51.5748 93.9292 60.684 93.9292 60.684L144.541 54.9146L144.55 51.3051Z" fill="#1C2F36"/>
<path d="M158.305 76.1876C106.9 69.9417 55.3028 69.9664 3.51953 76.1404L15.2135 63.2125L146.62 63.253L158.305 76.1876Z" fill="#1C2F36"/>
<path d="M151.27 63.5743L147.85 47.3808C147.672 46.9763 147.171 45.9649 146.031 45.3064C145.476 44.9827 144.946 44.8524 144.575 44.7917C144.559 48.9316 144.552 50.7656 144.543 54.9146C139.269 55.0854 93.0097 60.7986 93.0097 60.7986L81.3202 60.7941L69.6308 60.7896C69.6308 60.7896 23.3742 55.0494 18.0992 54.8741C18.0925 50.7252 18.088 48.8934 18.0745 44.7512C17.7037 44.8119 17.1755 44.9423 16.6181 45.2659C15.4786 45.9244 14.9774 46.9336 14.7976 47.3404L11.3656 63.5316L0.422363 77.2574C0.422363 77.2574 0.426858 82.0087 0.433601 83.7617C0.597671 83.8516 0.95503 84.0224 1.436 84.0292C1.9372 84.0292 2.30805 83.8584 2.46538 83.7617C2.75306 83.6381 3.11042 83.4538 3.47452 83.1571C4.05888 82.6829 4.58031 81.8109 4.58031 81.8109L6.49072 74.4569C8.66184 72.4926 10.8397 70.5237 13.0108 68.5526C21.4368 68.5549 58.4381 68.5526 68.5205 68.5616C72.7841 68.5571 77.0499 68.5571 81.3135 68.5594C85.5771 68.5594 89.8429 68.5616 94.1065 68.5706C104.189 68.5661 141.19 68.5909 149.616 68.5953C151.785 70.5664 153.963 72.5375 156.132 74.5041L158.038 81.8603C158.038 81.8603 158.559 82.7324 159.143 83.2066C159.508 83.501 159.865 83.6876 160.153 83.8112C160.31 83.9078 160.681 84.0786 161.182 84.0786C161.663 84.0719 162.02 83.9011 162.184 83.8112C162.191 82.0603 162.2 77.3068 162.2 77.3068L151.264 63.5766L151.27 63.5743Z" fill="#DE333D"/>
<path d="M120.007 30.0682C119.938 30.2817 119.857 30.4929 119.767 30.6997C119.189 31.9965 118.166 33.1091 116.8 33.7541C114.445 35.024 112.096 36.2938 109.738 37.5637C106.936 38.8268 103.865 40.0697 100.541 41.207C98.3836 41.9486 94.2976 43.1421 94.2976 43.1421V43.205C94.3111 43.6523 94.3718 46.4055 94.4055 47.8394C94.2953 48.0867 94.0818 48.4777 93.7042 48.8486C93.2637 49.2734 92.812 49.4667 92.5513 49.5566C92.9086 53.2582 93.257 56.9599 93.6054 60.6616C93.5424 61.019 93.3312 62.0281 92.4861 62.8867C91.5444 63.8486 90.4453 63.9992 90.1172 64.0329C89.1687 64.1835 88.1865 64.3139 87.1707 64.424C84.6916 64.678 82.3632 64.7522 80.2347 64.7095C77.268 64.5566 74.308 64.406 71.348 64.2532C71.1547 64.2599 69.6174 64.2937 68.5745 63.0013C67.7789 62.0259 67.7722 60.8999 67.7789 60.6054C68.0823 57.1375 68.7993 49.5498 68.7993 49.5498C67.5564 48.8553 66.8012 47.536 66.8237 46.1156C66.8372 45.1064 66.8529 43.9669 66.8394 43.1893V43.0454C63.8457 42.488 60.2676 41.5328 56.4019 39.8697C54.1094 38.8875 52.0888 37.8154 50.3245 36.7636C48.7602 35.8983 47.187 35.0397 45.6137 34.1722C43.8359 33.6507 42.4963 32.4483 41.7075 30.9919V30.9851C41.186 30.0232 40.9051 28.9579 40.8916 27.915V27.9015C40.8849 27.1396 41.0152 26.3844 41.3119 25.6899C42.4177 23.0671 45.5508 21.9208 48.7917 22.5681C49.6435 22.7389 52.2664 22.8221 52.2664 22.8221V20.1498L61.6004 20.152V23.2761C62.3354 23.0761 63.2613 22.7277 64.23 22.0894C65.6235 21.1634 66.4753 20.0644 66.9293 19.3766C68.1452 19.3766 69.3612 19.3699 70.5771 19.3631C71.4626 18.6619 72.6583 17.5516 73.7304 15.9019C74.5215 14.6927 75.016 13.5398 75.3374 12.6205C75.1396 9.2627 77.3916 6.48924 79.9606 6.15885C82.9273 5.77452 86.1548 8.66036 86.0154 12.6228C86.3458 13.6184 86.9414 15.0186 88.0202 16.4548C88.8653 17.5741 89.7508 18.3787 90.4498 18.9271C91.9602 18.9204 93.4705 18.9204 94.9831 18.9226C95.1539 19.4508 95.6978 20.8802 97.1115 21.9995C98.5387 23.1188 100.015 23.2514 100.552 23.2783V21.3477L109.062 21.1994V23.0468C109.062 23.0468 114.357 23.0289 116.092 23.3166C118.207 23.6739 119.771 25.164 120.178 27.2385C120.362 28.1802 120.295 29.1467 120.012 30.0614L120.007 30.0682Z" fill="#DE333D"/>
<g style="mix-blend-mode:overlay">
<path d="M77.0389 13.4858C78.1357 13.4926 79.2392 13.4971 80.3473 13.4971C81.6194 13.4971 82.8847 13.4971 84.1433 13.4903C84.1321 12.4587 84.1231 11.4271 84.1119 10.3955C83.9635 10.0718 83.5006 9.18178 82.4599 8.59967C81.6351 8.13892 80.8552 8.09847 80.4866 8.10296C80.1135 8.11645 79.3943 8.19286 78.6324 8.62664C77.657 9.18403 77.194 9.99539 77.0254 10.3303C77.0299 11.3799 77.0344 12.4317 77.0366 13.4813L77.0389 13.4858Z" fill="#BDBEBF"/>
</g>
<path d="M84.5074 55.5911H76.6568C75.578 55.5889 74.6722 54.7775 74.5486 53.7077L71.429 26.236C71.2852 24.9774 72.2718 23.8761 73.5372 23.8761L87.645 23.8806C88.9126 23.8806 89.8948 24.9841 89.7509 26.2428L86.6156 53.7122C86.4942 54.7842 85.5862 55.5934 84.5074 55.5934V55.5911Z" fill="#FFBC02"/>
<path d="M85.3119 19.7542H76.6813C76.4182 19.7542 76.2048 19.9675 76.2048 20.2306V28.8612C76.2048 29.1243 76.4182 29.3377 76.6813 29.3377H85.3119C85.575 29.3377 85.7883 29.1243 85.7883 28.8612V20.2306C85.7883 19.9675 85.575 19.7542 85.3119 19.7542Z" fill="#1C2F36"/>
<path d="M83.1857 33.4259H78.7985C78.6248 33.4259 78.4839 33.5668 78.4839 33.7406V38.1278C78.4839 38.3015 78.6248 38.4424 78.7985 38.4424H83.1857C83.3595 38.4424 83.5004 38.3015 83.5004 38.1278V33.7406C83.5004 33.5668 83.3595 33.4259 83.1857 33.4259Z" fill="#1C2F36"/>
<path d="M78.075 24.5459C78.075 22.9322 79.3853 21.6241 80.999 21.6241C82.6127 21.6241 83.9208 22.9345 83.9208 24.5482C83.9208 26.1619 82.6105 27.47 80.9968 27.47C79.383 27.47 78.075 26.1597 78.075 24.5459Z" fill="#425A63"/>
<path d="M108.273 34.1317L95.5361 38.1053C94.3741 38.4672 93.1919 37.5996 93.1919 36.3815V28.4611C93.1941 27.4632 94.0033 26.6564 95.0012 26.6564L107.738 26.6609C108.736 26.6609 109.543 27.47 109.543 28.4679V32.4123C109.543 33.2012 109.028 33.9002 108.273 34.1362V34.1317Z" fill="#202930"/>
<path d="M51.9202 34.116L64.6547 38.0986C65.8167 38.4627 66.9989 37.5929 66.9989 36.377V28.4567C67.0012 27.4587 66.1943 26.6519 65.1964 26.6496L52.4596 26.6451C51.4617 26.6451 50.6548 27.452 50.6526 28.4499V32.3943C50.6526 33.1832 51.165 33.8822 51.9179 34.1182L51.9202 34.116Z" fill="#202930"/>
<g style="mix-blend-mode:multiply">
<path d="M119.767 30.6996C119.189 31.9965 118.166 33.109 116.8 33.754C114.445 35.0239 112.096 36.2938 109.738 37.5636C106.936 38.8267 103.865 40.0696 100.541 41.2069C98.3836 41.9486 94.2976 43.142 94.2976 43.142V40.6C94.2976 40.6 113.838 36.8624 119.767 30.6974V30.6996Z" fill="#C48F93"/>
</g>
<g style="mix-blend-mode:multiply">
<path d="M66.8438 40.5866V43.1892H66.837V43.0454C63.8433 42.488 60.2652 41.5328 56.3995 39.8696C54.107 38.8874 52.0865 37.8153 50.3221 36.7635C48.7579 35.8982 47.1846 35.0396 45.6113 34.1721C43.8335 33.6507 42.494 32.4482 41.7051 30.9918C47.9802 36.968 66.8438 40.5866 66.8438 40.5866Z" fill="#C48F93"/>
</g>
<g style="mix-blend-mode:multiply">
<path d="M92.5538 49.5565L88.4678 50.8848L93.6079 60.6616L92.5538 49.5565Z" fill="#C48F93"/>
</g>
<g style="mix-blend-mode:multiply">
<path d="M68.7972 49.5498L72.8809 50.8803L67.7363 60.6549L68.7972 49.5498Z" fill="#C48F93"/>
</g>
<g style="mix-blend-mode:multiply">
<path d="M90.4475 18.9338L88.7214 35.2464L94.9808 18.9293L90.4475 18.9338Z" fill="#C48F93"/>
</g>
<g style="mix-blend-mode:multiply">
<path d="M70.5726 19.3901L72.6089 36.6332L66.9316 19.3811L70.5726 19.3901Z" fill="#C48F93"/>
</g>
<g style="mix-blend-mode:overlay">
<path d="M52.2642 22.8243C52.0642 24.5347 41.7637 22.7861 40.8894 27.9037C40.8827 27.1418 41.013 26.3866 41.3097 25.6921C42.4155 23.0693 45.5486 21.923 48.7895 22.5703C49.6413 22.7411 52.2642 22.8243 52.2642 22.8243Z" fill="#BDBEBF"/>
</g>
<g style="mix-blend-mode:overlay">
<path d="M120.007 30.0681C119.973 29.8681 119.96 29.6276 119.96 29.3467C119.96 24.4718 109.057 23.0536 109.057 23.0536C109.057 23.0536 114.352 23.0356 116.09 23.3233C118.205 23.6806 119.769 25.1707 120.176 27.2452C120.36 28.1869 120.293 29.1534 120.009 30.0681H120.007Z" fill="#BDBEBF"/>
</g>
<path d="M85.9413 57.2633H75.3711C75.2011 57.2633 75.0632 57.4012 75.0632 57.5712V58.8366C75.0632 59.0066 75.2011 59.1445 75.3711 59.1445H85.9413C86.1114 59.1445 86.2492 59.0066 86.2492 58.8366V57.5712C86.2492 57.4012 86.1114 57.2633 85.9413 57.2633Z" fill="#FFBC02"/>
<path d="M75.3689 61.3516H85.9391C86.1099 61.3516 86.247 61.4887 86.247 61.6595V62.9248C86.247 63.0957 86.1099 63.2328 85.9391 63.2328H75.3689C75.1981 63.2328 75.061 63.0957 75.061 62.9248V61.6595C75.061 61.4887 75.1981 61.3516 75.3689 61.3516Z" fill="#FFBC02"/>
<path d="M85.9391 65.4399H75.3689C75.1989 65.4399 75.061 65.5778 75.061 65.7479V67.0132C75.061 67.1833 75.1989 67.3211 75.3689 67.3211H85.9391C86.1092 67.3211 86.247 67.1833 86.247 67.0132V65.7479C86.247 65.5778 86.1092 65.4399 85.9391 65.4399Z" fill="#FFBC02"/>
<g style="mix-blend-mode:multiply">
<path d="M17.0275 62.8214L13.0134 68.5526L68.5231 68.5639L17.0275 62.8214Z" fill="#C48F93"/>
</g>
<g style="mix-blend-mode:multiply">
<path d="M145.609 62.8596L149.621 68.5953L94.1113 68.5706L145.609 62.8596Z" fill="#C48F93"/>
</g>
<path d="M98.3679 61.9044L140.828 57.2812L128.937 61.3673L98.3679 61.9044Z" fill="#FFBC02"/>
<path d="M62.9401 61.8931L20.4841 57.2452L32.3736 61.338L62.9401 61.8931Z" fill="#FFBC02"/>
<path d="M124.784 29.9727L124.784 28.8309L116.224 28.8279L116.223 29.9697L124.784 29.9727Z" fill="#DE333D"/>
<path d="M130.764 29.3533C130.764 30.3647 129.004 31.1828 126.833 31.1828C124.662 31.1828 122.902 30.3625 122.904 29.3511C122.904 28.3397 124.664 26.0045 126.835 26.0045C129.006 26.0045 130.764 28.342 130.764 29.3533Z" fill="#DE333D"/>
<path d="M46.3475 29.9502L46.3479 28.8085L37.787 28.8055L37.7866 29.9472L46.3475 29.9502Z" fill="#DE333D"/>
<path d="M31.814 29.3241C31.814 30.3355 33.5738 31.1559 35.7427 31.1559C37.9138 31.1559 39.6736 30.3378 39.6736 29.3264C39.6736 28.315 37.916 25.9775 35.7449 25.9775C33.5738 25.9775 31.814 28.3127 31.814 29.3241Z" fill="#DE333D"/>
</svg>
