<svg width="172" height="105" viewBox="0 0 172 105" fill="none" xmlns="http://www.w3.org/2000/svg">
<g filter="url(#filter0_d_642_3747)">
<g clip-path="url(#clip0_642_3747)">
<path d="M58.4917 26.17H49.5434C46.89 26.17 44.7417 24.0218 44.7417 21.3684C44.7417 19.481 46.2682 17.9545 48.1556 17.9545H52.7796C55.9326 17.9545 58.4917 20.5135 58.4917 23.6665V26.1756V26.17Z" fill="#B33050"/>
<path d="M56.2213 23.1337V24.8157H50.2206C48.4442 24.8157 47.001 23.3724 47.001 21.5961C47.001 20.9632 47.2563 20.3915 47.6727 19.9751C48.089 19.5588 48.6607 19.3035 49.2936 19.3035H52.3911C52.9628 19.3035 53.5068 19.4256 53.9898 19.6532C55.3054 20.2582 56.2213 21.5905 56.2213 23.1337Z" fill="#2B3545"/>
<path opacity="0.05" d="M51.9137 19.3035L50.8312 24.8157H50.2206C48.4443 24.8157 47.001 23.3724 47.001 21.5961C47.001 20.9632 47.2563 20.3915 47.6727 19.9751C48.089 19.5588 48.6607 19.3035 49.2936 19.3035H51.9137Z" fill="white"/>
<path opacity="0.05" d="M56.2214 23.1337V24.8157H53.4902L53.9898 19.6532C55.3054 20.2583 56.2214 21.5905 56.2214 23.1337Z" fill="white"/>
<path d="M114.474 26.17H123.423C126.076 26.17 128.224 24.0218 128.224 21.3684C128.224 19.481 126.692 17.9545 124.81 17.9545H120.186C117.033 17.9545 114.474 20.5135 114.474 23.6665V26.1756V26.17Z" fill="#B33050"/>
<path d="M116.739 23.1337V24.8157H122.74C124.516 24.8157 125.959 23.3724 125.959 21.5961C125.959 20.9632 125.704 20.3915 125.288 19.9751C124.871 19.5588 124.3 19.3035 123.667 19.3035H120.569C119.997 19.3035 119.453 19.4256 118.971 19.6532C117.655 20.2582 116.739 21.5905 116.739 23.1337Z" fill="#2B3545"/>
<path opacity="0.05" d="M121.046 19.3035L122.129 24.8157H122.739C124.516 24.8157 125.959 23.3724 125.959 21.5961C125.959 20.9632 125.704 20.3915 125.287 19.9751C124.871 19.5588 124.299 19.3035 123.666 19.3035H121.046Z" fill="white"/>
<path opacity="0.05" d="M116.739 23.1337V24.8157H119.47L118.971 19.6532C117.655 20.2583 116.739 21.5905 116.739 23.1337Z" fill="white"/>
<path d="M49.2215 57.9277H43.8037C41.6208 57.9277 39.8513 59.6973 39.8513 61.8801V78.4001C39.8513 80.5829 41.6208 82.3524 43.8037 82.3524H49.2215C51.4043 82.3524 53.1739 80.5829 53.1739 78.4001V61.8801C53.1739 59.6973 51.4043 57.9277 49.2215 57.9277Z" fill="#252D3B"/>
<path d="M124.3 82.3524H129.718C131.9 82.3524 133.67 80.5829 133.67 78.4001V61.8801C133.67 59.6973 131.9 57.9277 129.718 57.9277H124.3C122.117 57.9277 120.347 59.6973 120.347 61.8801V78.4001C120.347 80.5829 122.117 82.3524 124.3 82.3524Z" fill="#252D3B"/>
<path d="M123.395 85.5387C114.79 89.702 86.7576 89.7297 86.7576 89.7297C86.7576 89.7297 58.7247 89.702 50.1206 85.5387C41.5165 81.3754 38.7409 66.6651 39.296 56.6732C39.4959 53.0428 40.323 49.8898 41.3 47.3418C42.9875 42.8843 45.1246 40.2975 45.1246 40.2975C45.1246 40.2975 49.5988 30.9607 55.9492 23.0892C55.9492 23.0892 61.4559 11.1822 69.6437 9.65568C80.1852 7.6906 86.7576 8.10138 86.7576 8.10138C86.7576 8.10138 93.3301 7.6906 103.877 9.65568C112.065 11.1822 117.566 23.0892 117.566 23.0892C123.922 30.9607 128.391 40.2975 128.391 40.2975C128.391 40.2975 130.528 42.8843 132.215 47.3418C133.192 49.8898 134.019 53.0428 134.219 56.6732C134.774 66.6651 131.999 81.3754 123.395 85.5387Z" fill="#DE3A57"/>
<path d="M43.9256 52.7375L43.315 54.3251C42.449 56.5788 42.7488 59.1157 44.1255 61.0974C46.0628 63.8896 48.9882 65.838 52.3133 66.5485L58.1474 67.7975C61.2838 68.4692 64.3091 66.2654 64.6311 63.0736L64.8531 60.892L43.9201 52.7319L43.9256 52.7375Z" fill="#B33050"/>
<path d="M129.595 52.7375L130.206 54.3251C131.072 56.5788 130.772 59.1157 129.395 61.0974C127.458 63.8896 124.533 65.838 121.208 66.5485L115.373 67.7975C112.237 68.4692 109.212 66.2654 108.89 63.0736L108.668 60.892L129.601 52.7319L129.595 52.7375Z" fill="#B33050"/>
<path d="M73.2963 71.0449H100.219C104.532 71.0449 108.035 74.5476 108.035 78.8608V83.8124H65.4749V78.8608C65.4749 74.5476 68.9776 71.0449 73.2907 71.0449H73.2963Z" fill="#CC3550"/>
<path d="M132.215 47.3418C130.578 53.2037 127.675 58.3829 123.117 60.5922C121.929 61.1695 120.364 61.6635 118.56 62.0854C118.454 62.1132 118.343 62.1409 118.238 62.1631C118.154 62.1798 118.077 62.202 117.994 62.2186C112.592 63.4177 105.215 64.0505 98.9811 64.378C94.568 64.6167 90.7323 64.7 88.584 64.7333C87.4238 64.7499 86.7577 64.7499 86.7577 64.7499C86.7577 64.7499 86.0916 64.7499 84.9314 64.7333C82.7831 64.7 78.9473 64.6167 74.5343 64.3836C68.2449 64.0449 60.7787 63.4066 55.3609 62.1798L55.2776 62.1631C55.1111 62.1243 54.9501 62.0854 54.7947 62.0466C53.0572 61.6302 51.5529 61.1528 50.3982 60.5922C45.8408 58.3829 42.9376 53.2037 41.3 47.3418C42.9876 42.8843 45.1247 40.2975 45.1247 40.2975C45.1247 40.2975 46.2682 37.9106 48.2222 34.5355C48.2222 34.53 48.2278 34.5244 48.2333 34.5133C50.1429 31.2104 52.8185 26.9694 55.9493 23.0892C55.9493 23.0892 61.456 11.1822 69.6438 9.65565C72.436 9.13385 74.945 8.77858 77.1321 8.54544C80.6238 8.16242 83.2827 8.0736 84.9092 8.06805H84.9314C86.1249 8.0625 86.7577 8.10135 86.7577 8.10135C86.7577 8.10135 87.3905 8.0625 88.584 8.06805C90.2105 8.0736 92.875 8.16242 96.3832 8.54544C98.5703 8.77858 101.085 9.13385 103.877 9.65565C112.065 11.1822 117.566 23.0892 117.566 23.0892C123.922 30.9606 128.391 40.2975 128.391 40.2975C128.391 40.2975 130.528 42.8843 132.215 47.3418Z" fill="#EC3D5D"/>
<path d="M132.338 72.96C130.65 78.5499 127.78 83.4182 123.395 85.5387C121.452 86.4768 118.521 87.2095 115.146 87.7702C106.236 89.2634 94.2239 89.6187 89.1669 89.7075C87.6515 89.7297 86.7577 89.7297 86.7577 89.7297C86.7577 89.7297 85.8973 89.7297 84.4263 89.7075C79.4303 89.6242 67.4012 89.2745 58.4529 87.7869C55.039 87.2206 52.0803 86.4879 50.1207 85.5387C45.7354 83.4182 42.8655 78.5499 41.178 72.96C42.4159 74.2756 43.8147 75.3525 45.3912 76.113C55.1056 80.8147 86.7577 80.848 86.7577 80.848C86.7577 80.848 118.41 80.8147 128.124 76.113C129.701 75.3525 131.1 74.2756 132.338 72.96Z" fill="#3D495B"/>
<path d="M108.013 27.8354H65.5082C65.5082 27.8354 64.9254 19.5088 69.6438 9.65568C80.1852 7.6906 86.7577 8.10138 86.7577 8.10138C86.7577 8.10138 93.3301 7.6906 103.877 9.65568C108.596 19.5088 108.013 27.8354 108.013 27.8354Z" fill="#F74161"/>
<path d="M84.4263 86.8543V89.7075C79.4303 89.6243 67.4012 89.2745 58.4529 87.7869V85.9217C58.4529 83.8567 60.1793 82.208 62.2443 82.3135L80.9957 83.2461C82.9164 83.346 84.4263 84.9281 84.4263 86.8543Z" fill="#252D3B"/>
<path d="M115.146 85.9217V87.7702C106.236 89.2634 94.2238 89.6187 89.1667 89.7075V86.8543C89.1667 84.9281 90.6766 83.346 92.5973 83.2461L111.354 82.3135C113.414 82.208 115.146 83.8567 115.146 85.9217Z" fill="#252D3B"/>
<path d="M118.238 62.1632C106.986 64.7278 86.7577 64.75 86.7577 64.75C86.7577 64.75 66.5296 64.7278 55.2776 62.1632L67.4233 42.2682H106.092L118.238 62.1632Z" fill="#F74161"/>
<path d="M74.5344 64.3836L77.1323 8.54551L84.9094 8.06812H84.9316V64.7333L74.5344 64.3836Z" fill="#F7F7F7"/>
<path d="M98.9811 64.3781C94.568 64.6168 90.7322 64.7 88.584 64.7333V8.06812C90.2104 8.07367 92.8749 8.16248 96.3832 8.54551L98.9811 64.3781Z" fill="#F7F7F7"/>
<path d="M67.6562 42.4124L55.3606 62.1798L55.2774 62.1631C55.1108 62.1243 54.9499 62.0854 54.7944 62.0465L67.19 42.1238L67.6562 42.4124Z" fill="#B33050"/>
<path d="M118.56 62.0854C118.454 62.1131 118.343 62.1409 118.238 62.1631C118.155 62.1798 118.077 62.202 117.994 62.2186L105.67 42.4124L106.142 42.1238L118.56 62.0854Z" fill="#B33050"/>
<path d="M114.03 34.9741L113.697 36.9392L113.558 37.7441C112.453 44.1889 106.869 48.8962 100.33 48.8962H73.1908C66.6516 48.8962 61.0673 44.1889 59.9626 37.7441L59.8238 36.9392L59.4852 34.9741C59.3575 34.2247 59.3686 33.4809 59.5074 32.7814C60.0459 30.0115 62.4828 27.8354 65.5081 27.8354H108.013C111.032 27.8354 113.475 30.0059 114.008 32.7814C114.147 33.4809 114.158 34.2192 114.03 34.9741Z" fill="#242C3B"/>
<path d="M114.008 32.7814L113.697 34.6244L113.558 35.4293C112.454 41.8741 106.869 46.5814 100.33 46.5814H73.1909C66.6518 46.5814 61.0674 41.8741 59.9628 35.4293L59.824 34.6244L59.5076 32.7814C60.046 30.0115 62.4829 27.8354 65.5083 27.8354H108.013C111.033 27.8354 113.475 30.0059 114.008 32.7814Z" fill="#2B3545"/>
<path opacity="0.05" d="M114.03 34.9741L113.697 36.9392C111.182 38.2215 108.34 38.9376 105.354 38.9376H68.1616C65.1807 38.9376 62.3385 38.2215 59.8239 36.9392L59.4853 34.9741C58.8469 31.2438 61.7224 27.8354 65.5082 27.8354H108.013C111.798 27.8354 114.674 31.2438 114.03 34.9741Z" fill="white"/>
<path d="M98.8868 73.1487H74.0736C73.2611 73.1487 72.6025 73.8073 72.6025 74.6197V81.0256C72.6025 81.8381 73.2611 82.4967 74.0736 82.4967H98.8868C99.6992 82.4967 100.358 81.8381 100.358 81.0256V74.6197C100.358 73.8073 99.6992 73.1487 98.8868 73.1487Z" fill="#FFFFFD"/>
<path d="M55.9492 23.0894C55.9492 23.0894 55.6606 41.3246 48.2222 34.5356C48.2222 34.5356 48.2277 34.5301 48.2333 34.5134C50.1428 31.2106 52.8184 26.9695 55.9492 23.0894Z" fill="#2B3545"/>
<path d="M117.572 23.0894C117.572 23.0894 117.86 41.3246 125.299 34.5356C125.299 34.5356 125.299 34.5301 125.288 34.5134C123.378 31.2106 120.703 26.9695 117.572 23.0894Z" fill="#2B3545"/>
<path opacity="0.05" d="M58.1475 64.0394C52.9073 63.2844 47.6948 61.6913 44.5862 57.095C44.1866 56.5066 43.2262 57.0617 43.6259 57.6557C46.901 62.4962 52.2911 64.3058 57.8533 65.1107C58.5527 65.2107 58.8525 64.1393 58.1475 64.0394Z" fill="white"/>
<path opacity="0.05" d="M62.5716 64.267C61.7389 64.3614 60.9063 64.3836 60.0681 64.3225C59.3575 64.2726 59.3575 65.3828 60.0681 65.4327C60.9063 65.4882 61.7389 65.4716 62.5716 65.3772C63.271 65.2995 63.2821 64.1837 62.5716 64.267Z" fill="white"/>
<path opacity="0.05" d="M114.846 64.0394C120.086 63.2844 125.299 61.6913 128.407 57.095C128.807 56.5066 129.767 57.0617 129.368 57.6557C126.092 62.4962 120.702 64.3058 115.14 65.1107C114.441 65.2107 114.141 64.1393 114.846 64.0394Z" fill="white"/>
<path opacity="0.05" d="M110.416 64.267C111.249 64.3614 112.082 64.3836 112.92 64.3225C113.63 64.2726 113.63 65.3828 112.92 65.4327C112.082 65.4882 111.249 65.4716 110.416 65.3772C109.717 65.2995 109.706 64.1837 110.416 64.267Z" fill="white"/>
<path opacity="0.2" d="M65.1974 17.5271C78.4756 15.0513 86.7577 15.5676 86.7577 15.5676C86.7577 15.5676 95.0399 15.0513 108.324 17.5271C110.905 18.0101 113.27 19.309 115.373 20.9854C113.036 17.3661 108.979 12.3813 103.877 11.432C93.3302 9.46697 86.7577 9.87775 86.7577 9.87775C86.7577 9.87775 80.1853 9.46697 69.6438 11.432C64.5368 12.3868 60.4735 17.3717 58.1365 20.9965C60.2403 19.3145 62.6106 18.0156 65.1974 17.5327V17.5271Z" fill="white"/>
<path d="M64.3816 7.2798L64.0929 8.68977C62.8217 8.42887 61.5172 8.68977 60.4237 9.41141C59.3301 10.133 58.5918 11.2377 58.3365 12.5089L56.9265 12.2258C57.254 10.5716 58.2144 9.14496 59.6299 8.20683C61.0399 7.2687 62.7274 6.94119 64.3816 7.2798Z" fill="white"/>
<path d="M64.5091 3.19426L64.226 4.60423C62.0667 4.17125 59.874 4.60423 58.0421 5.81991C56.2103 7.03559 54.9613 8.88965 54.5228 11.049L53.1128 10.7604C53.629 8.22907 55.1001 6.0475 57.2483 4.62088C59.3966 3.19426 61.9778 2.68911 64.5147 3.19426H64.5091Z" fill="white"/>
<path d="M109.179 7.2798L109.467 8.68977C110.739 8.42887 112.043 8.68977 113.137 9.41141C114.23 10.133 114.968 11.2377 115.224 12.5089L116.634 12.2258C116.306 10.5716 115.346 9.14496 113.93 8.20683C112.52 7.2687 110.833 6.94119 109.179 7.2798Z" fill="white"/>
<path d="M109.051 3.19426L109.334 4.60423C111.493 4.17125 113.686 4.60423 115.518 5.81991C117.35 7.03559 118.599 8.88965 119.037 11.049L120.447 10.7604C119.931 8.22907 118.46 6.0475 116.312 4.62088C114.163 3.19426 111.582 2.68911 109.045 3.19426H109.051Z" fill="white"/>
<path d="M141.475 64.7334L136.701 61.3639C139.61 58.6605 140.57 55.4465 139.726 52.4322C138.982 49.7788 136.906 47.5695 133.998 46.0652L136.412 44.522C140.187 46.3372 143.068 49.0627 144.361 52.4378C145.893 56.4179 145.077 60.8476 141.469 64.7389L141.475 64.7334Z" fill="white"/>
<path d="M160.01 74.481L153.182 69.9181C157.029 64.0173 156.773 57.7335 153.631 52.4378C151.095 48.1635 146.831 44.8273 141.774 42.6568L143.706 41.3745C149.607 43.7559 154.825 47.4973 158.272 52.4322C162.707 58.7882 163.945 66.6874 160.015 74.481H160.01Z" fill="white"/>
<path d="M30.5254 64.7334L35.2993 61.3639C32.3905 58.6605 31.4302 55.4465 32.2739 52.4322C33.0178 49.7788 35.0939 47.5695 38.0026 46.0652L35.5879 44.522C31.8132 46.3372 28.9322 49.0627 27.6388 52.4378C26.1067 56.4179 26.9227 60.8476 30.5309 64.7389L30.5254 64.7334Z" fill="white"/>
<path d="M11.9904 74.481L18.8182 69.9181C14.9713 64.0173 15.2267 57.7335 18.3686 52.4378C20.9054 48.1635 25.1686 44.8273 30.2256 42.6568L28.2939 41.3745C22.3931 43.7559 17.1751 47.4973 13.7279 52.4322C9.29259 58.7882 8.0547 66.6874 11.9849 74.481H11.9904Z" fill="white"/>
</g>
</g>
<defs>
<filter id="filter0_d_642_3747" x="0.625732" y="0" width="170.749" height="105.637" filterUnits="userSpaceOnUse" color-interpolation-filters="sRGB">
<feFlood flood-opacity="0" result="BackgroundImageFix"/>
<feColorMatrix in="SourceAlpha" type="matrix" values="0 0 0 0 0 0 0 0 0 0 0 0 0 0 0 0 0 0 127 0" result="hardAlpha"/>
<feOffset dy="6"/>
<feGaussianBlur stdDeviation="4.5"/>
<feComposite in2="hardAlpha" operator="out"/>
<feColorMatrix type="matrix" values="0 0 0 0 0.238692 0 0 0 0 0.876569 0 0 0 0 0.961149 0 0 0 1 0"/>
<feBlend mode="normal" in2="BackgroundImageFix" result="effect1_dropShadow_642_3747"/>
<feBlend mode="normal" in="SourceGraphic" in2="effect1_dropShadow_642_3747" result="shape"/>
</filter>
<clipPath id="clip0_642_3747">
<rect width="152.749" height="86.7298" fill="white" transform="translate(9.62573 3)"/>
</clipPath>
</defs>
</svg>
