<svg width="322" height="196" viewBox="0 0 322 196" fill="none" xmlns="http://www.w3.org/2000/svg">
<g opacity="0.01">
<path d="M42.7356 99.5965C66.3703 92.0807 89.8675 84.3027 113.292 76.3873C125.019 72.4596 136.707 68.4589 148.391 64.4453L165.92 58.4335L183.405 52.34C206.747 44.2699 229.965 35.972 253.222 27.7385C259.036 25.6801 264.82 23.5659 270.582 21.4087C276.315 19.1957 282.073 17.0342 287.754 14.7266C299.146 10.1672 310.418 5.38011 321.375 0C310.783 6.06337 300.5 12.7154 290.341 19.5953C285.244 23.0073 280.23 26.5697 275.185 30.0719C270.17 33.6343 265.181 37.2439 260.218 40.9052C240.369 55.5544 220.486 70.1391 200.718 84.9473L185.876 96.0169L171.076 107.164C161.205 114.594 151.343 122.028 141.52 129.544C121.839 144.507 102.231 159.616 82.7599 174.978C63.9553 189.821 36.6766 186.602 21.8383 167.798C6.99573 148.993 10.2143 121.714 29.0189 106.872C33.2001 103.576 37.9572 101.126 42.7442 99.5879L42.7356 99.5965Z" fill="#008CFF"/>
</g>
<g opacity="0.01">
<path d="M43.4231 100.894C55.2146 97.0912 66.9331 93.1421 78.6559 89.2015L96.2444 83.3015L113.777 77.3026C125.474 73.3147 137.128 69.2539 148.782 65.1801L166.263 59.0781L183.701 52.8987C206.979 44.7125 230.141 36.3029 253.342 27.962C259.139 25.8735 264.91 23.7378 270.66 21.5548C276.379 19.316 282.125 17.133 287.797 14.8082C299.167 10.2102 310.422 5.3887 321.375 0C310.774 6.05047 300.478 12.6725 290.294 19.5136C285.189 22.9084 280.161 26.4451 275.103 29.9258C270.075 33.4667 265.069 37.0463 260.093 40.6817C240.184 55.2192 220.245 69.6965 200.417 84.3887L185.528 95.3723L170.681 106.433C160.78 113.803 150.883 121.181 141.026 128.633L126.23 139.793L111.491 151.051C101.659 158.554 91.8226 166.044 82.0636 173.68C63.8606 187.926 37.5574 184.716 23.3121 166.513C9.06684 148.31 12.2769 122.006 30.4799 107.761C34.429 104.672 38.9196 102.364 43.4231 100.89V100.894Z" fill="#008CFF"/>
</g>
<g opacity="0.01">
<path d="M44.1148 102.196C55.872 98.3246 67.5561 94.311 79.2445 90.3103L96.7814 84.3157L114.267 78.2222C125.929 74.1743 137.553 70.0489 149.173 65.9193L166.607 59.7313L184.002 53.466C207.22 45.1595 230.326 36.6467 253.462 28.1941C259.246 26.0799 265.004 23.9141 270.741 21.7096C276.448 19.4493 282.185 17.2448 287.844 14.8985C299.193 10.2575 310.43 5.40599 321.375 0.00439453C310.77 6.04198 300.452 12.6296 290.251 19.4321C285.137 22.8054 280.092 26.3205 275.025 29.7798C269.985 33.2949 264.966 36.853 259.972 40.4583C240.008 54.8884 220.008 69.254 200.121 83.8301L185.184 94.7278L170.29 105.699C160.359 113.008 150.432 120.326 140.54 127.718L125.697 138.787L110.906 149.951C101.04 157.39 91.1735 164.82 81.3759 172.387C63.7573 186.001 38.4382 182.752 24.8289 165.133C11.2153 147.515 14.464 122.196 32.0826 108.586C35.7653 105.742 39.9422 103.593 44.1191 102.196H44.1148Z" fill="#008CFF"/>
</g>
<g opacity="0.01">
<path d="M44.8027 103.494C56.5212 99.5535 68.171 95.4797 79.825 91.4103L97.3103 85.3168L114.748 79.1331C126.377 75.0207 137.971 70.8395 149.56 66.6541L166.947 60.3758L184.295 54.0245C207.448 45.602 230.498 36.9818 253.578 28.4175C259.35 26.2775 265.065 24.0386 270.815 21.8513C276.513 19.5781 282.232 17.3392 287.883 14.9758C299.211 10.2961 310.431 5.41019 321.371 0C310.757 6.02899 300.427 12.5822 290.204 19.3461C285.077 22.7022 280.024 26.1872 274.944 29.6336C269.912 33.1702 264.854 36.6509 259.848 40.2305C239.823 54.5488 219.768 68.807 199.816 83.2671L184.836 94.0789L169.895 104.964C159.934 112.217 149.973 119.475 140.05 126.802L125.156 137.777L110.314 148.847C100.417 156.221 90.5122 163.586 80.6801 171.085C63.6503 184.075 39.3152 180.801 26.329 163.771C13.3385 146.741 16.613 122.406 33.6428 109.42C37.0634 106.812 40.9438 104.813 44.8027 103.494Z" fill="#008CFF"/>
</g>
<g opacity="0.02">
<path d="M45.4938 104.796C57.1779 100.787 68.7933 96.6487 80.4129 92.5191L97.8467 86.3311L115.233 80.0529C126.831 75.8803 138.391 71.6389 149.95 67.3933C161.523 63.1691 173.065 58.8934 184.595 54.5919C207.688 46.0533 230.678 37.3257 253.698 28.6496C259.452 26.4795 265.159 24.2192 270.891 22.0061C276.576 19.7071 282.283 17.4468 287.925 15.0661C299.231 10.3478 310.434 5.43177 321.366 0.00439453C310.748 6.02049 300.396 12.5437 290.151 19.2645C285.016 22.6034 279.945 26.0627 274.858 29.4833C269.813 32.9941 264.742 36.449 259.723 40.0028C239.638 54.2094 219.527 68.3602 199.514 82.7043C189.489 89.8419 179.481 97.0054 169.498 104.225C159.503 111.418 149.512 118.616 139.56 125.887L124.618 136.772L109.724 147.747C99.7934 155.056 89.8539 162.362 79.9875 169.792C63.555 182.168 40.1996 178.876 27.8236 162.443C15.4477 146.011 18.7393 122.655 35.1719 110.279C38.3432 107.89 41.9314 106.042 45.4895 104.801L45.4938 104.796Z" fill="#008CFF"/>
</g>
<g opacity="0.02">
<path d="M46.1861 106.094C57.8358 102.016 69.4168 97.8132 81.0021 93.6192L98.3843 87.3366L115.724 80.9682C127.287 76.7311 138.817 72.4339 150.346 68.1281C161.884 63.8438 173.396 59.5122 184.896 55.1505C207.929 46.4959 230.863 37.6566 253.823 28.8731C259.564 26.6772 265.258 24.3911 270.973 22.1522C276.65 19.8317 282.344 17.5499 287.973 15.1478C299.257 10.3908 310.443 5.44037 321.371 0.00439453C310.744 6.0076 300.379 12.5007 290.113 19.1829C284.969 22.5003 279.886 25.9381 274.785 29.3372C269.727 32.8222 264.643 36.2557 259.607 39.7794C239.466 53.8742 219.295 67.9175 199.218 82.1456C189.163 89.2274 179.125 96.335 169.112 103.49C159.087 110.623 149.066 117.765 139.075 124.972L124.086 135.762L109.14 146.638C99.175 153.888 89.2054 161.124 79.3004 168.485C63.4651 180.255 41.0853 176.964 29.3152 161.128C17.5451 145.293 20.8368 122.913 36.672 111.143C39.6027 108.965 42.9116 107.259 46.1818 106.094H46.1861Z" fill="#008CFF"/>
</g>
<g opacity="0.02">
<path d="M46.8739 107.396C58.4849 103.249 70.0358 98.9864 81.5867 94.7278C93.1462 90.4865 104.697 86.228 116.209 81.8878L150.733 68.8672C162.241 64.5227 173.723 60.131 185.188 55.7177C208.157 46.9471 231.035 38.0003 253.935 29.1051C259.659 26.8834 265.34 24.5715 271.047 22.3069C276.71 19.9649 282.391 17.6573 288.012 15.2337C299.275 10.4337 310.443 5.45326 321.367 0.00439453C310.736 5.99471 300.349 12.4577 290.066 19.0969C284.909 22.3972 279.817 25.8091 274.703 29.1868C269.633 32.646 264.536 36.0537 259.487 39.5516C239.286 53.5391 219.055 67.4706 198.922 81.5827C188.837 88.6086 178.768 95.656 168.721 102.755L138.589 124.056C128.547 131.16 118.547 138.34 108.556 145.538C98.5564 152.723 88.5525 159.895 78.6131 167.192C63.3837 178.369 41.975 175.081 30.798 159.852C19.6209 144.623 22.9083 123.214 38.1376 112.037C40.832 110.06 43.8787 108.488 46.8696 107.4L46.8739 107.396Z" fill="#008CFF"/>
</g>
<g opacity="0.02">
<path d="M47.5653 108.694C59.142 104.478 70.6543 100.151 82.1751 95.8278C93.7002 91.522 105.221 87.199 116.699 82.7987L151.128 69.5977C162.602 65.193 174.054 60.7454 185.493 56.272C208.401 47.3854 231.22 38.3311 254.064 29.3242C259.775 27.0724 265.443 24.739 271.132 22.4486C276.783 20.0852 282.451 17.7518 288.063 15.311C299.309 10.4723 310.46 5.45746 321.371 0C310.731 5.98172 300.332 12.406 290.023 19.0066C284.857 22.2853 279.748 25.6758 274.626 29.032C269.542 32.4611 264.433 35.8473 259.366 39.3195C239.105 53.1952 218.818 67.0193 198.625 81.0153C188.51 87.9811 178.411 94.9727 168.334 102.012L138.108 123.132C128.035 130.175 117.997 137.292 107.971 144.425C97.9373 151.545 87.899 158.657 77.9252 165.881C63.3017 176.469 42.8642 173.203 32.2759 158.58C21.6875 143.957 24.9534 123.519 39.5768 112.931C42.0477 111.139 44.8409 109.699 47.5653 108.689V108.694Z" fill="#008CFF"/>
</g>
<g opacity="0.02">
<path d="M48.2533 109.996C59.7913 105.711 71.2735 101.32 82.7599 96.9366L99.9917 90.3662L117.168 83.6926L151.502 70.3154L168.665 63.6203L185.786 56.8393C208.634 47.8367 231.392 38.675 254.18 29.5563L271.21 22.6034C276.848 20.2142 282.503 17.8593 288.106 15.4013C299.331 10.5197 310.465 5.47475 321.371 0.00439453C310.727 5.97322 300.311 12.3675 289.98 18.9293C284.806 22.1909 279.684 25.5556 274.549 28.8859L259.251 39.0961C238.933 52.8601 218.586 66.5768 198.329 80.4568L183.121 90.8389L167.956 101.307L137.635 122.251L122.483 132.737L107.387 143.325C97.3189 150.381 87.2505 157.428 77.238 164.588C63.2291 174.6 43.7584 171.36 33.7459 157.355C23.7334 143.346 26.9735 123.876 40.9781 113.863C43.2341 112.252 45.7824 110.933 48.2576 110L48.2533 109.996Z" fill="#008CFF"/>
</g>
<g opacity="0.02">
<path d="M48.9449 111.293C60.4486 106.94 71.8964 102.488 83.3484 98.0407L100.529 91.3757L117.657 84.6119L151.898 71.0542L169.013 64.2689L186.086 57.4063C208.87 48.2876 231.572 39.0142 254.3 29.7881L271.287 22.7579C276.912 20.3471 282.559 17.9665 288.149 15.4913C299.352 10.571 310.469 5.49594 321.371 0.0126953C310.723 5.96863 300.285 12.3328 289.933 18.8517C284.746 22.0918 279.615 25.435 274.463 28.7439L259.122 38.8767C238.744 52.5289 218.341 66.1382 198.024 79.9022L182.769 90.1983L167.557 100.576L137.141 121.34L121.942 131.735L106.794 142.229C96.6956 149.221 86.5885 156.208 76.5416 163.294C63.1515 172.739 44.6391 169.542 35.1982 156.152C25.7529 142.762 28.95 124.254 42.3401 114.808C44.3899 113.36 46.7061 112.166 48.9449 111.302V111.293Z" fill="#008CFF"/>
</g>
<g opacity="0.03">
<path d="M49.6321 112.596C61.0971 108.174 72.5105 103.657 83.9325 99.1454L101.061 92.3816L118.143 85.5275L152.288 71.7893L169.357 64.9138L186.387 57.9652C209.11 48.7305 231.757 39.3497 254.424 30.0118L271.373 22.9042C276.989 20.472 282.618 18.0656 288.2 15.5689C299.382 10.6099 310.482 5.50053 321.375 0.00439453C310.718 5.94744 300.267 12.2815 289.894 18.7617C284.698 21.9846 279.55 25.3021 274.389 28.5894L259.005 38.6449C238.568 52.1897 218.109 65.6873 197.727 79.3352L182.429 89.5454L167.17 99.8329L136.659 120.417L121.408 130.721L106.209 141.121C96.0764 148.048 85.935 154.97 75.8494 161.992C63.0824 170.879 45.5326 167.733 36.646 154.966C27.7593 142.199 30.9049 124.649 43.6719 115.763C45.524 114.474 47.6167 113.391 49.6321 112.6V112.596Z" fill="#008CFF"/>
</g>
<g opacity="0.03">
<path d="M50.3247 113.893C61.7553 109.403 73.1343 104.822 84.5176 100.25L101.595 93.3913L118.625 86.4427L152.676 72.5241L169.697 65.5583L186.68 58.5237C209.343 49.173 231.929 39.6847 254.537 30.2352L271.442 23.0503C277.046 20.5965 282.662 18.1686 288.231 15.6504C299.391 10.6528 310.474 5.50903 321.363 0C310.701 5.93445 300.229 12.2299 289.838 18.6714C284.635 21.8771 279.474 25.1688 274.3 28.4346L258.877 38.4085C238.384 51.8416 217.864 65.2317 197.423 78.7636L182.077 88.8878L166.771 99.0851L136.162 119.488L120.863 129.703L105.613 140.007C95.4454 146.874 85.2739 153.733 75.1497 160.686C63.0101 169.022 46.4142 165.941 38.0776 153.802C29.7411 141.662 32.8222 125.066 44.9618 116.729C46.6291 115.586 48.5113 114.611 50.3118 113.889L50.3247 113.893Z" fill="#008CFF"/>
</g>
<g opacity="0.03">
<path d="M51.0119 115.195C62.4038 110.64 73.7527 105.995 85.1017 101.354L102.132 94.4012L119.114 87.3624L153.066 73.2633L170.04 66.2072L186.963 59.0567L254.657 30.4587L271.523 23.2007C277.114 20.7212 282.718 18.2718 288.278 15.7365C299.417 10.6959 310.482 5.52201 321.367 0.00439453C310.697 5.92595 300.212 12.1913 289.795 18.5941C284.578 21.7784 279.409 25.0485 274.222 28.2886L258.761 38.1894L197.143 78.2351L181.737 88.2476L166.383 98.3547L135.68 118.577L120.335 128.702L105.032 138.907C94.8305 145.71 84.6247 152.504 74.4661 159.388C62.9624 167.183 47.3163 164.175 39.5212 152.671C31.726 141.168 34.7341 125.522 46.2377 117.727C47.7245 116.717 49.409 115.844 51.0076 115.195H51.0119Z" fill="#008CFF"/>
</g>
<g opacity="0.03">
<path d="M51.7035 116.493C63.061 111.869 74.3756 107.16 85.6901 102.459C97.0133 97.7703 108.328 93.0648 119.604 88.282L153.461 74.0024L170.388 66.8561L187.268 59.6239L254.785 30.6908L271.609 23.3554C277.187 20.8545 282.782 18.3793 288.329 15.8224C299.446 10.7431 310.494 5.53491 321.371 0.00439453C310.696 5.91306 300.19 12.1483 289.756 18.5082C284.531 21.6752 279.344 24.9196 274.149 28.1382L258.644 37.9616L196.846 77.6679L181.398 87.5944L165.996 97.6112L135.198 117.653C124.919 124.314 114.683 131.048 104.452 137.799C94.2158 144.537 83.9755 151.271 73.7825 158.086C62.9149 165.348 48.2184 162.43 40.9561 151.563C33.6938 140.695 36.6116 125.999 47.4793 118.736C48.7985 117.855 50.294 117.078 51.7078 116.493H51.7035Z" fill="#008CFF"/>
</g>
<g opacity="0.03">
<path d="M52.3951 117.795C63.714 113.103 74.9942 108.328 86.2786 103.563C97.5674 98.8101 108.848 94.0402 120.093 89.1972L153.857 74.7371L170.736 67.5006L187.568 60.1824L254.906 30.9098L271.69 23.4972C277.26 20.9747 282.837 18.4737 288.377 15.8997C299.485 10.8075 310.481 5.50043 321.375 0C310.718 5.93875 300.159 12.0752 289.717 18.4221C284.479 21.5677 279.284 24.7906 274.075 27.9877L258.532 37.7338L196.558 77.1049L181.062 86.9498L165.614 96.8763L134.721 116.738C124.412 123.339 114.142 130.008 103.876 136.694C93.6054 143.368 83.335 150.037 73.1034 156.784C62.8803 163.526 49.1249 160.703 42.3869 150.48C35.6446 140.257 38.4678 126.501 48.6909 119.763C49.8512 118.998 51.1704 118.315 52.4037 117.791L52.3951 117.795Z" fill="#008CFF"/>
</g>
<g opacity="0.03">
<path d="M53.0832 119.093L86.8635 104.667C98.1179 99.8501 109.364 95.0158 120.579 90.1169L154.248 75.4806L171.08 68.1539L187.87 60.7498L255.026 31.142L271.768 23.6519C277.325 21.108 282.889 18.5812 288.42 15.99C299.507 10.8549 310.486 5.51772 321.371 0.00439453C310.705 5.93025 300.134 12.0366 289.666 18.3406C284.419 21.469 279.211 24.6661 273.99 27.8374L258.404 37.5061L196.249 76.542L180.71 86.301L165.215 96.1373L134.223 115.819C123.884 122.359 113.579 128.968 103.279 135.59L72.4034 155.486C62.8034 161.67 50.0106 158.902 43.8226 149.307C37.639 139.707 40.4064 126.914 50.002 120.726C50.9646 120.107 52.0647 119.536 53.0789 119.093H53.0832Z" fill="#008CFF"/>
</g>
<g opacity="0.03">
<path d="M53.7749 120.395L87.4521 105.771C98.6721 100.89 109.888 95.991 121.065 91.0363L154.635 76.2196L171.42 68.8069L188.166 61.3211L255.147 31.3782L271.85 23.8108C277.393 21.2453 282.945 18.6971 288.467 16.0844C299.532 10.9062 310.499 5.5433 321.375 0.0170898C310.701 5.93005 300.113 12.0063 289.627 18.2717C284.372 21.3785 279.146 24.5499 273.917 27.704L258.288 37.2954L195.952 75.9918L180.371 85.6648L164.823 95.4109L133.737 114.912C123.364 121.396 113.029 127.937 102.694 134.498L71.7157 154.197C62.7732 159.882 50.9129 157.243 45.2277 148.301C39.5425 139.358 42.181 127.498 51.1235 121.813C51.9529 121.284 52.9068 120.79 53.7792 120.403L53.7749 120.395Z" fill="#008CFF"/>
</g>
<g opacity="0.03">
<path d="M54.462 121.693L88.0362 106.876C99.2218 101.93 110.403 96.9709 121.554 91.9517C143.857 81.9263 166.224 72.017 188.466 61.8799L255.266 31.5974L271.927 23.9484L288.51 16.1532C299.554 10.9364 310.503 5.5434 321.375 0C310.692 5.89578 300.091 11.9462 289.58 18.1686L273.835 27.5365L258.167 37.0506L195.656 75.4118C174.793 88.153 154.054 101.126 133.251 113.979C122.848 120.404 112.474 126.884 102.11 133.377L71.0235 152.882C62.7385 158.077 51.8107 155.576 46.6153 147.296C41.42 139.011 43.921 128.083 52.2017 122.887C52.9064 122.445 53.7229 122.019 54.462 121.688V121.693Z" fill="#008CFF"/>
</g>
<g opacity="0.04">
<path d="M55.1543 122.995L88.6253 107.985L122.04 92.8758C144.283 82.7301 166.581 72.6961 188.763 62.4473L255.387 31.8296C266.478 26.7074 277.552 21.5421 288.549 16.2393L305.024 8.24224C310.473 5.50061 315.961 2.82346 321.375 0.00878906C316.012 2.9137 310.722 5.96041 305.394 8.93838L289.541 18.1043C278.987 24.2408 268.507 30.5147 258.047 36.8359L195.355 74.8619C174.436 87.4957 153.629 100.34 132.766 113.077L101.525 132.29L70.3363 151.597C62.7174 156.316 52.7178 153.961 48.0037 146.342C43.2854 138.723 45.6402 128.723 53.2592 124.009C53.8522 123.644 54.5441 123.283 55.1586 122.999L55.1543 122.995Z" fill="#008CFF"/>
</g>
<g opacity="0.04">
<path d="M55.8422 124.293C78.0674 114.117 100.353 104.057 122.526 93.7911C144.704 83.5294 166.934 73.3665 189.064 63.0102L255.508 32.0574C266.573 26.8792 277.617 21.6624 288.592 16.321L305.038 8.27232C310.482 5.51781 315.961 2.82776 321.371 0.00878906C316.004 2.90941 310.706 5.93892 305.377 8.904L289.495 18.0141C278.919 24.1161 268.412 30.3385 257.923 36.5995L195.055 74.2861C174.076 86.8082 153.204 99.5279 132.277 112.149C111.345 124.761 90.525 137.584 69.6449 150.287C62.6877 154.519 53.6206 152.311 49.3878 145.358C45.1551 138.4 47.3638 129.333 54.3167 125.101C54.7894 124.813 55.3523 124.52 55.8422 124.288V124.293Z" fill="#008CFF"/>
</g>
<g opacity="0.04">
<path d="M56.5334 125.595C78.6898 115.294 100.902 105.097 123.016 94.7107C145.129 84.333 167.294 74.0412 189.364 63.5774L255.628 32.2851C277.655 21.7441 299.708 11.2417 321.371 0.00878906C299.932 11.6585 278.875 24.0388 257.802 36.3761L194.753 73.7275C173.718 86.1421 152.778 98.7329 131.786 111.234C110.794 123.73 89.9012 136.411 68.9523 148.989C62.6741 152.762 54.5266 150.725 50.7536 144.447C46.9807 138.168 49.0175 130.021 55.2958 126.248C55.6954 126.007 56.1165 125.784 56.5334 125.591V125.595Z" fill="#008CFF"/>
</g>
<g opacity="0.04">
<path d="M57.2215 126.892C79.3134 116.463 101.448 106.128 123.502 95.6259L189.662 64.136L255.748 32.5085C277.724 21.8643 299.717 11.2588 321.371 0.00439453C299.919 11.6327 278.807 23.9055 257.678 36.1439L194.449 73.1601L131.297 110.314C110.24 122.69 89.2744 135.238 68.261 147.691C62.6617 151.008 55.4338 149.161 52.1121 143.561C48.7946 137.962 50.6424 130.734 56.2417 127.412C56.5554 127.228 56.8949 127.047 57.2172 126.892H57.2215Z" fill="#008CFF"/>
</g>
<g opacity="0.04">
<path d="M57.9135 128.194L123.987 96.5453L189.958 64.7029L255.865 32.7403C277.789 21.9972 299.726 11.2886 321.367 0.0126953C299.902 11.6152 278.739 23.7849 257.553 35.9245L194.148 72.6012L130.807 109.403L67.5694 146.397C62.6533 149.272 56.3407 147.618 53.4659 142.706C50.5911 137.79 52.2455 131.477 57.1572 128.603C57.3979 128.461 57.66 128.323 57.9092 128.203L57.9135 128.194Z" fill="#008CFF"/>
</g>
<g opacity="0.04">
<path d="M58.6048 129.492C80.5549 118.805 102.561 108.217 124.468 97.4437L190.228 65.2017L255.989 32.9597C277.861 22.1221 299.743 11.3018 321.371 0.00439453C299.893 11.5854 278.669 23.6476 257.441 35.6927L193.89 72.0944L130.338 108.496C109.14 120.601 88.0407 132.9 66.8898 145.091C62.6614 147.528 57.2598 146.075 54.8232 141.847C52.3867 137.618 53.8392 132.217 58.0676 129.78C58.2395 129.681 58.4372 129.578 58.6134 129.492H58.6048Z" fill="#008CFF"/>
</g>
<g opacity="0.05">
<path d="M59.2929 130.794L124.954 98.3676L190.53 65.7775L256.105 33.1875C277.926 22.251 299.752 11.3275 321.367 0.00439453C299.877 11.5639 278.601 23.523 257.313 35.465L193.576 71.5186L129.84 107.572L66.1899 143.789C62.6576 145.8 58.1627 144.567 56.1516 141.03C54.1405 137.498 55.3782 133.003 58.9105 130.992C59.0308 130.923 59.1683 130.85 59.2929 130.79V130.794Z" fill="#008CFF"/>
</g>
<path d="M59.9842 132.092L125.444 99.2873L190.839 66.3534L256.234 33.4196C277.999 22.3801 299.773 11.3534 321.375 0.00878906C299.872 11.5425 278.54 23.3985 257.2 35.2416L193.279 70.9515L129.358 106.661L65.5061 142.496C62.6699 144.086 59.0818 143.08 57.4875 140.244C55.8975 137.408 56.9031 133.82 59.7392 132.23C59.8123 132.187 59.9068 132.139 59.9842 132.101V132.092Z" fill="#008CFF"/>
<path d="M60.7708 133.579L191.183 67.0109L256.367 33.6817L288.897 16.8968L305.158 8.50006L321.371 0.00878906L305.256 8.68056L289.189 17.4426L257.059 34.9795L192.927 70.2897L64.7156 141.005C62.683 142.126 60.1262 141.387 59.0003 139.354C57.8787 137.322 58.6179 134.765 60.6504 133.643C60.6848 133.626 60.7364 133.596 60.7708 133.579Z" fill="#229BFF"/>
<path d="M61.562 135.061L191.527 67.6425L256.509 33.9352L288.958 16.9999L321.371 0.00439453L289.129 17.3308L256.922 34.7173L192.588 69.6493L63.9254 139.518C62.7007 140.184 61.1709 139.728 60.5048 138.504C59.8388 137.279 60.2943 135.749 61.519 135.083C61.5276 135.079 61.5491 135.066 61.562 135.061Z" fill="#44ABFF"/>
<path d="M62.3481 136.548L321.371 0.00439453L63.1388 138.031C62.7305 138.25 62.2192 138.095 62 137.687C61.7809 137.279 61.9355 136.767 62.3438 136.548H62.3481Z" fill="#66BAFF"/>
</svg>
