<svg width="562" height="562" viewBox="0 0 562 562" fill="none" xmlns="http://www.w3.org/2000/svg">
<g clip-path="url(#clip0_838_44275)" filter="url(#filter0_dd_838_44275)">
<path d="M174.422 455.192C78.0938 396.459 47.6147 270.751 106.347 174.422C165.08 78.0938 290.789 47.6147 387.117 106.347C483.446 165.08 513.925 290.789 455.192 387.117C396.459 483.446 270.751 513.925 174.422 455.192Z" fill="#171D88"/>
<g style="mix-blend-mode:color-dodge">
<path d="M482.218 299.149C482.218 299.149 482.297 299.02 482.324 298.879C482.417 298.404 482.471 297.669 482.466 297.547C482.461 297.426 482.233 295.928 482.233 295.928C482.225 295.844 482.202 295.752 482.156 295.763C482.156 295.763 481.666 296.114 481.781 298.154C481.845 299.276 482.099 299.313 482.224 299.172L482.218 299.149Z" fill="url(#paint0_radial_838_44275)"/>
<path d="M484.547 297.398C484.547 297.398 484.591 297.326 484.602 297.274C484.665 296.977 484.731 296.289 484.734 296.153C484.747 296.003 484.67 295.838 484.638 295.858C484.584 295.884 484.506 296.172 484.49 296.457C484.486 296.592 484.493 297.325 484.547 297.398Z" fill="url(#paint1_radial_838_44275)"/>
<path d="M483.857 302.728C483.755 303.047 483.676 303.38 483.622 303.727C483.622 303.727 483.54 304.249 483.488 305.044C483.488 305.044 483.427 305.952 483.443 306.12C483.443 306.12 483.471 306.064 483.525 305.953C483.525 305.953 484.165 302.837 484.348 299.758L484.063 301.357C483.979 301.818 484.007 302.288 483.848 302.743L483.857 302.728Z" fill="url(#paint2_radial_838_44275)"/>
<path d="M483.966 299.092C483.966 299.092 483.984 299.064 483.993 299.049C484.015 299.142 484.012 299.179 483.836 300.372C483.778 300.79 483.703 301.334 483.669 301.648C483.671 301.709 483.665 301.784 483.676 301.83C483.711 301.773 483.735 301.669 483.755 301.603C484.555 298.289 484.432 295.26 484.329 294.685C484.155 294.874 483.788 298.708 483.812 298.959C483.869 298.994 483.903 299.034 483.938 299.075L483.966 299.092Z" fill="url(#paint3_radial_838_44275)"/>
<path d="M482.523 302.073C482.523 302.073 482.525 302.231 482.542 302.301C482.567 302.454 482.624 302.587 482.657 302.725C482.719 302.98 482.734 303.245 482.796 303.499C482.821 303.652 482.849 303.67 482.864 303.679C482.864 303.679 482.896 303.659 482.916 303.593C483.071 302.919 482.948 301.505 482.897 301.395C482.834 301.435 482.736 301.303 482.606 301C482.553 301.087 482.561 302.076 482.561 302.076L482.523 302.073Z" fill="url(#paint4_radial_838_44275)"/>
<path d="M481.64 292.021C481.64 292.021 481.71 291.907 481.717 291.832C481.794 291.544 481.819 291.244 481.819 291.244C481.891 290.382 481.79 289.257 481.744 289.17C481.744 289.17 481.744 289.17 481.73 289.161C481.66 289.276 481.401 290.832 481.459 291.576C481.489 291.85 481.533 292.133 481.649 292.007L481.64 292.021Z" fill="url(#paint5_radial_838_44275)"/>
<path d="M478.036 291.537C478.036 291.537 478.215 291.469 478.385 291.061C478.42 291.003 478.444 290.9 478.479 290.842C478.732 290.169 478.97 289.487 479.223 288.814C479.52 287.971 479.825 284.888 479.567 284.277C479.552 284.269 479.524 284.251 479.509 284.242C479.329 284.408 479.307 284.671 479.056 284.793C478.679 284.957 478.603 284.792 478.537 284.674C478.435 284.454 478.221 282.157 478.254 281.586C478.258 281.352 478.276 281.324 478.351 281.232C478.881 281.397 478.697 282.053 479.091 282.313C479.231 281.985 479.343 280.025 479.046 279.607C479.012 279.567 478.958 279.494 478.906 279.482C478.509 279.358 478.085 279.375 477.691 279.214C477.53 279.155 477.362 279.171 477.219 279.084C476.96 278.926 476.827 278.628 476.536 278.491C476.493 278.464 476.418 278.458 476.372 278.469C475.627 278.625 475.522 284.096 475.962 285.861C476.057 286.254 477.021 287.807 477.287 287.338C477.579 286.827 477.606 286.233 477.789 285.675C477.843 287.008 477.635 288.319 477.703 289.66C477.703 289.66 477.996 291.473 478.059 291.532L478.036 291.537Z" fill="url(#paint6_radial_838_44275)"/>
<path d="M485.247 280.098C484.968 282.331 485.301 284.563 485.092 286.78C485.071 285.178 485.044 284.328 485.013 284.229L484.777 292.142C484.779 292.3 484.775 292.534 484.876 292.852C484.926 292.803 484.958 292.685 484.964 292.61C485.166 291.02 485.769 279.984 485.405 277.319C484.977 278.279 485.362 279.263 485.266 280.228C485.255 280.182 485.243 280.136 485.232 280.089L485.247 280.098Z" fill="url(#paint7_radial_838_44275)"/>
<path d="M472.847 272.558C472.847 272.558 472.882 272.5 472.891 272.486C472.914 272.382 472.927 272.233 472.897 271.958C472.773 270.838 472.319 269.774 472.324 268.635C472.317 266.74 472.313 266.166 472.147 265.986L472.1 265.997C472.016 266.103 471.978 266.198 471.84 266.587C471.63 267.188 471.595 267.245 471.462 267.302C471.219 267.41 470.958 267.192 470.723 267.383C470.651 267.438 470.443 267.843 470.302 268.269C469.294 270.923 469.666 272.509 469.68 272.518C469.83 272.984 471.476 273.062 471.476 273.062C472.154 273.081 472.823 272.662 472.867 272.59L472.847 272.558Z" fill="url(#paint8_radial_838_44275)"/>
<path d="M480.866 282.017C480.866 282.017 480.971 281.845 481.054 281.58C481.488 280.092 481.259 278.692 481.17 278.578C481.17 278.578 481.156 278.57 481.147 278.584C481.068 278.713 481.047 278.877 480.911 278.972C480.807 278.948 480.784 278.953 480.604 278.667C480.49 278.499 480.196 278.044 480.116 278.369C479.983 278.879 480.332 280.825 480.374 281.047C480.552 281.983 480.685 282.281 480.872 282.04L480.866 282.017Z" fill="url(#paint9_radial_838_44275)"/>
<path d="M469.337 352.903C468.805 351.417 469.568 348.809 469.978 347.425C470.013 347.368 471.942 340.232 471.74 339.754C470.516 336.723 467.227 340.469 467.207 340.535C461.612 351.423 461.418 351.483 460.34 351.83C460.262 351.861 451.927 353.417 449.953 350.066C449.146 348.707 449.103 348.681 448.928 348.613C448.226 348.343 447.719 349.078 447.056 348.969C446.036 348.801 445.305 347.901 444.243 347.865C443.719 349.436 444.481 351.417 442.75 352.607C439.794 354.645 438.342 351.988 438.331 351.941C437.667 349.961 439.008 347.923 438.102 345.952C437.605 344.862 435.626 342.906 434.023 342.5C433.254 342.307 414.507 342.044 410.805 345.144C440.668 360.674 454.581 367.187 461.977 368.978C455.45 367.441 443.878 362.355 410.805 345.144C402.985 353.769 403.092 354.11 403.419 355.157C403.952 356.9 411.792 364.102 411.869 364.169C413.018 365.224 414.831 365.384 415.654 366.91C416.069 367.715 416.057 367.766 415.301 370.654C413.73 376.72 413.391 380.118 414.286 380.848C415.671 381.968 416.419 382.582 416.273 384.403C415.919 388.796 413.817 392.793 413.5 397.189C413.372 398.982 412.912 400.77 413.032 402.576C413.029 402.613 413.103 403.525 414.604 403.357C416.784 403.11 418.69 401.889 420.877 401.726C422.283 401.618 423.485 402.391 424.831 402.542C426.393 402.726 426.575 403.171 426.844 404.281C427.228 405.815 428.018 405.391 430.357 404.138C438.006 400.057 438.142 400.061 439.321 400.032C439.39 400.113 439.464 400.217 439.524 400.313C439.506 400.44 439.47 400.595 439.452 400.722C442.414 399.967 443.266 395.307 447.301 396.506C447.515 396.381 447.802 396.201 448.002 396.067C448.142 396.192 448.323 396.381 448.454 396.52C448.416 396.615 448.384 396.733 448.368 396.823C448.991 396.06 450.62 393.744 450.637 393.715C451.727 392.154 452.611 389.896 452.776 389.465C453.366 387.915 455.012 387.283 455.892 385.968C457.111 384.131 459.65 379.967 460.585 378.273C461.707 376.173 462.265 374.957 462.257 374.625C463.481 372.338 464.313 370.606 464.754 369.431C464.754 369.431 464.813 369.368 464.793 369.336C464.778 369.327 464.784 369.35 464.775 369.365C464.758 369.393 464.731 369.436 464.699 369.456C463.816 370.69 463.209 371.469 462.88 371.794C462.935 371.683 463.412 370.91 464.313 369.477C464.856 368.586 465.071 368.265 465.61 367.156C469.479 358.839 470.386 351.731 470.392 351.656C470.186 351.779 469.855 352.215 469.4 352.961L469.337 352.903Z" fill="url(#paint10_radial_838_44275)"/>
<path d="M454.389 303.413C455.206 304.463 455.794 304.565 456.125 303.762C456.143 303.734 456.902 301.164 456.165 300.143C455.731 299.563 453.692 299.581 453.235 299.814C452.109 300.368 454.369 303.381 454.389 303.413Z" fill="url(#paint11_radial_838_44275)"/>
<path d="M476.188 338.37C476.285 337.759 476.419 337.152 476.548 336.521C475.949 338.343 474.228 344.364 473.95 345.337C474.902 341.19 475.661 337.911 476.821 334.62C477.089 333.857 477.062 333.546 477.019 333.165C476.818 333.042 475.993 332.165 475.855 331.391C477.251 330.135 477.373 324.734 477.34 324.497C476.963 324.76 476.79 325.206 476.364 325.419C476.316 325.37 476.276 325.306 476.227 325.257C475.984 325.817 475.884 326.013 475.474 328.106C475.661 324.183 476.258 324.074 476.634 324.008C477.933 321.747 477.165 321.102 476.798 320.799C476.736 319.028 477.656 317.324 477.233 315.53C477.173 315.532 477.075 315.532 477.005 315.549C476.772 315.899 476.609 316.134 475.65 318.74C474.953 320.659 475.231 322.916 473.668 324.543C473.506 324.313 473.404 324.008 473.36 323.627C472.355 324.727 471.842 329.929 473.06 330.16C473.182 330.057 473.339 329.897 473.446 329.785C473.679 330.34 473.739 334.021 473.524 334.697C472.205 338.798 472.785 340.884 473.069 341.097C473.118 341.048 473.191 340.994 473.24 340.945C472.079 344.787 471.553 346.554 471.607 347.985C471.727 347.809 471.87 347.509 472.037 347.085C472.037 347.085 469.799 356.021 469.677 356.479C470.586 354.374 470.642 354.251 471.031 353.484C470.39 355.633 469.513 357.718 468.848 359.874C469.943 358.079 471.399 354.85 471.402 354.813C471.446 354.741 474.606 346.78 474.948 344.862C474.827 344.867 474.648 344.935 474.544 345.009C474.641 344.655 474.713 344.344 475.277 343.644C475.673 343.157 477.938 336.049 477.557 334.931C477.221 335.159 477.125 335.219 476.192 338.333L476.188 338.37Z" fill="url(#paint12_radial_838_44275)"/>
<path d="M481.378 301.788C481.264 301.522 481.087 301.296 480.997 301.024C480.878 300.637 480.867 300.59 480.742 299.47C480.885 299.656 481.082 299.914 481.216 300.114C481.299 300.204 481.351 300.314 481.465 300.384C481.529 300.344 481.857 299.677 481.576 298.62C481.532 298.692 481.488 298.763 481.445 298.835C481.43 298.826 481.387 298.8 481.373 298.791C481.196 297.66 481.709 296.593 481.734 295.486C481.583 295.571 481.662 295.797 481.498 295.874C481.395 295.719 481.329 295.633 481.3 295.615C481.272 295.598 481.004 296.597 480.497 298.612C480.545 297.597 480.651 294.904 480.259 294.449C480.259 294.449 480.221 294.446 480.213 294.46C480.213 294.46 479.563 297.786 479.54 298.245C479.532 298.45 479.665 299.332 479.936 300.889C479.936 300.889 479.824 300.88 479.706 300.749C479.706 300.749 479.678 300.732 479.681 300.694C479.835 301.432 480.051 302.725 480.328 304.575C480.413 305.179 480.41 305.216 480.49 305.343C480.556 305.279 480.611 305.188 480.656 305.071C480.656 305.071 481.415 302.244 481.42 301.912C481.437 301.884 481.426 301.837 481.406 301.805L481.378 301.788Z" fill="url(#paint13_radial_838_44275)"/>
<path d="M446.319 316.259C445.746 317.426 441.148 317.99 441.101 318.001C439.981 318.126 438.824 318.248 438.583 318.869C437.934 320.58 442.405 326.458 442.454 326.508C442.606 326.679 442.815 326.885 443.01 326.985L452.397 317.306C452.449 317.771 452.495 318.212 452.055 321.647C451.854 323.139 451.759 323.909 452.087 324.05C452.944 324.454 459.084 322.781 460.564 321.064C461.21 320.296 461.503 319.234 462.419 318.669C463.383 318.056 464.735 319.038 465.556 317.884C466.308 316.845 466.862 313.934 467.266 311.817C467.674 309.662 467.683 309.648 467.863 309.384C468.221 309.444 468.587 309.49 471.204 310.948C471.92 310.419 472.889 307.957 473.177 307.227C474.444 303.371 472.147 288.144 469.699 289.252C467.275 290.353 464.656 297.62 464.547 298.735C465.172 298.939 465.583 299.071 464.169 302.07C462.974 304.611 463.33 305.32 463.568 305.8C462.917 306.191 460.636 306.927 460.622 306.918C459.247 307.203 457.845 306.821 456.453 307.036C454.704 307.289 453.467 309.607 451.334 308.326C451.291 308.3 446.821 304.905 448.87 297.055C449.489 294.715 450.926 292.617 451.068 290.123C451.131 289.019 449.741 288.132 449.391 288.254C448.842 288.411 447.981 289.501 447.031 293.708C446.548 295.856 444.65 298.086 441.336 300.399C441.226 299.977 441.319 298.984 441.617 297.419C440.059 297.907 433.418 304.986 433.331 307.197C433.523 307.249 433.775 307.179 434.088 306.989C434.401 306.799 436.33 306.229 439.877 305.28C437.859 307.91 436.958 308.581 434.895 309.51C434.487 309.694 434.197 309.814 434.159 310.006C433.88 311.077 436.378 314.669 437.571 314.391C440.171 313.81 441.741 310.75 444.84 311.418C447.391 311.949 446.346 316.216 446.319 316.259Z" fill="url(#paint14_radial_838_44275)"/>
<path d="M484.682 289.326C484.549 289.383 484.465 290.198 484.474 290.894C484.471 291.029 484.472 291.286 484.512 291.35C484.529 291.321 484.547 291.292 484.541 291.269C484.595 290.987 484.779 289.425 484.673 289.34L484.682 289.326Z" fill="url(#paint15_radial_838_44275)"/>
<path d="M440.493 347.587L439.796 349.506C439.796 349.506 439.725 350.074 439.971 350.381C440.129 350.576 440.316 350.591 440.475 350.59C440.829 350.589 441.099 350.34 441.428 350.285C441.642 350.258 441.771 350.336 441.857 350.389C441.886 350.406 441.915 350.424 441.947 350.404C441.947 350.404 442.222 350.276 442.518 349.629C442.824 348.772 442.885 345.796 441.426 346.541C441.111 346.704 440.687 347.076 440.499 347.611L440.493 347.587Z" fill="url(#paint16_radial_838_44275)"/>
<path d="M466.911 317.568C466.911 317.568 466.908 317.605 466.914 317.628C467.291 317.622 469.457 315.654 470.275 313.73C470.962 312.022 469.617 311.871 469.111 312.055C467.431 312.645 466.923 317.516 466.925 317.576L466.911 317.568Z" fill="url(#paint17_radial_838_44275)"/>
<path d="M482.288 310.438C482.399 309.836 482.559 308.83 482.535 308.579C482.482 308.665 482.467 308.755 482.461 308.83C482.241 309.739 481.728 310.451 481.728 310.451C481.499 310.213 481.741 309.848 481.504 309.625C481.313 309.646 481.042 311.254 481.047 311.375C481.011 311.983 481.398 314.287 481.671 314.454C481.865 314.296 481.789 314.033 481.903 313.847C482.128 314.22 481.86 314.628 482.002 315.01C482.002 315.01 482.023 314.964 482.066 314.872C482.444 313.251 482.72 310.957 482.708 310.654C482.438 310.903 482.487 311.307 482.297 311.586C482.156 311.559 482.166 311.348 482.331 310.464L482.288 310.438Z" fill="url(#paint18_radial_838_44275)"/>
<path d="M479.089 299.565C479.06 299.095 479.05 298.951 478.428 299.261C477.892 299.525 477.48 300.751 477.7 302.166C477.836 302.977 478.276 304.742 478.64 304.275C478.675 304.217 478.713 304.122 478.734 304.056C479.015 303.046 479.093 299.785 479.08 299.58L479.089 299.565Z" fill="url(#paint19_radial_838_44275)"/>
<path d="M478.176 319.217C478.176 319.217 478.214 319.22 478.222 319.206C478.249 319.163 478.275 319.119 478.264 319.073C478.281 319.045 478.293 318.993 478.305 318.941C478.524 318.129 478.663 317.288 478.868 316.467C479.114 315.515 479.455 314.6 479.701 313.647C479.879 312.968 479.96 312.544 479.958 312.386C479.769 312.566 478.739 315.128 478.336 316.596C478.132 317.319 478.063 317.69 478.15 318.905C478.163 319.012 478.163 319.11 478.191 319.226L478.176 319.217Z" fill="url(#paint20_radial_838_44275)"/>
<path d="M480.484 312.686C480.484 312.686 480.461 312.692 480.438 312.697C480.309 312.973 479.861 315.97 479.756 316.851C479.716 317.24 479.739 317.333 479.859 317.426C480.017 317.522 480.085 317.249 480.229 317.336C480.301 317.38 480.346 317.467 480.444 317.468C480.444 317.468 480.459 317.476 480.473 317.485C480.473 317.485 480.534 317.483 480.606 317.428C480.719 317.34 480.725 317.265 480.77 317.095C480.779 316.983 480.801 316.818 480.788 316.614C480.738 315.855 480.36 315.151 480.507 314.394C480.692 313.443 480.758 313.109 480.472 312.738L480.484 312.686Z" fill="url(#paint21_radial_838_44275)"/>
<path d="M480.694 320.417C480.508 322.628 480.522 322.637 480.548 322.692C480.583 322.634 480.604 322.568 480.624 322.502C480.633 322.488 481.12 320.461 481.174 319.824C481.228 319.089 480.928 319.161 480.928 319.161C480.8 319.241 480.742 319.757 480.68 320.408L480.694 320.417Z" fill="url(#paint22_radial_838_44275)"/>
<path d="M479.246 324.536C479.015 325.4 478.941 325.65 478.692 325.833C478.663 325.816 478.634 325.798 478.614 325.766C478.616 325.472 478.67 325.19 478.878 324.332C479.451 322.003 479.528 321.36 479.526 321.202C479.516 320.605 479.026 320.246 478.826 320.38C478.826 320.38 478.675 320.886 478.374 321.897C478.219 322.473 477.772 322.948 477.647 323.542C477.342 325.01 477.501 326.526 477.309 328.004C477.179 328.929 476.798 329.78 476.719 330.716C476.712 330.791 476.721 330.875 476.737 330.944C476.737 330.944 476.904 330.79 477.237 330.481C477.237 330.481 477.28 330.507 477.312 330.487C477.313 330.646 477.292 330.81 477.271 330.974C477.14 332.254 477.16 332.286 477.252 332.361C477.351 332.264 477.392 332.131 477.517 332.089C477.636 332.378 477.48 332.795 477.883 332.942C477.995 333.307 477.886 333.713 478.03 334.057C478.065 333.999 478.127 333.899 478.162 333.841C478.596 332.452 479.623 327.051 479.613 326.454C479.43 326.658 479.413 326.943 479.302 327.19C479.231 326.694 479.581 325.667 479.731 325.226C480.244 323.707 479.894 322.568 479.894 322.568C479.721 322.659 479.282 324.381 479.22 324.58L479.246 324.536Z" fill="url(#paint23_radial_838_44275)"/>
<path d="M476.458 303.752C476.388 303.867 470.201 316.856 471.425 322.053C471.767 323.463 473.203 321.365 473.212 321.35C473.924 320.248 475.381 313.593 475.613 312.179C475.819 310.905 477.248 310.693 477.36 311.058C477.414 311.228 477.361 311.412 477.248 311.856C476.6 314.179 477.827 313.587 477.958 313.372C478.302 312.873 478.272 312.244 478.498 311.712C478.776 311.094 479.333 310.665 479.635 310.041C479.725 309.86 479.989 309.233 480.131 308.808C480.185 308.427 479.781 306.861 479.528 306.727C479.38 306.971 479.362 307 479.245 307.578C479.099 308.238 478.894 309.156 478.697 309.253C478.312 309.432 477.673 307.703 477.642 307.625C477.449 306.68 477.756 305.725 477.457 304.794C476.893 302.973 476.63 303.404 476.435 303.757L476.458 303.752Z" fill="url(#paint24_radial_838_44275)"/>
<path d="M176.288 456.33C181.322 459.025 187.966 462.761 193.112 465.209C194.707 465.886 196.165 466.5 197.528 467.075C202.085 468.258 202.764 468.534 217.782 474.559C217.707 474.552 217.618 474.537 217.557 474.54C232.185 478.351 239.821 480.406 240.465 480.707C240.465 480.707 240.372 480.73 240.335 480.726C247.335 482.296 249.868 482.6 257.268 483.448L272.612 484.61C275.801 484.29 278.889 483.553 282.4 481.833C279.132 483.445 275.921 484.383 272.612 484.61C277.774 484.606 284.66 484.748 289.81 484.539C310.524 482.771 310.934 482.745 321.892 480.505L333.165 477.845L333.193 477.862C333.612 477.724 334 477.606 334.387 477.487C333.801 477.544 333.573 477.562 328.827 478.627C329.453 478.28 330.117 478.094 330.759 477.816C328.782 477.733 327.065 478.675 325.216 479.124C325.202 479.017 325.2 478.858 325.187 478.751C332.094 476.306 339.359 475.083 346.25 472.568C343.239 474.081 339.803 474.645 336.963 476.557C338.483 476.617 349.45 473.101 355.393 470.008C359.663 467.786 360.258 467.617 360.822 467.469C360.642 467.635 360.384 467.832 360.16 467.971C360.713 467.776 361.016 467.666 362.2 467.049C362.187 466.942 362.162 466.789 362.157 466.668C362.464 466.422 363.062 465.959 366.082 464.59C365.865 464.753 365.613 464.973 365.409 465.145C366.588 465.312 371.172 462.218 371.466 461.964C371.058 461.899 370.426 461.934 369.57 462.068C370.997 460.89 373.041 461.092 374.474 459.937C373.632 459.799 372.847 460.344 372.011 460.228C371.448 459.386 370.907 458.852 370.388 458.628C369.223 458.115 361.025 457.863 360.951 457.857C355.412 458.025 354.095 457.084 353.954 456.959C351.699 455.124 350.504 453.24 350.369 451.307C350.293 450.236 350.026 450.093 348.805 449.9C348.64 449.878 332.676 447.57 331.941 453.976C331.707 456.04 334.854 456.855 336.368 457.247C335.813 457.479 321.471 461.005 317.641 460.955C315.825 460.931 314.097 460.921 313.266 462.285C313.602 462.864 317.032 465.153 319.165 465.272C324.072 465.526 324.223 466.248 324.529 467.813C325.402 468.385 325.793 468.486 329.101 466.937C330.625 466.225 333.194 465.855 336.809 465.827C338.886 465.813 339.83 468.496 342.097 468.007C346.045 467.132 348.111 466.704 348.296 466.725C348.474 466.755 348.713 466.783 348.878 466.804C348.929 466.914 349 467.056 349.037 467.157C347.777 468.221 342.12 470.877 341 470.647C341.07 470.532 341.129 470.371 341.176 470.262C334.619 469.429 329.661 469.485 326.301 470.43C321.903 471.668 319.661 476.249 315.283 477.519C315.661 477.06 316.188 476.81 316.631 476.47C316.626 476.349 316.639 476.199 316.625 476.092C316.176 476.054 315.734 476.1 315.273 476.114C316.762 474.737 318.466 473.59 319.755 471.993C315.986 472.295 312.402 473.812 308.557 473.497C309.767 471.674 312.559 473.199 313.627 471.093C313.561 470.974 313.49 470.832 313.434 470.699C313.387 470.71 307.887 470.429 307.445 470.475C306.873 470.54 303.993 470.871 303.178 470.237C303.712 469.512 304.004 469.066 304.053 468.899C303.79 468.522 303.438 468.229 303.166 467.866C303.059 467.88 302.892 467.896 302.785 467.91L302.811 467.866C305.202 464.505 306.239 462.708 305.921 462.475C305.923 462.181 305.912 461.78 305.923 461.472C307.22 460.765 308.457 459.609 309.642 458.343L307.648 460.613C308.226 460.375 309.788 459.751 310.939 457.637C311.34 456.916 311.422 456.749 314.866 456.171C317.393 455.742 320.833 455.495 322.839 456.856C323.668 457.401 328.052 458.321 328.739 457.42C328.809 457.305 330.495 454.572 328.871 454.231C328.174 454.082 319.921 453.856 315.512 454.595C313.736 454.891 313.543 454.852 313.463 454.823C313.398 454.606 313.387 454.56 313.698 453.725C313.936 453.142 314.25 452.368 314.488 451.784C314.369 451.495 314.204 451.119 314.085 450.83C315.275 449.008 315.778 447.687 315.596 446.866C314.747 446.546 313.168 445.938 309.992 445.301C309.826 445.023 309.624 444.643 309.473 444.374C310.457 442.847 311.055 441.543 311.266 440.464C311.18 440.412 310.114 440.222 308.069 439.894C308.028 439.121 308.122 438.094 308.306 437.34C307.741 436.976 307.062 436.345 306.685 435.8C308.451 433.194 309.044 432.964 310.609 432.304C309.917 432.276 308.994 432.304 308.31 432.359C308.104 432.116 307.815 431.782 307.601 431.553C307.703 430.867 307.877 429.968 308.084 429.306C309.17 428.774 310.158 427.82 311.049 426.446C310.875 426.183 310.632 425.838 310.458 425.574C309.675 425.825 308.637 426.138 307.839 426.38C307.813 426.069 307.787 425.659 307.76 425.347C296.579 435.803 285.138 426.109 285.081 425.976C289.078 420.358 294.27 415.783 298.436 410.307C297.758 410.288 296.855 410.347 296.179 410.487C296.021 410.391 280.006 401.512 278.177 403.154C275.183 400.83 273.558 399.543 273.302 399.295C271.131 403.566 270.687 404.457 269.231 405.972C267.119 405.301 266.038 404.964 265.988 404.96L263.339 416.443C262.059 419.286 265.002 421.986 268.108 421.93C273.455 427.278 273.44 427.367 272.592 432.247C275.947 434.345 277.652 435.608 277.707 436.035C278.117 438.787 274.824 438.729 273.777 440.414C275.588 443.646 276.58 446.023 273.019 447.181C272.848 447.234 249.41 451.241 244.32 449.93C240.471 448.942 240.694 448.448 243.35 442.346C240.81 442.314 235.777 443.913 235.745 443.933C236.97 445.35 239.035 445.289 240.367 446.496C240.181 446.737 239.937 447.041 239.745 447.258C240.364 448.601 241.438 449.65 242.121 450.952C244.403 451.582 245.895 452.118 246.597 452.559C246.497 452.852 246.396 453.244 246.296 453.537C245.612 453.593 244.723 453.662 244.045 453.741C245.081 454.109 248.319 453.891 253.76 453.086C253.984 453.301 254.276 453.597 254.499 453.812C256.743 452.265 258.505 451.055 273.498 452.436C273.762 452.971 273.889 453.797 273.787 454.385L250.931 458.018C250.865 458.017 246.4 457.061 237.534 455.148L225.753 453.538C226.255 453.943 226.946 454.424 227.492 454.756C229.703 456.104 232.258 456.5 234.66 457.374C239.831 459.253 242.448 460.527 242.513 461.197C241.501 462.274 238.366 463.927 236.032 463.233C236.348 463.78 236.825 464.484 237.222 464.963C237.07 465.245 236.871 465.635 236.728 465.903C242.501 470.584 250.682 469.408 256.484 474.009C256.362 474.565 255.881 475.256 255.409 475.579C255.249 475.324 255.021 474.988 254.852 474.747C253.452 474.977 253.006 475.158 251.886 475.735C251.038 475.468 250.101 474.884 249.075 473.982C247.643 474.232 246.215 473.893 244.781 473.983C244.685 478.081 250.544 475.449 252.549 477.912C252.013 479.437 251.428 479.395 250.157 479.152C249.992 478.874 249.776 478.486 249.61 478.208C248.91 478.215 247.521 477.899 245.441 477.261C245.313 476.987 245.149 476.61 245.015 476.312C238.3 475.212 231.087 477.609 224.792 473.495C224.794 473.201 224.814 472.78 224.839 472.48C228.184 470.935 233.906 474.601 235.369 469.683C234.884 469.347 234.375 468.663 234.212 468.091C234.691 467.694 235.298 467.118 235.719 466.686C235.175 466.512 234.348 466.48 233.799 466.637C233.561 465.153 234.86 464.153 234.991 462.775C234.469 462.339 233.706 461.815 233.123 461.479C232.902 461.679 232.609 461.934 232.403 462.143C228.933 460.598 222.464 457.737 216.717 459.669C216.79 459.97 216.885 460.363 216.958 460.663C217.216 460.821 217.578 461.002 217.837 461.16C215.972 461.795 213.909 461.109 212.085 462.065C212.474 462.558 213.081 463.145 213.577 463.526C212.985 463.657 212.224 464.001 211.74 464.375C199.162 457.612 197.219 456.566 194.746 453.226C195.957 451.561 196.506 451.502 198.57 451.992C198.859 451.519 198.983 450.669 198.849 450.114C202.834 444.547 210.958 450.249 214.77 444.223C213.437 441.854 210.554 441.317 208.959 439.281C209.016 438.962 209.08 438.567 209.137 438.247C210.826 437.544 231.115 431.597 233.286 431.621C233.958 431.617 234.618 432.571 234.913 433.184C235.391 434.145 238.141 435.901 243.165 438.452C245.011 437.588 245.353 437.383 246.346 436.787C246.231 435.64 247.539 433.667 250.27 430.868C250.127 430.23 249.845 429.368 249.532 428.783C255.871 423.943 252.047 414.58 258.073 409.607C258.55 408.953 258.643 408.833 258.713 408.718C259.44 406.719 259.687 406.022 263.195 405.502C263.649 405.306 263.658 405.292 263.667 405.278C263.6 404.902 263.552 404.4 263.43 404.05C262.707 401.974 260.102 401.627 259.347 399.571C258.422 397.018 260.105 394.322 258.929 391.793C258.585 391.032 257.423 390.579 256.737 390.122C251.789 386.737 249.405 384.154 249.585 382.373C249.824 379.978 249.298 375.285 248.903 374.512C247.751 372.234 238.248 354.839 238.233 354.83C234.524 352.096 229.637 352.681 225.768 350.401C222.517 348.498 223.796 342.975 219.179 342.149C212.272 340.912 205.264 340.775 198.304 340.077C195.379 339.771 182.662 343.184 181.869 344.808C177.921 352.899 176.307 362.039 170.68 369.362C170.494 369.603 170.103 369.758 169.823 369.863C167.788 370.552 166.261 368.243 164.229 368.895C162.229 369.526 161.741 371.651 160.324 372.876C157.887 372.309 155.945 371.013 154.5 368.99C144.032 380.668 136.752 387.633 130.178 391.858C136.656 387.693 144.154 380.565 154.5 368.99C150.476 363.358 147.575 360.244 145.799 359.647C141.616 358.239 135.876 356.315 127.683 344.879C123.922 339.612 122.695 333.192 119.837 327.51C117.164 322.236 112.136 318.757 109.262 313.617C98.0639 293.672 97.9574 293.233 97.3003 290.725C96.8769 289.029 96.6153 288.101 94.8254 285.513C90.3182 289.481 90.7331 297.652 90.8554 300.326L91.5656 311.178L93.3618 325.45C94.3085 329.001 96.464 332.088 97.1939 335.704C98.0296 339.857 97.0534 344.107 97.9641 348.267C100.135 358.177 108.472 371.218 109.583 372.723C114.019 378.756 118.022 392.541 119.139 396.59C121.062 403.061 129.144 415.099 132.773 419.064C133.387 418.532 133.924 417.619 134.385 416.324C134.906 416.288 137.348 417.967 141.712 421.363C144.127 423.249 147.056 424.227 149.681 425.769C156.494 429.746 162.388 435.132 169.49 438.634L191.811 449.802C191.195 449.82 189.773 449.353 187.544 448.401C187.637 449.088 188.17 449.926 188.666 450.405C169.99 444.986 156.733 430.581 140.38 421.319C140.213 422.819 139.912 423.798 139.476 424.254C144.267 431.429 147.049 435.351 147.823 436.02C147.562 435.802 147.224 435.517 146.963 435.299C147.433 435.723 148.057 436.281 148.536 436.691L149.072 437.137L152.47 439.898C154.033 441.146 156.001 442.7 161.522 446.598C161.22 446.414 160.933 446.239 160.678 446.044C165.52 449.312 171.565 453.45 176.363 456.337L176.288 456.33ZM158.374 443.911C159.003 443.979 161.274 445.325 165.19 447.948C163.987 447.057 163.123 446.406 162.599 445.995C175.945 453.501 177.014 454.429 178.508 455.694C176.895 455.755 167.04 450.179 161.553 446.676C159.419 445.04 159.121 444.721 158.366 443.925L158.374 443.911Z" fill="url(#paint25_radial_838_44275)"/>
<path d="M217.75 474.933C217.5 474.859 217.169 474.756 216.927 474.668L212.502 473.171C212.502 473.171 212.649 473.221 212.724 473.228C210.229 472.12 207.665 471.187 205.102 470.255C214.474 474.137 216.523 474.717 224.853 477.078C226.177 477.393 227.413 477.693 228.582 477.972C220.346 475.748 220.015 475.644 215.814 474.265C216.467 474.486 217.12 474.707 217.773 474.928L217.75 474.933Z" fill="url(#paint26_radial_838_44275)"/>
<path d="M230.701 478.535C230.418 478.481 230.15 478.436 229.883 478.391C230.873 478.64 231.901 478.795 232.877 479.133C232.543 479.067 232.209 479.002 231.869 478.913L239.26 480.583L239.157 480.559C239.989 480.712 240.168 480.742 240.312 480.732C237.386 480.071 233.724 479.197 228.544 477.969C229.201 478.152 229.894 478.339 230.677 478.541L230.701 478.535Z" fill="url(#paint27_radial_838_44275)"/>
<path d="M196.872 466.891C199.543 468.165 202.33 469.214 205.088 470.246C202.981 469.375 200.511 468.322 197.514 467.066C197.293 467.01 197.085 466.962 196.858 466.882L196.872 466.891Z" fill="url(#paint28_radial_838_44275)"/>
<path d="M339.429 417.436C339.429 417.436 339.355 417.332 339.32 417.291C338.445 415.852 336.293 413.89 336.265 413.872C335.384 413.119 334.884 412.873 334.281 412.958C333.265 413.107 331.967 415.881 332.018 418.511C332.031 419.169 332.118 419.833 332.07 420.493C332.013 421.265 331.293 421.929 331.659 422.783C331.86 423.26 332.769 423.676 334.35 423.99C335.159 424.149 335.727 424.121 336.342 424.082C337.372 424.041 337.648 424.169 338.207 424.964C338.436 425.3 338.841 425.862 339.63 426.087C340.395 426.317 341.184 426.089 341.702 425.854C341.968 425.74 342.287 425.541 342.533 425.395C343.188 424.967 343.734 424.394 344.366 423.972C344.839 423.649 345.084 423.602 345.214 423.583C345.306 423.56 345.306 423.561 345.341 423.503C345.395 423.319 346.817 418.789 343.933 420.419C343.75 420.524 343.64 420.575 343.402 420.902C343.368 420.764 343.393 420.562 343.405 420.412C343.605 418.308 343.439 417.675 343.293 417.074C343.178 416.65 342.894 416.082 342.115 415.745C341.795 415.688 341.348 415.613 340.647 416.052C340.105 416.391 339.865 417.012 339.406 417.442L339.429 417.436Z" fill="url(#paint29_radial_838_44275)"/>
<path d="M484.964 282.467C484.964 282.467 484.964 282.467 484.956 282.481C484.991 281.971 485.082 277.752 484.962 277.463C484.866 277.621 484.761 277.793 484.941 282.472L484.964 282.467Z" fill="url(#paint30_radial_838_44275)"/>
<path d="M215.013 455.164C215.013 455.164 215.006 455.239 215.003 455.276C215.018 455.285 215.046 455.302 215.061 455.311C215.075 455.32 217.895 454.991 217.909 455C218.377 454.911 218.63 454.69 218.72 454.607C219.132 454.189 219.424 453.678 219.9 453.318C220.455 452.882 220.747 452.639 220.776 452.592C220.984 452.186 220.729 451.893 220.187 451.878C219.019 451.855 215.251 454.127 215.009 455.201L215.013 455.164Z" fill="url(#paint31_radial_838_44275)"/>
<path d="M257.708 437.825C257.194 437.926 256.949 438.682 256.282 438.453C255.68 438.244 255.252 437.687 254.633 437.506C254.109 437.364 253.853 437.622 253.746 437.734C253.441 438.04 252.903 440.214 254.35 441.135C254.508 441.232 254.756 441.343 254.922 441.425C255.578 441.707 256.292 441.827 256.962 442.117C257.661 442.425 258.295 442.871 259.017 443.173C260.138 443.66 260.481 443.357 260.743 443.024C261.087 442.426 261.408 440.672 260.781 439.601C260.42 438.967 258.467 437.678 257.722 437.834L257.708 437.825Z" fill="url(#paint32_radial_838_44275)"/>
<path d="M263.51 428.955C263.51 428.955 263.888 430.209 263.931 430.235C264.189 430.491 264.748 430.123 265.4 429.28C266.096 428.365 266.843 426.654 265.763 426.842C265.166 426.951 263.841 427.896 263.546 428.444C263.432 428.631 263.465 428.77 263.516 428.978L263.51 428.955Z" fill="url(#paint33_radial_838_44275)"/>
<path d="M266.237 443.025C266.195 442.803 266.162 442.566 265.797 442.422C265.673 442.367 265.365 442.356 265.137 442.374C265.123 442.366 262.59 442.772 262.5 442.855C262.466 443.267 265.139 444.503 266.612 445.027C266.626 445.036 268.879 445.799 269.227 445.616C269.227 445.616 269.244 445.588 269.253 445.573C269.247 445.55 269.216 445.472 269.104 445.365C269.061 445.338 269.036 445.283 268.993 445.257C268.431 444.757 267.696 444.605 267.065 444.22C266.376 443.799 266.292 443.355 266.237 443.025Z" fill="url(#paint34_radial_838_44275)"/>
<path d="M206.984 458.285C206.984 458.285 206.319 459.021 206.361 459.146C206.412 459.354 208.187 460.673 208.202 460.681C208.23 460.699 208.288 460.734 208.317 460.751C208.518 460.874 208.558 460.84 208.608 460.791C208.756 460.547 208.721 460.25 208.87 460.006C208.966 459.848 209.137 459.696 209.349 459.608C209.609 459.471 209.941 459.477 210.19 459.294C210.399 459.145 210.328 459.004 210.311 458.934C210.164 458.529 208.565 457.889 207.563 458.047C207.257 458.096 207.08 458.225 206.999 458.294L206.984 458.285Z" fill="url(#paint35_radial_838_44275)"/>
<path d="M482.583 256.848C482.583 256.848 482.513 256.865 482.49 256.87C482.446 256.942 482.437 257.055 482.445 257.138C482.521 258.564 482.843 259.942 482.943 261.361C483.098 263.918 482.964 266.495 483.179 269.049C483.211 269.449 483.447 270.02 483.888 270.761C483.888 270.761 483.978 270.776 484.029 270.788C484.285 270.078 484.112 269.361 484.157 268.641C484.229 269.104 484.36 269.427 484.551 269.61C484.551 269.61 484.615 269.57 484.638 269.564C484.659 269.498 484.682 269.394 484.697 269.305C484.974 267.451 484.423 261.647 483.045 251.891C482.858 250.615 482.724 249.607 481.688 248.011C481.67 248.039 481.624 248.05 481.592 248.07C481.271 251.085 482.269 253.939 482.588 256.871L482.583 256.848Z" fill="url(#paint36_radial_838_44275)"/>
<path d="M483.486 276.169C483.309 276.396 483.281 277.443 483.234 278.457C483.09 282.506 482.813 284.445 482.805 284.459C482.583 285.663 482.228 286.826 482.147 288.057C482.089 289.025 482.32 293.007 482.331 293.053C482.372 293.826 482.426 293.899 482.491 294.017C482.757 293.647 482.784 293.053 482.778 293.03C482.807 291.885 482.601 290.736 482.63 289.591C483.039 291.279 483.119 293.021 483.565 294.712C483.583 294.683 483.609 294.64 483.635 294.597C483.638 294.559 483.971 289.976 483.553 289.563C483.238 289.273 482.636 288.256 483.647 285.209C483.67 285.203 483.716 285.192 483.74 285.187C483.791 285.297 483.819 285.412 483.847 285.528C483.844 285.565 483.855 285.611 483.875 285.643C484.058 286.247 483.535 287.622 484.416 287.47C484.459 287.398 485.35 278.152 484.394 277.491C484.394 277.491 484.316 279.019 484.16 282.075C483.796 281.38 484.003 280.62 483.904 279.91C483.851 279.996 483.834 280.025 483.786 281.138C483.775 281.446 483.736 281.994 483.527 283.048C483.477 281.934 483.683 278.593 483.926 276.772C484.003 276.13 483.725 275.94 483.506 276.201L483.486 276.169Z" fill="url(#paint37_radial_838_44275)"/>
<path d="M477.919 245.535C477.474 245.973 477.688 246.656 477.362 247.126C477.316 247.137 477.27 247.149 477.232 247.146C476.755 246.539 476.746 245.746 476.393 245.098C476.034 245.686 475.235 251.778 475.763 255.822C475.933 257.127 476.001 257.661 475.89 258.263C475.858 258.283 475.803 258.308 475.771 258.328C475.577 258 475.458 257.809 475.412 257.755C475.042 257.844 473.543 259.431 473.534 259.446C473.222 260.818 473.35 262.439 473.918 264.308C473.918 264.308 473.96 264.432 473.974 264.441C474.063 264.338 474.15 263.583 474.233 262.176C474.688 262.69 474.936 265.126 474.178 266.239C473.91 266.647 473.88 266.728 473.899 266.956C473.899 266.956 474.154 268.313 474.96 268.607C476.014 268.009 477.247 268.248 477.538 269.095C477.801 269.827 480.088 276.283 480.499 276.416C480.691 276.296 480.833 276.127 481.004 275.976C481.079 275.982 481.169 275.997 481.22 276.009C481.22 276.009 481.209 275.963 481.218 275.948C480.81 273.355 479.509 270.967 479.577 268.271C480.509 268.583 480.265 269.597 480.705 270.2C480.76 270.174 480.847 270.128 480.916 270.112C481.111 269.147 480.901 268.133 481.246 267.181C481.479 267.638 481.464 268.18 481.743 268.626C481.789 268.615 481.835 268.604 481.882 268.593C482.234 267.272 481.866 265.905 482.112 264.597C482.628 265.818 482.365 267.154 482.719 268.414C483.059 267.696 482.736 255.465 481.557 255.041C481.444 255.13 481.293 255.215 481.16 255.272C480.978 254.925 480.964 254.916 480.985 253.491C480.982 251.106 480.834 250.897 480.581 250.763C480.485 250.823 480.383 250.958 480.345 251.052C479.937 252.143 480.116 253.335 479.744 254.428C479.482 255.214 478.769 255.705 478.493 256.482C478.289 254.683 478.799 252.749 479.012 251.914C480.427 246.493 478.674 244.814 477.974 245.51L477.919 245.535Z" fill="url(#paint38_radial_838_44275)"/>
<path d="M445.146 280.583C445.446 280.963 445.668 280.567 445.809 280.239C445.817 280.225 446.379 278.755 446.172 278.156C445.873 277.324 444.97 276.931 444.689 277.035C443.975 277.27 444.746 280.044 445.16 280.592L445.146 280.583Z" fill="url(#paint39_radial_838_44275)"/>
<path d="M449.728 280.304C449.728 280.304 449.703 280.604 449.802 280.763C450.016 281.091 450.659 281.167 450.922 281.091C451.37 280.971 451.764 280.679 452.218 280.582C453.009 280.414 453.856 280.576 454.634 280.302C454.744 280.251 454.9 280.188 455.019 280.123C455.696 279.787 456.059 279.063 456.73 278.704C457.164 278.477 457.653 278.774 458.087 278.547C458.142 278.521 458.171 278.441 458.183 278.389C458.245 277.737 456.889 274.567 456.833 274.434C456.648 274.026 456.407 273.485 456.199 273.082L454.322 269.377C453.815 270.08 453.358 270.345 452.949 270.175C452.541 270.005 452.267 269.937 452.129 269.97C452.07 270.132 452.13 270.582 452.265 271.491C452.463 272.814 452.805 275.031 451.95 276.853C451.379 278.081 450.047 278.844 449.754 280.261L449.728 280.304Z" fill="url(#paint40_radial_838_44275)"/>
<path d="M449.533 275.971C449.533 275.971 450.517 273.163 450.366 271.988C450.282 271.287 449.292 270.585 448.933 270.72C448.245 271.01 448.186 275.209 448.706 276.294C448.874 276.632 449.149 276.859 449.519 275.962L449.533 275.971Z" fill="url(#paint41_radial_838_44275)"/>
<path d="M315.188 185.393C315.37 184.224 313.581 183.862 313.03 184.314C312.65 184.614 310.711 186.76 311.757 187.339C312.378 187.678 314.717 186.78 315.188 185.393Z" fill="url(#paint42_radial_838_44275)"/>
<path d="M333.185 429.13C333.276 428.949 333.158 428.916 332.959 428.854L332.155 429.979C332.828 429.523 333.086 429.325 333.199 429.139L333.185 429.13Z" fill="url(#paint43_radial_838_44275)"/>
<path d="M390.243 307.574C391.025 309.587 391.704 310.671 392.251 310.807C392.3 310.759 392.381 310.69 392.416 310.632C392.592 309.893 392.188 307.421 391.408 305.212C390.455 302.543 388.883 300.147 387.898 297.498C387.383 296.081 387.339 294.538 386.732 293.143C386.505 292.611 386.25 292.771 386.1 292.856C385.951 292.949 384.83 294.433 382.737 297.306C380.937 299.773 379.552 301.528 377.772 303.22C377.574 303.415 377.275 303.646 377.112 303.882C376.623 304.588 376.891 305.795 375.707 306.058C375.114 306.189 374.408 305.798 373.931 305.546C373.425 305.277 373.242 305.481 373.169 305.633C372.808 306.418 373.658 308.157 374.789 308.984C376.611 310.292 380.453 310.645 382.902 310.15C383.757 309.975 384.528 308.882 385.215 306.872C385.542 305.949 385.819 305.882 386.608 306.106C388.105 306.527 388.527 306.351 389.083 306.02C389.384 305.849 389.471 305.902 389.636 306.18C389.867 306.577 390.05 307.181 390.217 307.617L390.243 307.574Z" fill="url(#paint44_radial_838_44275)"/>
<path d="M349.238 427.966C348.217 427.541 347.785 426.312 346.632 426.102C346.342 426.319 346.055 426.952 346.233 428.793C346.297 429.463 346.368 430.057 345.989 430.259C344.483 431.114 344 428.771 342.733 428.589C340.128 428.242 339.216 429.124 338.043 430.24C336.219 432.004 335.99 432.219 335.481 432.44C335.116 432.296 334.885 431.899 334.441 431.885C333.094 431.832 331.815 432.411 330.446 432.266C329.212 431.868 330.635 430.923 331.681 430.241C331.984 430.045 332.404 429.572 332.94 428.822C331.287 428.465 329.69 429.598 328.018 429.012C327.123 428.703 327.148 427.694 327.293 426.325C327.339 425.959 327.386 425.397 326.974 425.362C326.749 425.344 325.929 425.493 324.437 428.07C323.809 429.164 322.492 431.453 321.725 431.064C321.015 430.71 321.345 430.202 321.832 429.436C322.287 428.689 322.226 428.337 322.143 427.892C321.973 427.04 321.25 426.481 321.008 425.683C320.692 424.683 320.78 423.634 320.51 422.623C320.453 422.588 320.358 422.55 320.277 422.52C320.08 422.715 319.2 424.555 317.639 428.042C316.444 430.681 314.743 433.051 313.605 435.725C313.587 435.754 313.57 435.782 313.567 435.82L312.414 440.908C312.414 440.908 312.497 440.998 312.532 441.039C313.941 440.697 313.849 439.104 314.771 438.366C316.329 438.686 316.766 440.587 318.327 440.869C321.121 441.391 321.62 440.474 322.024 439.716C322.936 438.027 325.901 438.299 325.93 438.316C325.959 438.334 325.984 438.389 326.004 438.42C325.983 438.499 325.616 438.906 324.906 439.641C324.354 440.093 323.591 440.731 323.914 440.848C323.928 440.857 323.942 440.866 323.965 440.86C324.133 440.844 324.436 440.832 325.052 440.597C327.796 439.552 330.08 437.518 332.978 436.803C334.374 436.452 335.841 436.5 337.164 435.849C339.447 434.721 340.716 433.189 341.275 432.369C341.275 432.369 341.275 432.369 341.284 432.354C341.59 434.018 345.455 438.305 347.33 435.489C347.659 434.981 347.955 434.334 348.134 433.911C349.002 431.939 349.16 431.583 349.657 431.866C350.622 432.415 351.419 435.146 352.319 433.863C352.346 433.82 354.436 430.23 353.497 428.928C353.408 428.815 353.195 428.744 353.054 428.717C351.829 428.207 350.437 428.422 349.204 427.926L349.238 427.966Z" fill="url(#paint45_radial_838_44275)"/>
<path d="M446.206 164.296C447.003 165.412 447.988 166.348 448.803 167.435C449.291 168.088 449.748 168.76 450.245 169.398C450.299 169.471 450.382 169.561 450.437 169.633C450.465 169.651 450.94 170.196 451.044 169.865C451.07 169.822 451.062 169.739 451.059 169.678C450.856 168.235 446.525 164.097 446.11 164.1C446.126 164.169 446.158 164.247 446.192 164.288L446.206 164.296Z" fill="url(#paint46_radial_838_44275)"/>
<path d="M387.171 419.149C387.171 419.149 387.306 419.251 387.372 419.271C387.854 419.289 388.879 419.126 389.572 418.603C389.685 418.515 389.839 418.392 389.937 418.294C390.855 417.436 391.262 416.187 392.3 415.421C393.024 414.879 394.066 414.785 394.548 413.897C394.908 412.758 395.075 411.579 395.435 410.44C395.792 409.338 396.462 408.368 396.724 407.227C396.891 406.502 395.882 406.477 395.898 405.837C395.903 405.151 396.787 404.961 396.8 404.26C396.801 404.162 396.799 404.004 396.8 403.906C396.067 403.202 394.626 403.368 394.449 401.98C394.739 401.762 397.841 400.68 398.735 400.732C400.77 400.851 403.824 398.006 403.635 396.571C402.694 396.371 402.274 397.415 401.451 397.504C400.483 396.54 401.484 395.318 401.013 394.282C400.59 394.458 400.092 395.631 399.83 396.319C399.36 397.51 396.149 400.16 395.745 397.334C394.264 397.534 394.455 399.127 393.645 399.874C392.808 400.664 392.441 400.46 391.608 399.952C391.29 400.054 391.081 400.202 390.127 402.22C389.503 403.533 389.269 403.982 388.995 404.366C388.386 405.236 387.468 405.838 386.859 406.707C386.789 406.822 386.701 406.966 386.631 407.081C386.439 407.397 386.167 407.842 385.267 410.74C384.444 413.35 384.838 418.356 385.684 418.616C386.228 418.79 386.803 418.589 387.35 418.726C387.37 418.843 387.32 418.99 387.2 419.166L387.171 419.149Z" fill="url(#paint47_radial_838_44275)"/>
<path d="M317.379 190.944C315.482 191.146 311.209 197.089 311.88 197.636C312.233 197.93 326.281 195.564 326.39 195.513C327.449 195.036 330.687 193.602 332.555 188.438C333.275 185.352 332.632 182.498 332.583 182.448C332.066 182.586 331.154 184.728 331.107 186.905C331.018 190.022 329.335 191.104 328.845 191.002C328.694 190.733 328.548 190.23 329.419 189.737C329.423 189.7 329.411 189.653 329.415 189.616C328.248 189.042 326.653 190.591 325.608 191.628C323.659 193.532 323.098 193.387 321.387 192.994C320.529 192.786 320.002 192.681 319.133 192.782C318.516 192.858 318.065 192.918 317.827 192.793C317.031 192.386 317.585 191.542 317.41 190.924L317.379 190.944Z" fill="url(#paint48_radial_838_44275)"/>
<path d="M303.691 196.207C302.938 196.635 302.061 195.391 301.4 196.249C300.271 197.746 302.524 198.864 301.836 200.315C301.762 200.468 301.661 200.603 301.3 201.033C299.395 203.22 296.71 207.333 296.715 207.357C296.622 207.575 296.577 207.745 296.755 207.873C297.432 208.345 298.38 208.115 298.998 208.748C300.917 210.706 308.987 199.732 309.318 198.929C309.375 198.708 309.378 198.67 309.35 198.555C309.235 198.485 309.09 198.475 308.914 198.526C306.293 199.271 304.797 197.591 304.778 197.461C304.722 197.132 305.435 196.286 306.406 195.145C308.206 193.032 308.275 192.759 308.325 192.612C308.264 192.615 308.184 192.585 308.143 192.619C306.421 193.539 305.39 195.294 303.696 196.23L303.691 196.207Z" fill="url(#paint49_radial_838_44275)"/>
<path d="M397.093 285.162C397.324 283.943 394.835 285.538 394.34 285.866C391.112 287.995 391.995 289.971 392 289.994C392.6 290.852 396.6 286.358 397.093 285.162Z" fill="url(#paint50_radial_838_44275)"/>
<path d="M96.6468 358.729C94.4072 352.873 94.431 352.77 94.9831 350.152C95.4194 348.015 94.9711 346.974 92.7196 341.977C91.6154 339.492 91.5253 338.767 91.2882 336.83C90.5974 330.953 87.0084 321.399 86.5447 320.899C85.9515 321.851 86.2871 325.22 87.5515 331.007C89.1076 338.081 91.4846 344.907 93.3412 351.908C93.2609 351.846 93.0908 351.565 92.8309 351.065C92.8374 351.227 92.9313 351.547 93.1125 352.025C93.7632 353.8 96.0449 359.426 97.2405 360.825C97.2723 360.805 97.3273 360.779 97.3536 360.736C97.2352 360.349 96.9948 359.677 96.6325 358.721L96.6468 358.729Z" fill="url(#paint51_radial_838_44275)"/>
<path d="M195.31 266.717C196.671 267.231 197.347 269.869 199.074 268.814C200.299 268.064 200.146 266.474 201.041 265.523C203.97 262.464 208.461 262.011 211.552 259.267C216.175 255.173 220.258 250.513 224.638 246.172C227.541 243.865 231.13 245.699 234.232 245.069C238.171 243.196 242.886 242.861 246.739 240.739C251.766 237.954 254.152 232.2 259.281 229.537C263.345 227.426 268.157 227.287 272.069 224.748C272.628 224.38 273.327 223.783 273.763 223.261C286.952 207.509 297.38 195.058 284.57 185.121C291.366 182.213 293.651 165.447 301.45 171.876C306.163 175.774 311.331 175.892 311.348 175.863C315.838 173.086 316.223 167.707 318.964 163.824C321.379 166.518 323.47 167.956 325.235 168.14C327.261 170.977 329.382 173.367 331.598 175.309C332.737 174.96 342.302 171.515 327.929 160.782C329.491 158.543 327.142 155.063 330.293 153.32C337.676 149.254 343.532 149.89 346.367 150.634C349.859 151.562 350.656 155.455 353.491 157.105C355.298 158.147 357.636 156.283 359.289 158.158C361.432 160.587 363.438 168.507 363.628 170.198C363.964 173.2 357.328 180.046 357.264 180.086C357.305 180.406 357.374 180.842 357.424 181.148C358.452 180.948 359.234 180.184 360.191 179.841C360.414 180.056 360.715 180.338 360.953 180.562C360.9 182.716 354.314 195.973 354.25 196.013C348.072 199.652 342.496 191.742 336.335 195.096C339.052 205.143 350.769 198.815 356.602 203.849C362.63 209.08 360.107 216.74 362.115 223.105C362.168 223.018 362.168 223.018 362.177 223.004C362.459 222.96 362.844 222.879 363.127 222.835C363.353 223.012 363.657 223.257 363.869 223.426C363.801 223.699 363.695 224.068 363.618 224.355C363.887 224.559 364.249 224.839 364.533 225.051C364.759 224.874 365.066 224.628 365.293 224.451L376.85 233.211C374.965 232.2 369.432 228.807 369.418 228.798C369.427 229.342 372.031 231.435 377.229 235.077C376.096 234.997 374.934 235.352 373.798 234.955C375.019 237.216 377.745 238.366 378.355 241.081C378.371 241.15 377.885 250.8 377.532 251.314C381.498 254.349 383.868 257.731 384.641 261.459C384.377 261.849 384.137 266.712 383.92 276.047C383.766 275.815 383.566 275.496 383.398 275.256C382.873 275.664 382.222 276.312 381.887 276.895L380.982 276.343C380.582 270.624 379.984 267.482 379.186 266.917C376.637 270.936 376.286 287.858 383.28 289.049C383.182 286.626 381.115 285.267 380.171 283.294C381.359 282.186 382.326 281.279 383.141 280.555C382.776 281.573 383.327 282.835 383.332 282.858C383.332 282.858 383.361 282.875 383.367 282.898C383.367 282.898 383.381 282.907 383.404 282.901C383.462 282.838 383.48 282.81 383.6 282.548C384.336 280.791 385.241 280.082 385.592 279.863C386.475 279.318 387.014 279.469 387.653 279.938C387.903 280.11 387.949 280.099 387.981 280.079C387.981 280.079 387.984 280.041 387.979 280.018C387.902 279.853 386.945 278.58 385.717 278.462C387.395 277.358 388.351 277.566 390.614 278.119C392.038 276.978 392.228 276.957 393.366 276.803C392.63 279.368 392.083 281.201 394.014 283.009C395.206 282.711 395.72 275.376 395.555 261.003C398.631 272.713 399.042 282.923 396.791 291.634C393.536 293.097 392.254 307.796 394.334 311.428C395.471 311.609 396.543 312.381 397.55 313.743C397.877 313.726 398.306 313.731 398.632 313.714C399.385 312.932 400.123 312.141 400.861 311.35C401.334 310.575 401.343 310.56 401.343 310.56C401.618 309.98 402.475 308.218 402.34 304.078C402.617 304.109 402.997 304.164 403.288 304.203C404.015 305.887 403.924 306.423 403.186 310.542C406.574 303.725 409.903 297.069 413.437 289.691C410.216 296.492 407.331 302.355 403.174 310.594C403.155 310.818 403.112 311.147 403.209 311.344C403.523 311.732 407.348 310.499 408.482 306.7C408.661 306.127 408.87 305.742 409.108 305.545C409.879 305.701 410.268 306.647 411.165 306.564C412.36 306.445 412.903 305.102 414.112 304.993C414.615 304.944 414.825 305.309 415.194 306.223C415.572 307.11 417.02 307.599 419.538 307.69C425.884 307.922 428.215 306.639 426.534 303.841C426.143 303.189 425.076 303.582 424.8 302.744C424.489 301.767 425.723 301.101 425.323 300.109C424.695 298.597 424.418 297.706 424.491 297.435C425.153 294.864 427.815 294.439 429.378 292.812C430.168 292.841 433.575 295.942 433.802 297.637C434.85 296.759 435.013 295.263 436.081 294.417C436.339 294.22 436.607 294.167 437.392 294.173C437.663 294.18 438.289 294.188 440.848 292.026C441.416 291.545 441.49 291.393 441.727 290.907C442.581 288.02 444.746 285.697 445.22 282.657C442.66 281.688 442.303 277.59 438.718 278.043C437.825 276.987 438.331 275.286 437.054 274.409C435.57 273.386 433.734 274.394 432.229 273.535C432.172 273.5 426.157 269.991 427.46 266.078C427.743 265.226 428.239 263.185 426.762 262.796C426.643 262.507 426.624 262.377 426.522 261.35C423.627 258.344 417.936 257.986 417.621 252.398C420.255 252.31 422.132 250.46 424.371 249.501C426.524 252.075 427.737 252.282 429.301 252.527C429.344 252.908 429.446 253.581 429.504 253.97C429.674 254.015 429.949 254.242 430.119 254.286C430.346 254.011 430.611 253.641 430.781 253.331C433.335 252.662 433.104 249.843 434.637 248.394C436.188 246.917 438.534 247.107 440.17 245.78C440.446 245.555 440.791 245.214 441.033 244.947C442.236 243.554 441.776 241.757 442.203 240.185C442.654 240.027 444.176 240.47 446.77 241.513C447.681 241.871 448.802 241.13 450.135 239.29C454.299 240.923 455.511 254.248 456.03 259.921C457.493 260.203 457.767 258.558 458.825 258.179C456.632 263.801 456.195 268.997 457.515 273.767C458.793 270.508 459.069 269.83 461.895 268.263C461.189 271.714 457.177 274.289 459.18 278.465C459.469 278.346 459.803 278.057 459.975 277.808C459.989 277.816 460.831 280.28 458.982 281.181C458.161 285.197 457.868 287.874 458.103 289.212C458.172 289.648 458.344 290.206 458.56 290.594C459.127 291.668 460.623 291.379 461.238 292.404C461.8 293.357 461.083 294.338 461.342 295.303C461.566 295.873 462.047 296.246 462.367 296.756C462.436 296.739 469.225 295.166 464.058 290.105C464.137 286.648 459.271 281.16 463.941 279.734C465.627 281.136 464.543 285.595 467.426 284.97C467.887 282.533 466.382 280.512 465.982 278.26C467.183 278.519 468.599 282.14 468.611 282.186C468.68 282.137 469.101 281.533 469.872 280.376C471.916 284.432 473.139 286.582 473.541 286.827C473.72 286.759 473.987 286.646 474.166 286.578C475.263 288.849 475.754 293.685 475.64 301.087C475.922 300.733 476.189 300.22 476.441 299.547C478.897 292.063 472.014 275.733 471.942 275.591C471.755 275.575 471.53 275.557 471.352 275.526C470.923 276.23 470.669 277.001 470.283 277.731C470.137 277.681 469.938 277.619 469.791 277.569C469.958 275.681 469.968 275.372 469.734 274.304L469.389 274.094C469.282 274.205 469.157 274.346 469.035 274.449C467.486 271.594 468.524 268.051 466.582 265.292C467.751 265.033 468.643 266.003 469.258 268.203C469.926 267.56 470.035 265.401 469.584 261.725C469.548 261.428 469.52 259.697 472.537 255.234C473.152 255.195 473.691 255.603 474.314 255.549C475.62 251.244 474.14 248.825 471.181 243.988C472.517 244.251 472.83 245.742 473.956 246.251C474.866 244.049 474.213 241.405 475.883 239.41C476.227 240.88 475.656 242.56 476.924 243.807C477.052 243.727 477.234 243.621 477.362 243.542C477.387 242.887 477.396 242.775 478.421 241.449C478.747 241.432 479.183 241.363 479.501 241.261C479.907 240.11 479.395 239.011 479.331 237.888C479.517 238.198 479.735 238.647 479.866 238.982C479.819 238.455 479.69 237.72 479.478 236.776C479.932 237.473 480.453 238.644 481.039 240.288C480.542 237.766 479.938 234.266 479.227 229.789C479.705 232.01 479.992 234.253 480.446 236.48C480.455 236.466 479.997 231.854 478.465 225.484C478.63 225.762 478.8 226.161 478.911 226.464C477.651 222.328 475.977 216.837 474.731 212.709C467.4 193.723 467.264 193.365 462.35 183.948L462.381 184.026C462.438 184.159 462.529 184.333 462.6 184.475C458.608 179.178 455.977 175.966 454.708 174.838C454.199 174.251 453.533 173.471 453.038 172.893C452.706 172.888 452.291 172.891 451.959 172.886C450.266 170.947 447.848 168.527 444.706 165.627C443.585 164.589 442.21 164.164 440.81 163.843C440.964 163.72 441.17 163.511 441.435 163.141C441.564 162.963 441.645 162.894 441.76 162.866C441.853 162.844 441.899 162.832 442.334 162.959C442.561 163.039 443.33 163.232 443.455 163.091C443.455 163.091 441.848 161.56 440.054 161.077C438.586 160.675 438.216 161.67 438.207 161.684C438.139 161.958 438.237 162.313 438.48 162.658C438.711 162.957 439.024 163.187 439.168 163.274C439.369 163.397 439.596 163.476 439.811 163.608C439.826 163.617 439.854 163.634 439.869 163.643C438.386 163.329 436.908 163.039 435.654 162.156C436.161 161.874 436.813 161.484 437.299 161.17C433.936 151.891 402.114 129.948 393.809 129.71C393.574 129.987 386.683 129.488 373.135 128.213C373.468 127.668 373.877 126.932 374.181 126.369C371.682 126.106 358.852 127.541 358.745 127.554C359.259 128.715 359.807 129.915 366.106 129.502C368.96 129.311 372.2 129.101 384.801 133.081C380.266 134.964 378.424 134.333 376.114 133.535C374.471 132.967 372.592 132.334 371.165 132.349C368.128 132.388 365.113 132.875 362.081 133.035C358.145 133.255 354.611 135.531 350.595 135.269C347.352 135.064 344.44 132.442 340.963 133.946C340.486 134.147 339.934 134.599 339.531 134.905C338.789 135.476 337.68 136.1 336.997 136.767C334.631 139.066 332.502 141.589 330.169 143.929C327.787 146.317 327.583 150.27 324.337 152.072C319.397 154.812 316.397 156.869 315.335 158.244C315.105 158.556 314.776 158.967 314.532 159.27C307.131 168.308 292.403 164.942 286.198 175.99C291.292 185.693 279.845 182.791 274.698 181.091C273.616 180.733 271.642 178.446 268.777 174.231C268.694 174.141 259.599 164.991 256.897 164.9C256.453 164.885 255.868 164.844 255.444 164.861C248.012 165.194 224.734 170.973 224.555 171.041C219.311 172.728 215.689 177.118 210.705 179.22C206.91 180.825 201.571 180.504 195.68 178.311C195.409 178.205 166.978 168.532 147.382 169.918C122.526 171.662 117.184 184.753 117.143 184.885C125.75 179.641 131.452 178.365 134.249 181.055C136.027 180.682 140.295 181.176 147.053 182.539C146.966 182.919 146.46 183.813 145.537 185.219C145.696 185.303 147.513 185.209 150.987 184.938C151.366 187.008 152.059 188.284 153.065 188.766C153.055 188.976 153.062 189.256 153.075 189.461C149.812 192.356 152.029 195.343 153.939 195.247L156.057 195.1C151.335 203.329 168.847 218.734 169.016 218.876C170.805 221.563 170.434 225.531 170.181 227.11C169.621 230.708 172.969 232.808 173.578 235.977C173.851 237.403 173.366 238.23 172.86 238.867C171.975 239.963 171.923 240.049 172.946 240.889C175.2 242.717 177.81 243.993 180.201 245.628C181.535 246.54 183.456 246.588 184.231 248.321C185.134 250.329 185.472 251.067 186.961 250.951C187.235 250.921 187.61 250.952 187.874 251.035C186.212 259.318 192.093 266.212 192.141 266.262C192.227 266.314 192.342 266.384 192.414 266.428C193.32 266.783 194.311 266.482 195.226 266.823L195.31 266.717ZM452.186 190.12C451.513 192.999 450.719 195.981 449.844 199.032C450.711 195.996 451.505 193.013 452.186 190.12ZM265.45 181.755C263.973 185.049 262.446 188.393 260.824 191.894C262.317 188.669 263.853 185.311 265.45 181.755ZM180.638 224.268C181.909 224.866 186.059 226.845 193.328 230.43C189.08 228.352 184.837 226.297 180.362 224.14C180.448 224.192 180.552 224.216 180.638 224.268ZM220.143 243.884C219.905 243.759 219.681 243.642 219.448 243.539C219.672 243.656 219.91 243.782 220.143 243.884Z" fill="url(#paint52_radial_838_44275)"/>
<path d="M293.459 210.985C293.397 209.666 291.455 210.137 290.577 211.157C289.958 211.883 288.732 214.7 288.929 214.958C289.023 215.095 289.467 215.109 291.229 213.544C293.185 211.822 293.306 211.462 293.454 210.962L293.459 210.985Z" fill="url(#paint53_radial_838_44275)"/>
</g>
</g>
<defs>
<filter id="filter0_dd_838_44275" x="-23" y="-23" width="607.54" height="607.54" filterUnits="userSpaceOnUse" color-interpolation-filters="sRGB">
<feFlood flood-opacity="0" result="BackgroundImageFix"/>
<feColorMatrix in="SourceAlpha" type="matrix" values="0 0 0 0 0 0 0 0 0 0 0 0 0 0 0 0 0 0 127 0" result="hardAlpha"/>
<feOffset/>
<feGaussianBlur stdDeviation="11.5"/>
<feColorMatrix type="matrix" values="0 0 0 0 0.339941 0 0 0 0 0.350942 0 0 0 0 1 0 0 0 1 0"/>
<feBlend mode="normal" in2="BackgroundImageFix" result="effect1_dropShadow_838_44275"/>
<feColorMatrix in="SourceAlpha" type="matrix" values="0 0 0 0 0 0 0 0 0 0 0 0 0 0 0 0 0 0 127 0" result="hardAlpha"/>
<feOffset/>
<feGaussianBlur stdDeviation="2"/>
<feColorMatrix type="matrix" values="0 0 0 0 1 0 0 0 0 1 0 0 0 0 1 0 0 0 1 0"/>
<feBlend mode="normal" in2="effect1_dropShadow_838_44275" result="effect2_dropShadow_838_44275"/>
<feBlend mode="normal" in="SourceGraphic" in2="effect2_dropShadow_838_44275" result="shape"/>
</filter>
<radialGradient id="paint0_radial_838_44275" cx="0" cy="0" r="1" gradientUnits="userSpaceOnUse" gradientTransform="translate(359.73 377.68) rotate(121.371) scale(663.376 663.376)">
<stop offset="0.07" stop-color="#C0C0C0"/>
<stop offset="0.29" stop-color="#4C4C4C"/>
<stop offset="0.35" stop-color="#404040"/>
<stop offset="0.51" stop-color="#242424"/>
<stop offset="0.68" stop-color="#101010"/>
<stop offset="0.84" stop-color="#040404"/>
<stop offset="1"/>
</radialGradient>
<radialGradient id="paint1_radial_838_44275" cx="0" cy="0" r="1" gradientUnits="userSpaceOnUse" gradientTransform="translate(359.739 377.665) rotate(121.371) scale(663.323 663.326)">
<stop offset="0.07" stop-color="#C0C0C0"/>
<stop offset="0.29" stop-color="#4C4C4C"/>
<stop offset="0.35" stop-color="#404040"/>
<stop offset="0.51" stop-color="#242424"/>
<stop offset="0.68" stop-color="#101010"/>
<stop offset="0.84" stop-color="#040404"/>
<stop offset="1"/>
</radialGradient>
<radialGradient id="paint2_radial_838_44275" cx="0" cy="0" r="1" gradientUnits="userSpaceOnUse" gradientTransform="translate(359.73 377.679) rotate(121.371) scale(663.376 663.376)">
<stop offset="0.07" stop-color="#C0C0C0"/>
<stop offset="0.29" stop-color="#4C4C4C"/>
<stop offset="0.35" stop-color="#404040"/>
<stop offset="0.51" stop-color="#242424"/>
<stop offset="0.68" stop-color="#101010"/>
<stop offset="0.84" stop-color="#040404"/>
<stop offset="1"/>
</radialGradient>
<radialGradient id="paint3_radial_838_44275" cx="0" cy="0" r="1" gradientUnits="userSpaceOnUse" gradientTransform="translate(359.73 377.68) rotate(121.371) scale(663.359 663.359)">
<stop offset="0.07" stop-color="#C0C0C0"/>
<stop offset="0.29" stop-color="#4C4C4C"/>
<stop offset="0.35" stop-color="#404040"/>
<stop offset="0.51" stop-color="#242424"/>
<stop offset="0.68" stop-color="#101010"/>
<stop offset="0.84" stop-color="#040404"/>
<stop offset="1"/>
</radialGradient>
<radialGradient id="paint4_radial_838_44275" cx="0" cy="0" r="1" gradientUnits="userSpaceOnUse" gradientTransform="translate(359.73 377.68) rotate(121.371) scale(663.379 663.376)">
<stop offset="0.07" stop-color="#C0C0C0"/>
<stop offset="0.29" stop-color="#4C4C4C"/>
<stop offset="0.35" stop-color="#404040"/>
<stop offset="0.51" stop-color="#242424"/>
<stop offset="0.68" stop-color="#101010"/>
<stop offset="0.84" stop-color="#040404"/>
<stop offset="1"/>
</radialGradient>
<radialGradient id="paint5_radial_838_44275" cx="0" cy="0" r="1" gradientUnits="userSpaceOnUse" gradientTransform="translate(359.716 377.671) rotate(121.371) scale(663.393 663.393)">
<stop offset="0.07" stop-color="#C0C0C0"/>
<stop offset="0.29" stop-color="#4C4C4C"/>
<stop offset="0.35" stop-color="#404040"/>
<stop offset="0.51" stop-color="#242424"/>
<stop offset="0.68" stop-color="#101010"/>
<stop offset="0.84" stop-color="#040404"/>
<stop offset="1"/>
</radialGradient>
<radialGradient id="paint6_radial_838_44275" cx="0" cy="0" r="1" gradientUnits="userSpaceOnUse" gradientTransform="translate(359.73 377.679) rotate(121.371) scale(663.375 663.376)">
<stop offset="0.07" stop-color="#C0C0C0"/>
<stop offset="0.29" stop-color="#4C4C4C"/>
<stop offset="0.35" stop-color="#404040"/>
<stop offset="0.51" stop-color="#242424"/>
<stop offset="0.68" stop-color="#101010"/>
<stop offset="0.84" stop-color="#040404"/>
<stop offset="1"/>
</radialGradient>
<radialGradient id="paint7_radial_838_44275" cx="0" cy="0" r="1" gradientUnits="userSpaceOnUse" gradientTransform="translate(359.73 377.679) rotate(121.371) scale(663.376 663.376)">
<stop offset="0.07" stop-color="#C0C0C0"/>
<stop offset="0.29" stop-color="#4C4C4C"/>
<stop offset="0.35" stop-color="#404040"/>
<stop offset="0.51" stop-color="#242424"/>
<stop offset="0.68" stop-color="#101010"/>
<stop offset="0.84" stop-color="#040404"/>
<stop offset="1"/>
</radialGradient>
<radialGradient id="paint8_radial_838_44275" cx="0" cy="0" r="1" gradientUnits="userSpaceOnUse" gradientTransform="translate(359.73 377.68) rotate(121.371) scale(663.376 663.376)">
<stop offset="0.07" stop-color="#C0C0C0"/>
<stop offset="0.29" stop-color="#4C4C4C"/>
<stop offset="0.35" stop-color="#404040"/>
<stop offset="0.51" stop-color="#242424"/>
<stop offset="0.68" stop-color="#101010"/>
<stop offset="0.84" stop-color="#040404"/>
<stop offset="1"/>
</radialGradient>
<radialGradient id="paint9_radial_838_44275" cx="0" cy="0" r="1" gradientUnits="userSpaceOnUse" gradientTransform="translate(359.73 377.68) rotate(121.371) scale(663.392 663.393)">
<stop offset="0.07" stop-color="#C0C0C0"/>
<stop offset="0.29" stop-color="#4C4C4C"/>
<stop offset="0.35" stop-color="#404040"/>
<stop offset="0.51" stop-color="#242424"/>
<stop offset="0.68" stop-color="#101010"/>
<stop offset="0.84" stop-color="#040404"/>
<stop offset="1"/>
</radialGradient>
<radialGradient id="paint10_radial_838_44275" cx="0" cy="0" r="1" gradientUnits="userSpaceOnUse" gradientTransform="translate(359.73 377.679) rotate(121.371) scale(663.376 663.376)">
<stop offset="0.07" stop-color="#C0C0C0"/>
<stop offset="0.29" stop-color="#4C4C4C"/>
<stop offset="0.35" stop-color="#404040"/>
<stop offset="0.51" stop-color="#242424"/>
<stop offset="0.68" stop-color="#101010"/>
<stop offset="0.84" stop-color="#040404"/>
<stop offset="1"/>
</radialGradient>
<radialGradient id="paint11_radial_838_44275" cx="0" cy="0" r="1" gradientUnits="userSpaceOnUse" gradientTransform="translate(359.73 377.68) rotate(121.371) scale(663.378 663.376)">
<stop offset="0.07" stop-color="#C0C0C0"/>
<stop offset="0.29" stop-color="#4C4C4C"/>
<stop offset="0.35" stop-color="#404040"/>
<stop offset="0.51" stop-color="#242424"/>
<stop offset="0.68" stop-color="#101010"/>
<stop offset="0.84" stop-color="#040404"/>
<stop offset="1"/>
</radialGradient>
<radialGradient id="paint12_radial_838_44275" cx="0" cy="0" r="1" gradientUnits="userSpaceOnUse" gradientTransform="translate(359.73 377.68) rotate(121.371) scale(663.376 663.376)">
<stop offset="0.07" stop-color="#C0C0C0"/>
<stop offset="0.29" stop-color="#4C4C4C"/>
<stop offset="0.35" stop-color="#404040"/>
<stop offset="0.51" stop-color="#242424"/>
<stop offset="0.68" stop-color="#101010"/>
<stop offset="0.84" stop-color="#040404"/>
<stop offset="1"/>
</radialGradient>
<radialGradient id="paint13_radial_838_44275" cx="0" cy="0" r="1" gradientUnits="userSpaceOnUse" gradientTransform="translate(359.73 377.68) rotate(121.371) scale(663.376 663.376)">
<stop offset="0.07" stop-color="#C0C0C0"/>
<stop offset="0.29" stop-color="#4C4C4C"/>
<stop offset="0.35" stop-color="#404040"/>
<stop offset="0.51" stop-color="#242424"/>
<stop offset="0.68" stop-color="#101010"/>
<stop offset="0.84" stop-color="#040404"/>
<stop offset="1"/>
</radialGradient>
<radialGradient id="paint14_radial_838_44275" cx="0" cy="0" r="1" gradientUnits="userSpaceOnUse" gradientTransform="translate(359.73 377.68) rotate(121.371) scale(663.376 663.376)">
<stop offset="0.07" stop-color="#C0C0C0"/>
<stop offset="0.29" stop-color="#4C4C4C"/>
<stop offset="0.35" stop-color="#404040"/>
<stop offset="0.51" stop-color="#242424"/>
<stop offset="0.68" stop-color="#101010"/>
<stop offset="0.84" stop-color="#040404"/>
<stop offset="1"/>
</radialGradient>
<radialGradient id="paint15_radial_838_44275" cx="0" cy="0" r="1" gradientUnits="userSpaceOnUse" gradientTransform="translate(359.73 377.679) rotate(121.371) scale(663.375 663.376)">
<stop offset="0.07" stop-color="#C0C0C0"/>
<stop offset="0.29" stop-color="#4C4C4C"/>
<stop offset="0.35" stop-color="#404040"/>
<stop offset="0.51" stop-color="#242424"/>
<stop offset="0.68" stop-color="#101010"/>
<stop offset="0.84" stop-color="#040404"/>
<stop offset="1"/>
</radialGradient>
<radialGradient id="paint16_radial_838_44275" cx="0" cy="0" r="1" gradientUnits="userSpaceOnUse" gradientTransform="translate(359.73 377.68) rotate(121.371) scale(663.376 663.376)">
<stop offset="0.07" stop-color="#C0C0C0"/>
<stop offset="0.29" stop-color="#4C4C4C"/>
<stop offset="0.35" stop-color="#404040"/>
<stop offset="0.51" stop-color="#242424"/>
<stop offset="0.68" stop-color="#101010"/>
<stop offset="0.84" stop-color="#040404"/>
<stop offset="1"/>
</radialGradient>
<radialGradient id="paint17_radial_838_44275" cx="0" cy="0" r="1" gradientUnits="userSpaceOnUse" gradientTransform="translate(359.73 377.68) rotate(121.371) scale(663.376 663.376)">
<stop offset="0.07" stop-color="#C0C0C0"/>
<stop offset="0.29" stop-color="#4C4C4C"/>
<stop offset="0.35" stop-color="#404040"/>
<stop offset="0.51" stop-color="#242424"/>
<stop offset="0.68" stop-color="#101010"/>
<stop offset="0.84" stop-color="#040404"/>
<stop offset="1"/>
</radialGradient>
<radialGradient id="paint18_radial_838_44275" cx="0" cy="0" r="1" gradientUnits="userSpaceOnUse" gradientTransform="translate(359.73 377.679) rotate(121.371) scale(663.376 663.376)">
<stop offset="0.07" stop-color="#C0C0C0"/>
<stop offset="0.29" stop-color="#4C4C4C"/>
<stop offset="0.35" stop-color="#404040"/>
<stop offset="0.51" stop-color="#242424"/>
<stop offset="0.68" stop-color="#101010"/>
<stop offset="0.84" stop-color="#040404"/>
<stop offset="1"/>
</radialGradient>
<radialGradient id="paint19_radial_838_44275" cx="0" cy="0" r="1" gradientUnits="userSpaceOnUse" gradientTransform="translate(359.73 377.68) rotate(121.371) scale(663.377 663.376)">
<stop offset="0.07" stop-color="#C0C0C0"/>
<stop offset="0.29" stop-color="#4C4C4C"/>
<stop offset="0.35" stop-color="#404040"/>
<stop offset="0.51" stop-color="#242424"/>
<stop offset="0.68" stop-color="#101010"/>
<stop offset="0.84" stop-color="#040404"/>
<stop offset="1"/>
</radialGradient>
<radialGradient id="paint20_radial_838_44275" cx="0" cy="0" r="1" gradientUnits="userSpaceOnUse" gradientTransform="translate(359.73 377.68) rotate(121.371) scale(663.358 663.359)">
<stop offset="0.07" stop-color="#C0C0C0"/>
<stop offset="0.29" stop-color="#4C4C4C"/>
<stop offset="0.35" stop-color="#404040"/>
<stop offset="0.51" stop-color="#242424"/>
<stop offset="0.68" stop-color="#101010"/>
<stop offset="0.84" stop-color="#040404"/>
<stop offset="1"/>
</radialGradient>
<radialGradient id="paint21_radial_838_44275" cx="0" cy="0" r="1" gradientUnits="userSpaceOnUse" gradientTransform="translate(359.73 377.679) rotate(121.371) scale(663.376 663.376)">
<stop offset="0.07" stop-color="#C0C0C0"/>
<stop offset="0.29" stop-color="#4C4C4C"/>
<stop offset="0.35" stop-color="#404040"/>
<stop offset="0.51" stop-color="#242424"/>
<stop offset="0.68" stop-color="#101010"/>
<stop offset="0.84" stop-color="#040404"/>
<stop offset="1"/>
</radialGradient>
<radialGradient id="paint22_radial_838_44275" cx="0" cy="0" r="1" gradientUnits="userSpaceOnUse" gradientTransform="translate(359.73 377.68) rotate(121.371) scale(663.375 663.376)">
<stop offset="0.07" stop-color="#C0C0C0"/>
<stop offset="0.29" stop-color="#4C4C4C"/>
<stop offset="0.35" stop-color="#404040"/>
<stop offset="0.51" stop-color="#242424"/>
<stop offset="0.68" stop-color="#101010"/>
<stop offset="0.84" stop-color="#040404"/>
<stop offset="1"/>
</radialGradient>
<radialGradient id="paint23_radial_838_44275" cx="0" cy="0" r="1" gradientUnits="userSpaceOnUse" gradientTransform="translate(359.73 377.679) rotate(121.371) scale(663.376 663.376)">
<stop offset="0.07" stop-color="#C0C0C0"/>
<stop offset="0.29" stop-color="#4C4C4C"/>
<stop offset="0.35" stop-color="#404040"/>
<stop offset="0.51" stop-color="#242424"/>
<stop offset="0.68" stop-color="#101010"/>
<stop offset="0.84" stop-color="#040404"/>
<stop offset="1"/>
</radialGradient>
<radialGradient id="paint24_radial_838_44275" cx="0" cy="0" r="1" gradientUnits="userSpaceOnUse" gradientTransform="translate(359.73 377.68) rotate(121.371) scale(663.376 663.376)">
<stop offset="0.07" stop-color="#C0C0C0"/>
<stop offset="0.29" stop-color="#4C4C4C"/>
<stop offset="0.35" stop-color="#404040"/>
<stop offset="0.51" stop-color="#242424"/>
<stop offset="0.68" stop-color="#101010"/>
<stop offset="0.84" stop-color="#040404"/>
<stop offset="1"/>
</radialGradient>
<radialGradient id="paint25_radial_838_44275" cx="0" cy="0" r="1" gradientUnits="userSpaceOnUse" gradientTransform="translate(359.73 377.68) rotate(121.371) scale(663.376 663.376)">
<stop offset="0.07" stop-color="#C0C0C0"/>
<stop offset="0.29" stop-color="#4C4C4C"/>
<stop offset="0.35" stop-color="#404040"/>
<stop offset="0.51" stop-color="#242424"/>
<stop offset="0.68" stop-color="#101010"/>
<stop offset="0.84" stop-color="#040404"/>
<stop offset="1"/>
</radialGradient>
<radialGradient id="paint26_radial_838_44275" cx="0" cy="0" r="1" gradientUnits="userSpaceOnUse" gradientTransform="translate(359.73 377.679) rotate(121.371) scale(663.377 663.376)">
<stop offset="0.07" stop-color="#C0C0C0"/>
<stop offset="0.29" stop-color="#4C4C4C"/>
<stop offset="0.35" stop-color="#404040"/>
<stop offset="0.51" stop-color="#242424"/>
<stop offset="0.68" stop-color="#101010"/>
<stop offset="0.84" stop-color="#040404"/>
<stop offset="1"/>
</radialGradient>
<radialGradient id="paint27_radial_838_44275" cx="0" cy="0" r="1" gradientUnits="userSpaceOnUse" gradientTransform="translate(359.73 377.679) rotate(121.371) scale(663.378 663.375)">
<stop offset="0.07" stop-color="#C0C0C0"/>
<stop offset="0.29" stop-color="#4C4C4C"/>
<stop offset="0.35" stop-color="#404040"/>
<stop offset="0.51" stop-color="#242424"/>
<stop offset="0.68" stop-color="#101010"/>
<stop offset="0.84" stop-color="#040404"/>
<stop offset="1"/>
</radialGradient>
<radialGradient id="paint28_radial_838_44275" cx="0" cy="0" r="1" gradientUnits="userSpaceOnUse" gradientTransform="translate(359.73 377.68) rotate(121.371) scale(663.39 663.393)">
<stop offset="0.07" stop-color="#C0C0C0"/>
<stop offset="0.29" stop-color="#4C4C4C"/>
<stop offset="0.35" stop-color="#404040"/>
<stop offset="0.51" stop-color="#242424"/>
<stop offset="0.68" stop-color="#101010"/>
<stop offset="0.84" stop-color="#040404"/>
<stop offset="1"/>
</radialGradient>
<radialGradient id="paint29_radial_838_44275" cx="0" cy="0" r="1" gradientUnits="userSpaceOnUse" gradientTransform="translate(359.73 377.679) rotate(121.371) scale(663.376 663.376)">
<stop offset="0.07" stop-color="#C0C0C0"/>
<stop offset="0.29" stop-color="#4C4C4C"/>
<stop offset="0.35" stop-color="#404040"/>
<stop offset="0.51" stop-color="#242424"/>
<stop offset="0.68" stop-color="#101010"/>
<stop offset="0.84" stop-color="#040404"/>
<stop offset="1"/>
</radialGradient>
<radialGradient id="paint30_radial_838_44275" cx="0" cy="0" r="1" gradientUnits="userSpaceOnUse" gradientTransform="translate(359.716 377.671) rotate(121.371) scale(663.376 663.376)">
<stop offset="0.07" stop-color="#C0C0C0"/>
<stop offset="0.29" stop-color="#4C4C4C"/>
<stop offset="0.35" stop-color="#404040"/>
<stop offset="0.51" stop-color="#242424"/>
<stop offset="0.68" stop-color="#101010"/>
<stop offset="0.84" stop-color="#040404"/>
<stop offset="1"/>
</radialGradient>
<radialGradient id="paint31_radial_838_44275" cx="0" cy="0" r="1" gradientUnits="userSpaceOnUse" gradientTransform="translate(359.73 377.679) rotate(121.371) scale(663.377 663.377)">
<stop offset="0.07" stop-color="#C0C0C0"/>
<stop offset="0.29" stop-color="#4C4C4C"/>
<stop offset="0.35" stop-color="#404040"/>
<stop offset="0.51" stop-color="#242424"/>
<stop offset="0.68" stop-color="#101010"/>
<stop offset="0.84" stop-color="#040404"/>
<stop offset="1"/>
</radialGradient>
<radialGradient id="paint32_radial_838_44275" cx="0" cy="0" r="1" gradientUnits="userSpaceOnUse" gradientTransform="translate(359.73 377.68) rotate(121.371) scale(663.376 663.376)">
<stop offset="0.07" stop-color="#C0C0C0"/>
<stop offset="0.29" stop-color="#4C4C4C"/>
<stop offset="0.35" stop-color="#404040"/>
<stop offset="0.51" stop-color="#242424"/>
<stop offset="0.68" stop-color="#101010"/>
<stop offset="0.84" stop-color="#040404"/>
<stop offset="1"/>
</radialGradient>
<radialGradient id="paint33_radial_838_44275" cx="0" cy="0" r="1" gradientUnits="userSpaceOnUse" gradientTransform="translate(359.73 377.679) rotate(121.371) scale(663.378 663.378)">
<stop offset="0.07" stop-color="#C0C0C0"/>
<stop offset="0.29" stop-color="#4C4C4C"/>
<stop offset="0.35" stop-color="#404040"/>
<stop offset="0.51" stop-color="#242424"/>
<stop offset="0.68" stop-color="#101010"/>
<stop offset="0.84" stop-color="#040404"/>
<stop offset="1"/>
</radialGradient>
<radialGradient id="paint34_radial_838_44275" cx="0" cy="0" r="1" gradientUnits="userSpaceOnUse" gradientTransform="translate(359.73 377.68) rotate(121.371) scale(663.388 663.393)">
<stop offset="0.07" stop-color="#C0C0C0"/>
<stop offset="0.29" stop-color="#4C4C4C"/>
<stop offset="0.35" stop-color="#404040"/>
<stop offset="0.51" stop-color="#242424"/>
<stop offset="0.68" stop-color="#101010"/>
<stop offset="0.84" stop-color="#040404"/>
<stop offset="1"/>
</radialGradient>
<radialGradient id="paint35_radial_838_44275" cx="0" cy="0" r="1" gradientUnits="userSpaceOnUse" gradientTransform="translate(359.73 377.68) rotate(121.371) scale(663.374 663.375)">
<stop offset="0.07" stop-color="#C0C0C0"/>
<stop offset="0.29" stop-color="#4C4C4C"/>
<stop offset="0.35" stop-color="#404040"/>
<stop offset="0.51" stop-color="#242424"/>
<stop offset="0.68" stop-color="#101010"/>
<stop offset="0.84" stop-color="#040404"/>
<stop offset="1"/>
</radialGradient>
<radialGradient id="paint36_radial_838_44275" cx="0" cy="0" r="1" gradientUnits="userSpaceOnUse" gradientTransform="translate(359.73 377.679) rotate(121.371) scale(663.376 663.376)">
<stop offset="0.07" stop-color="#C0C0C0"/>
<stop offset="0.29" stop-color="#4C4C4C"/>
<stop offset="0.35" stop-color="#404040"/>
<stop offset="0.51" stop-color="#242424"/>
<stop offset="0.68" stop-color="#101010"/>
<stop offset="0.84" stop-color="#040404"/>
<stop offset="1"/>
</radialGradient>
<radialGradient id="paint37_radial_838_44275" cx="0" cy="0" r="1" gradientUnits="userSpaceOnUse" gradientTransform="translate(359.73 377.68) rotate(121.371) scale(663.376 663.376)">
<stop offset="0.07" stop-color="#C0C0C0"/>
<stop offset="0.29" stop-color="#4C4C4C"/>
<stop offset="0.35" stop-color="#404040"/>
<stop offset="0.51" stop-color="#242424"/>
<stop offset="0.68" stop-color="#101010"/>
<stop offset="0.84" stop-color="#040404"/>
<stop offset="1"/>
</radialGradient>
<radialGradient id="paint38_radial_838_44275" cx="0" cy="0" r="1" gradientUnits="userSpaceOnUse" gradientTransform="translate(359.73 377.679) rotate(121.371) scale(663.376 663.376)">
<stop offset="0.07" stop-color="#C0C0C0"/>
<stop offset="0.29" stop-color="#4C4C4C"/>
<stop offset="0.35" stop-color="#404040"/>
<stop offset="0.51" stop-color="#242424"/>
<stop offset="0.68" stop-color="#101010"/>
<stop offset="0.84" stop-color="#040404"/>
<stop offset="1"/>
</radialGradient>
<radialGradient id="paint39_radial_838_44275" cx="0" cy="0" r="1" gradientUnits="userSpaceOnUse" gradientTransform="translate(359.73 377.68) rotate(121.371) scale(663.377 663.376)">
<stop offset="0.07" stop-color="#C0C0C0"/>
<stop offset="0.29" stop-color="#4C4C4C"/>
<stop offset="0.35" stop-color="#404040"/>
<stop offset="0.51" stop-color="#242424"/>
<stop offset="0.68" stop-color="#101010"/>
<stop offset="0.84" stop-color="#040404"/>
<stop offset="1"/>
</radialGradient>
<radialGradient id="paint40_radial_838_44275" cx="0" cy="0" r="1" gradientUnits="userSpaceOnUse" gradientTransform="translate(359.73 377.68) rotate(121.371) scale(663.376 663.376)">
<stop offset="0.07" stop-color="#C0C0C0"/>
<stop offset="0.29" stop-color="#4C4C4C"/>
<stop offset="0.35" stop-color="#404040"/>
<stop offset="0.51" stop-color="#242424"/>
<stop offset="0.68" stop-color="#101010"/>
<stop offset="0.84" stop-color="#040404"/>
<stop offset="1"/>
</radialGradient>
<radialGradient id="paint41_radial_838_44275" cx="0" cy="0" r="1" gradientUnits="userSpaceOnUse" gradientTransform="translate(359.73 377.679) rotate(121.371) scale(663.376 663.375)">
<stop offset="0.07" stop-color="#C0C0C0"/>
<stop offset="0.29" stop-color="#4C4C4C"/>
<stop offset="0.35" stop-color="#404040"/>
<stop offset="0.51" stop-color="#242424"/>
<stop offset="0.68" stop-color="#101010"/>
<stop offset="0.84" stop-color="#040404"/>
<stop offset="1"/>
</radialGradient>
<radialGradient id="paint42_radial_838_44275" cx="0" cy="0" r="1" gradientUnits="userSpaceOnUse" gradientTransform="translate(359.73 377.68) rotate(121.371) scale(663.375 663.377)">
<stop offset="0.07" stop-color="#C0C0C0"/>
<stop offset="0.29" stop-color="#4C4C4C"/>
<stop offset="0.35" stop-color="#404040"/>
<stop offset="0.51" stop-color="#242424"/>
<stop offset="0.68" stop-color="#101010"/>
<stop offset="0.84" stop-color="#040404"/>
<stop offset="1"/>
</radialGradient>
<radialGradient id="paint43_radial_838_44275" cx="0" cy="0" r="1" gradientUnits="userSpaceOnUse" gradientTransform="translate(359.73 377.679) rotate(121.371) scale(663.363 663.36)">
<stop offset="0.07" stop-color="#C0C0C0"/>
<stop offset="0.29" stop-color="#4C4C4C"/>
<stop offset="0.35" stop-color="#404040"/>
<stop offset="0.51" stop-color="#242424"/>
<stop offset="0.68" stop-color="#101010"/>
<stop offset="0.84" stop-color="#040404"/>
<stop offset="1"/>
</radialGradient>
<radialGradient id="paint44_radial_838_44275" cx="0" cy="0" r="1" gradientUnits="userSpaceOnUse" gradientTransform="translate(359.73 377.68) rotate(121.371) scale(663.376 663.376)">
<stop offset="0.07" stop-color="#C0C0C0"/>
<stop offset="0.29" stop-color="#4C4C4C"/>
<stop offset="0.35" stop-color="#404040"/>
<stop offset="0.51" stop-color="#242424"/>
<stop offset="0.68" stop-color="#101010"/>
<stop offset="0.84" stop-color="#040404"/>
<stop offset="1"/>
</radialGradient>
<radialGradient id="paint45_radial_838_44275" cx="0" cy="0" r="1" gradientUnits="userSpaceOnUse" gradientTransform="translate(359.73 377.679) rotate(121.371) scale(663.376 663.376)">
<stop offset="0.07" stop-color="#C0C0C0"/>
<stop offset="0.29" stop-color="#4C4C4C"/>
<stop offset="0.35" stop-color="#404040"/>
<stop offset="0.51" stop-color="#242424"/>
<stop offset="0.68" stop-color="#101010"/>
<stop offset="0.84" stop-color="#040404"/>
<stop offset="1"/>
</radialGradient>
<radialGradient id="paint46_radial_838_44275" cx="0" cy="0" r="1" gradientUnits="userSpaceOnUse" gradientTransform="translate(359.73 377.68) rotate(121.371) scale(663.376 663.376)">
<stop offset="0.07" stop-color="#C0C0C0"/>
<stop offset="0.29" stop-color="#4C4C4C"/>
<stop offset="0.35" stop-color="#404040"/>
<stop offset="0.51" stop-color="#242424"/>
<stop offset="0.68" stop-color="#101010"/>
<stop offset="0.84" stop-color="#040404"/>
<stop offset="1"/>
</radialGradient>
<radialGradient id="paint47_radial_838_44275" cx="0" cy="0" r="1" gradientUnits="userSpaceOnUse" gradientTransform="translate(359.73 377.68) rotate(121.371) scale(663.359 663.359)">
<stop offset="0.07" stop-color="#C0C0C0"/>
<stop offset="0.29" stop-color="#4C4C4C"/>
<stop offset="0.35" stop-color="#404040"/>
<stop offset="0.51" stop-color="#242424"/>
<stop offset="0.68" stop-color="#101010"/>
<stop offset="0.84" stop-color="#040404"/>
<stop offset="1"/>
</radialGradient>
<radialGradient id="paint48_radial_838_44275" cx="0" cy="0" r="1" gradientUnits="userSpaceOnUse" gradientTransform="translate(359.73 377.68) rotate(121.371) scale(663.376 663.376)">
<stop offset="0.07" stop-color="#C0C0C0"/>
<stop offset="0.29" stop-color="#4C4C4C"/>
<stop offset="0.35" stop-color="#404040"/>
<stop offset="0.51" stop-color="#242424"/>
<stop offset="0.68" stop-color="#101010"/>
<stop offset="0.84" stop-color="#040404"/>
<stop offset="1"/>
</radialGradient>
<radialGradient id="paint49_radial_838_44275" cx="0" cy="0" r="1" gradientUnits="userSpaceOnUse" gradientTransform="translate(359.73 377.679) rotate(121.371) scale(663.375 663.375)">
<stop offset="0.07" stop-color="#C0C0C0"/>
<stop offset="0.29" stop-color="#4C4C4C"/>
<stop offset="0.35" stop-color="#404040"/>
<stop offset="0.51" stop-color="#242424"/>
<stop offset="0.68" stop-color="#101010"/>
<stop offset="0.84" stop-color="#040404"/>
<stop offset="1"/>
</radialGradient>
<radialGradient id="paint50_radial_838_44275" cx="0" cy="0" r="1" gradientUnits="userSpaceOnUse" gradientTransform="translate(359.73 377.68) rotate(121.371) scale(663.377 663.376)">
<stop offset="0.07" stop-color="#C0C0C0"/>
<stop offset="0.29" stop-color="#4C4C4C"/>
<stop offset="0.35" stop-color="#404040"/>
<stop offset="0.51" stop-color="#242424"/>
<stop offset="0.68" stop-color="#101010"/>
<stop offset="0.84" stop-color="#040404"/>
<stop offset="1"/>
</radialGradient>
<radialGradient id="paint51_radial_838_44275" cx="0" cy="0" r="1" gradientUnits="userSpaceOnUse" gradientTransform="translate(359.73 377.68) rotate(121.371) scale(663.376 663.376)">
<stop offset="0.07" stop-color="#C0C0C0"/>
<stop offset="0.29" stop-color="#4C4C4C"/>
<stop offset="0.35" stop-color="#404040"/>
<stop offset="0.51" stop-color="#242424"/>
<stop offset="0.68" stop-color="#101010"/>
<stop offset="0.84" stop-color="#040404"/>
<stop offset="1"/>
</radialGradient>
<radialGradient id="paint52_radial_838_44275" cx="0" cy="0" r="1" gradientUnits="userSpaceOnUse" gradientTransform="translate(359.73 377.68) rotate(121.371) scale(663.376 663.376)">
<stop offset="0.07" stop-color="#C0C0C0"/>
<stop offset="0.29" stop-color="#4C4C4C"/>
<stop offset="0.35" stop-color="#404040"/>
<stop offset="0.51" stop-color="#242424"/>
<stop offset="0.68" stop-color="#101010"/>
<stop offset="0.84" stop-color="#040404"/>
<stop offset="1"/>
</radialGradient>
<radialGradient id="paint53_radial_838_44275" cx="0" cy="0" r="1" gradientUnits="userSpaceOnUse" gradientTransform="translate(359.716 377.671) rotate(121.371) scale(663.359 663.363)">
<stop offset="0.07" stop-color="#C0C0C0"/>
<stop offset="0.29" stop-color="#4C4C4C"/>
<stop offset="0.35" stop-color="#404040"/>
<stop offset="0.51" stop-color="#242424"/>
<stop offset="0.68" stop-color="#101010"/>
<stop offset="0.84" stop-color="#040404"/>
<stop offset="1"/>
</radialGradient>
<clipPath id="clip0_838_44275">
<rect width="408.573" height="408.573" fill="white" transform="translate(561.54 212.695) rotate(121.371)"/>
</clipPath>
</defs>
</svg>
